%TF.GenerationSoftware,KiCad,Pcbnew,7.0.6*%
%TF.CreationDate,2024-04-30T21:14:55+02:00*%
%TF.ProjectId,heimdall_board,6865696d-6461-46c6-9c5f-626f6172642e,rev?*%
%TF.SameCoordinates,Original*%
%TF.FileFunction,Soldermask,Bot*%
%TF.FilePolarity,Negative*%
%FSLAX46Y46*%
G04 Gerber Fmt 4.6, Leading zero omitted, Abs format (unit mm)*
G04 Created by KiCad (PCBNEW 7.0.6) date 2024-04-30 21:14:55*
%MOMM*%
%LPD*%
G01*
G04 APERTURE LIST*
G04 Aperture macros list*
%AMRoundRect*
0 Rectangle with rounded corners*
0 $1 Rounding radius*
0 $2 $3 $4 $5 $6 $7 $8 $9 X,Y pos of 4 corners*
0 Add a 4 corners polygon primitive as box body*
4,1,4,$2,$3,$4,$5,$6,$7,$8,$9,$2,$3,0*
0 Add four circle primitives for the rounded corners*
1,1,$1+$1,$2,$3*
1,1,$1+$1,$4,$5*
1,1,$1+$1,$6,$7*
1,1,$1+$1,$8,$9*
0 Add four rect primitives between the rounded corners*
20,1,$1+$1,$2,$3,$4,$5,0*
20,1,$1+$1,$4,$5,$6,$7,0*
20,1,$1+$1,$6,$7,$8,$9,0*
20,1,$1+$1,$8,$9,$2,$3,0*%
G04 Aperture macros list end*
%ADD10R,2.200000X2.200000*%
%ADD11C,2.200000*%
%ADD12R,1.700000X1.700000*%
%ADD13C,1.700000*%
%ADD14R,3.500000X3.500000*%
%ADD15RoundRect,0.750000X0.750000X1.000000X-0.750000X1.000000X-0.750000X-1.000000X0.750000X-1.000000X0*%
%ADD16RoundRect,0.875000X0.875000X0.875000X-0.875000X0.875000X-0.875000X-0.875000X0.875000X-0.875000X0*%
%ADD17RoundRect,0.248400X-0.651600X0.651600X-0.651600X-0.651600X0.651600X-0.651600X0.651600X0.651600X0*%
%ADD18C,1.800000*%
%ADD19C,1.500000*%
%ADD20O,1.700000X1.700000*%
%ADD21C,0.900000*%
%ADD22R,2.700000X2.700000*%
%ADD23C,1.600000*%
G04 APERTURE END LIST*
D10*
%TO.C,J5*%
X103475000Y-100950000D03*
D11*
X103475000Y-103490000D03*
X103475000Y-106030000D03*
X103475000Y-108570000D03*
%TD*%
D12*
%TO.C,SW1*%
X183175000Y-121000000D03*
D13*
X176675000Y-121000000D03*
X183175000Y-116500000D03*
X176675000Y-116500000D03*
%TD*%
D14*
%TO.C,J3*%
X182275000Y-91650000D03*
D15*
X188275000Y-91650000D03*
D16*
X185275000Y-86950000D03*
%TD*%
D17*
%TO.C,U6*%
X104190000Y-90710000D03*
D18*
X104190000Y-93250000D03*
X104190000Y-95790000D03*
%TD*%
D19*
%TO.C,Y1*%
X167325000Y-111900000D03*
X162445000Y-111900000D03*
%TD*%
D12*
%TO.C,J2*%
X148515000Y-118450000D03*
D20*
X148515000Y-120990000D03*
X145975000Y-118450000D03*
X145975000Y-120990000D03*
X143435000Y-118450000D03*
X143435000Y-120990000D03*
X140895000Y-118450000D03*
X140895000Y-120990000D03*
X138355000Y-118450000D03*
X138355000Y-120990000D03*
X135815000Y-118450000D03*
X135815000Y-120990000D03*
X133275000Y-118450000D03*
X133275000Y-120990000D03*
X130735000Y-118450000D03*
X130735000Y-120990000D03*
X128195000Y-118450000D03*
X128195000Y-120990000D03*
X125655000Y-118450000D03*
X125655000Y-120990000D03*
X123115000Y-118450000D03*
X123115000Y-120990000D03*
%TD*%
D12*
%TO.C,SW2*%
X188175000Y-116450000D03*
D13*
X194675000Y-116450000D03*
X188175000Y-120950000D03*
X194675000Y-120950000D03*
%TD*%
D12*
%TO.C,J4*%
X100895000Y-120850000D03*
D20*
X103435000Y-120850000D03*
X105975000Y-120850000D03*
X108515000Y-120850000D03*
%TD*%
D21*
%TO.C,J1*%
X189550000Y-107150000D03*
X189550000Y-102750000D03*
%TD*%
D22*
%TO.C,BT1*%
X165425000Y-103200000D03*
D23*
X155255000Y-107050000D03*
%TD*%
M02*
