M48
; DRILL file {KiCad 7.0.6} date Tue Apr 30 21:14:50 2024
; FORMAT={-:-/ absolute / inch / decimal}
; #@! TF.CreationDate,2024-04-30T21:14:50+02:00
; #@! TF.GenerationSoftware,Kicad,Pcbnew,7.0.6
; #@! TF.FileFunction,MixedPlating,1,2
FMAT,2
INCH
; #@! TA.AperFunction,Plated,PTH,ComponentDrill
T1C0.0079
; #@! TA.AperFunction,Plated,PTH,ViaDrill
T2C0.0157
; #@! TA.AperFunction,Plated,PTH,ComponentDrill
T3C0.0315
; #@! TA.AperFunction,Plated,PTH,ComponentDrill
T4C0.0354
; #@! TA.AperFunction,Plated,PTH,ComponentDrill
T5C0.0394
; #@! TA.AperFunction,Plated,PTH,ComponentDrill
T6C0.0429
; #@! TA.AperFunction,Plated,PTH,ComponentDrill
T7C0.0433
; #@! TA.AperFunction,Plated,PTH,ComponentDrill
T8C0.0835
; #@! TA.AperFunction,NonPlated,NPTH,ComponentDrill
T9C0.0354
%
G90
G05
T1
X5.2687Y-3.6885
X5.2687Y-3.7485
X5.2987Y-3.6585
X5.2987Y-3.7185
X5.2987Y-3.7785
X5.3287Y-3.6885
X5.3287Y-3.7485
X5.3588Y-3.6585
X5.3588Y-3.7185
X5.3588Y-3.7785
X5.3888Y-3.6885
X5.3888Y-3.7485
T2
X4.247Y-4.2264
X4.3848Y-3.5728
X4.4006Y-3.8051
X4.436Y-4.439
X4.44Y-4.7854
X4.4793Y-3.8563
X4.4872Y-4.3445
X4.5128Y-3.4921
X4.5187Y-3.9685
X4.5384Y-4.7854
X4.5423Y-3.8524
X4.5463Y-4.3327
X4.6053Y-4.2972
X4.6368Y-4.7854
X4.6526Y-3.5846
X4.6526Y-4.0689
X4.7037Y-4.3012
X4.8612Y-3.8996
X4.8652Y-3.8406
X4.8652Y-4.1083
X4.8967Y-3.5492
X4.8967Y-3.8091
X4.9272Y-4.4646
X5.0069Y-3.8287
X5.0128Y-4.4705
X5.0148Y-3.4783
X5.0187Y-4.0295
X5.0187Y-4.0768
X5.0856Y-4.1594
X5.0896Y-3.5807
X5.0974Y-3.9941
X5.1102Y-4.4567
X5.1486Y-4.2972
X5.1959Y-3.5276
X5.2234Y-4.2933
X5.4124Y-4.4754
X5.503Y-3.5571
X5.5817Y-4.1358
X5.688Y-4.1752
X5.6998Y-3.5807
X5.6998Y-3.8287
X5.6998Y-3.9783
X5.7037Y-3.7815
X5.7549Y-4.3524
X5.7648Y-3.7244
X5.814Y-4.3169
X5.8888Y-3.9783
X5.8967Y-3.4311
X5.8967Y-3.7579
X6.0266Y-3.9272
X6.0463Y-3.6909
X6.0738Y-3.4902
X6.0778Y-3.6161
X6.0935Y-4.7815
X6.2077Y-4.5925
X6.3376Y-4.7776
X6.3809Y-3.4862
X6.436Y-3.4862
X6.436Y-3.876
X6.4872Y-3.4862
X6.5226Y-4.4823
X6.5581Y-3.6043
X6.5738Y-4.7736
X6.6368Y-4.0059
X6.6526Y-4.376
X6.6919Y-3.4075
X6.751Y-4.6083
X6.814Y-4.7736
X6.8415Y-4.2421
X6.8445Y-4.6476
X6.9085Y-4.4744
X7.0069Y-4.3524
X7.0226Y-4.0453
X7.0226Y-4.187
X7.0856Y-4.4744
X7.1329Y-4.4075
X7.2589Y-4.1949
T3
X6.3955Y-4.4055
X6.5876Y-4.4055
T4
X4.102Y-3.5713
X4.102Y-3.6713
X4.102Y-3.7713
T5
X3.9722Y-4.7579
X4.0722Y-4.7579
X4.1722Y-4.7579
X4.2722Y-4.7579
X4.847Y-4.6634
X4.847Y-4.7634
X4.947Y-4.6634
X4.947Y-4.7634
X5.047Y-4.6634
X5.047Y-4.7634
X5.147Y-4.6634
X5.147Y-4.7634
X5.247Y-4.6634
X5.247Y-4.7634
X5.347Y-4.6634
X5.347Y-4.7634
X5.447Y-4.6634
X5.447Y-4.7634
X5.547Y-4.6634
X5.547Y-4.7634
X5.647Y-4.6634
X5.647Y-4.7634
X5.747Y-4.6634
X5.747Y-4.7634
X5.847Y-4.6634
X5.847Y-4.7634
X6.9557Y-4.5866
X6.9557Y-4.7638
X7.2116Y-4.5866
X7.2116Y-4.7638
X7.4085Y-4.5846
X7.4085Y-4.7618
X7.6644Y-4.5846
X7.6644Y-4.7618
T6
X6.1124Y-4.2146
T7
X4.0738Y-3.9744
X4.0738Y-4.0744
X4.0738Y-4.1744
X4.0738Y-4.2744
T8
X6.5128Y-4.063
T9
X7.4626Y-4.0453
X7.4626Y-4.2185
T5
G00X7.1762Y-3.6476
M15
G01X7.1762Y-3.5689
M16
G05
G00X7.3337Y-3.4232
M15
G01X7.2549Y-3.4232
M16
G05
G00X7.4124Y-3.6476
M15
G01X7.4124Y-3.5689
M16
G05
T0
M30
