%TF.GenerationSoftware,KiCad,Pcbnew,7.0.6*%
%TF.CreationDate,2024-04-30T21:14:50+02:00*%
%TF.ProjectId,heimdall_board,6865696d-6461-46c6-9c5f-626f6172642e,rev?*%
%TF.SameCoordinates,Original*%
%TF.FileFunction,Drillmap*%
%TF.FilePolarity,Positive*%
%FSLAX45Y45*%
G04 Gerber Fmt 4.5, Leading zero omitted, Abs format (unit mm)*
G04 Created by KiCad (PCBNEW 7.0.6) date 2024-04-30 21:14:50*
%MOMM*%
%LPD*%
G01*
G04 APERTURE LIST*
%ADD10C,0.100000*%
%ADD11C,0.200000*%
%ADD12C,0.020000*%
%ADD13C,0.040000*%
%ADD14C,0.080000*%
%ADD15C,0.090000*%
%ADD16C,0.109000*%
%ADD17C,0.110000*%
%ADD18C,0.212000*%
G04 APERTURE END LIST*
D10*
X9877500Y-8445000D02*
X19637500Y-8445000D01*
X19637500Y-12365000D01*
X9877500Y-12365000D01*
X9877500Y-8445000D01*
D11*
D12*
X13372500Y-9358750D02*
X13392500Y-9378750D01*
X13392500Y-9358750D02*
X13372500Y-9378750D01*
X13372500Y-9511250D02*
X13392500Y-9531250D01*
X13392500Y-9511250D02*
X13372500Y-9531250D01*
X13448750Y-9282500D02*
X13468750Y-9302500D01*
X13468750Y-9282500D02*
X13448750Y-9302500D01*
X13448750Y-9435000D02*
X13468750Y-9455000D01*
X13468750Y-9435000D02*
X13448750Y-9455000D01*
X13448750Y-9587500D02*
X13468750Y-9607500D01*
X13468750Y-9587500D02*
X13448750Y-9607500D01*
X13525000Y-9358750D02*
X13545000Y-9378750D01*
X13545000Y-9358750D02*
X13525000Y-9378750D01*
X13525000Y-9511250D02*
X13545000Y-9531250D01*
X13545000Y-9511250D02*
X13525000Y-9531250D01*
X13601250Y-9282500D02*
X13621250Y-9302500D01*
X13621250Y-9282500D02*
X13601250Y-9302500D01*
X13601250Y-9435000D02*
X13621250Y-9455000D01*
X13621250Y-9435000D02*
X13601250Y-9455000D01*
X13601250Y-9587500D02*
X13621250Y-9607500D01*
X13621250Y-9587500D02*
X13601250Y-9607500D01*
X13677500Y-9358750D02*
X13697500Y-9378750D01*
X13697500Y-9358750D02*
X13677500Y-9378750D01*
X13677500Y-9511250D02*
X13697500Y-9531250D01*
X13697500Y-9511250D02*
X13677500Y-9531250D01*
D13*
X10807500Y-10735000D02*
G75*
G03*
X10807500Y-10735000I-20000J0D01*
G01*
X11157500Y-9075000D02*
G75*
G03*
X11157500Y-9075000I-20000J0D01*
G01*
X11197500Y-9665000D02*
G75*
G03*
X11197500Y-9665000I-20000J0D01*
G01*
X11287500Y-11275000D02*
G75*
G03*
X11287500Y-11275000I-20000J0D01*
G01*
X11297500Y-12155000D02*
G75*
G03*
X11297500Y-12155000I-20000J0D01*
G01*
X11397500Y-9795000D02*
G75*
G03*
X11397500Y-9795000I-20000J0D01*
G01*
X11417500Y-11035000D02*
G75*
G03*
X11417500Y-11035000I-20000J0D01*
G01*
X11482500Y-8870000D02*
G75*
G03*
X11482500Y-8870000I-20000J0D01*
G01*
X11497500Y-10080000D02*
G75*
G03*
X11497500Y-10080000I-20000J0D01*
G01*
X11547500Y-12155000D02*
G75*
G03*
X11547500Y-12155000I-20000J0D01*
G01*
X11557500Y-9785000D02*
G75*
G03*
X11557500Y-9785000I-20000J0D01*
G01*
X11567500Y-11005000D02*
G75*
G03*
X11567500Y-11005000I-20000J0D01*
G01*
X11717500Y-10915000D02*
G75*
G03*
X11717500Y-10915000I-20000J0D01*
G01*
X11797500Y-12155000D02*
G75*
G03*
X11797500Y-12155000I-20000J0D01*
G01*
X11837500Y-9105000D02*
G75*
G03*
X11837500Y-9105000I-20000J0D01*
G01*
X11837500Y-10335000D02*
G75*
G03*
X11837500Y-10335000I-20000J0D01*
G01*
X11967500Y-10925000D02*
G75*
G03*
X11967500Y-10925000I-20000J0D01*
G01*
X12367500Y-9905000D02*
G75*
G03*
X12367500Y-9905000I-20000J0D01*
G01*
X12377500Y-9755000D02*
G75*
G03*
X12377500Y-9755000I-20000J0D01*
G01*
X12377500Y-10435000D02*
G75*
G03*
X12377500Y-10435000I-20000J0D01*
G01*
X12457500Y-9015000D02*
G75*
G03*
X12457500Y-9015000I-20000J0D01*
G01*
X12457500Y-9675000D02*
G75*
G03*
X12457500Y-9675000I-20000J0D01*
G01*
X12535100Y-11340000D02*
G75*
G03*
X12535100Y-11340000I-20000J0D01*
G01*
X12737500Y-9725000D02*
G75*
G03*
X12737500Y-9725000I-20000J0D01*
G01*
X12752500Y-11355000D02*
G75*
G03*
X12752500Y-11355000I-20000J0D01*
G01*
X12757500Y-8835000D02*
G75*
G03*
X12757500Y-8835000I-20000J0D01*
G01*
X12767500Y-10235000D02*
G75*
G03*
X12767500Y-10235000I-20000J0D01*
G01*
X12767500Y-10355000D02*
G75*
G03*
X12767500Y-10355000I-20000J0D01*
G01*
X12937500Y-10565000D02*
G75*
G03*
X12937500Y-10565000I-20000J0D01*
G01*
X12947500Y-9095000D02*
G75*
G03*
X12947500Y-9095000I-20000J0D01*
G01*
X12967500Y-10145000D02*
G75*
G03*
X12967500Y-10145000I-20000J0D01*
G01*
X12999950Y-11320000D02*
G75*
G03*
X12999950Y-11320000I-20000J0D01*
G01*
X13097500Y-10915000D02*
G75*
G03*
X13097500Y-10915000I-20000J0D01*
G01*
X13217500Y-8960000D02*
G75*
G03*
X13217500Y-8960000I-20000J0D01*
G01*
X13287500Y-10905000D02*
G75*
G03*
X13287500Y-10905000I-20000J0D01*
G01*
X13767500Y-11367450D02*
G75*
G03*
X13767500Y-11367450I-20000J0D01*
G01*
X13997500Y-9035000D02*
G75*
G03*
X13997500Y-9035000I-20000J0D01*
G01*
X14197500Y-10505000D02*
G75*
G03*
X14197500Y-10505000I-20000J0D01*
G01*
X14467500Y-10605000D02*
G75*
G03*
X14467500Y-10605000I-20000J0D01*
G01*
X14497500Y-9095000D02*
G75*
G03*
X14497500Y-9095000I-20000J0D01*
G01*
X14497500Y-9725000D02*
G75*
G03*
X14497500Y-9725000I-20000J0D01*
G01*
X14497500Y-10105000D02*
G75*
G03*
X14497500Y-10105000I-20000J0D01*
G01*
X14507500Y-9605000D02*
G75*
G03*
X14507500Y-9605000I-20000J0D01*
G01*
X14637500Y-11055000D02*
G75*
G03*
X14637500Y-11055000I-20000J0D01*
G01*
X14662500Y-9460000D02*
G75*
G03*
X14662500Y-9460000I-20000J0D01*
G01*
X14787500Y-10965000D02*
G75*
G03*
X14787500Y-10965000I-20000J0D01*
G01*
X14977500Y-10105000D02*
G75*
G03*
X14977500Y-10105000I-20000J0D01*
G01*
X14997500Y-8715000D02*
G75*
G03*
X14997500Y-8715000I-20000J0D01*
G01*
X14997500Y-9545000D02*
G75*
G03*
X14997500Y-9545000I-20000J0D01*
G01*
X15327500Y-9975000D02*
G75*
G03*
X15327500Y-9975000I-20000J0D01*
G01*
X15377500Y-9375000D02*
G75*
G03*
X15377500Y-9375000I-20000J0D01*
G01*
X15447500Y-8865000D02*
G75*
G03*
X15447500Y-8865000I-20000J0D01*
G01*
X15457500Y-9185000D02*
G75*
G03*
X15457500Y-9185000I-20000J0D01*
G01*
X15497500Y-12145000D02*
G75*
G03*
X15497500Y-12145000I-20000J0D01*
G01*
X15787500Y-11665000D02*
G75*
G03*
X15787500Y-11665000I-20000J0D01*
G01*
X16117500Y-12135000D02*
G75*
G03*
X16117500Y-12135000I-20000J0D01*
G01*
X16227500Y-8855000D02*
G75*
G03*
X16227500Y-8855000I-20000J0D01*
G01*
X16367500Y-8855000D02*
G75*
G03*
X16367500Y-8855000I-20000J0D01*
G01*
X16367500Y-9845000D02*
G75*
G03*
X16367500Y-9845000I-20000J0D01*
G01*
X16497500Y-8855000D02*
G75*
G03*
X16497500Y-8855000I-20000J0D01*
G01*
X16587500Y-11385000D02*
G75*
G03*
X16587500Y-11385000I-20000J0D01*
G01*
X16677500Y-9155000D02*
G75*
G03*
X16677500Y-9155000I-20000J0D01*
G01*
X16717500Y-12125000D02*
G75*
G03*
X16717500Y-12125000I-20000J0D01*
G01*
X16877500Y-10175000D02*
G75*
G03*
X16877500Y-10175000I-20000J0D01*
G01*
X16917500Y-11115000D02*
G75*
G03*
X16917500Y-11115000I-20000J0D01*
G01*
X17017500Y-8655000D02*
G75*
G03*
X17017500Y-8655000I-20000J0D01*
G01*
X17167500Y-11705000D02*
G75*
G03*
X17167500Y-11705000I-20000J0D01*
G01*
X17327500Y-12125000D02*
G75*
G03*
X17327500Y-12125000I-20000J0D01*
G01*
X17397500Y-10775000D02*
G75*
G03*
X17397500Y-10775000I-20000J0D01*
G01*
X17405050Y-11805000D02*
G75*
G03*
X17405050Y-11805000I-20000J0D01*
G01*
X17567500Y-11365000D02*
G75*
G03*
X17567500Y-11365000I-20000J0D01*
G01*
X17817500Y-11055000D02*
G75*
G03*
X17817500Y-11055000I-20000J0D01*
G01*
X17857500Y-10275000D02*
G75*
G03*
X17857500Y-10275000I-20000J0D01*
G01*
X17857500Y-10635000D02*
G75*
G03*
X17857500Y-10635000I-20000J0D01*
G01*
X18017500Y-11365000D02*
G75*
G03*
X18017500Y-11365000I-20000J0D01*
G01*
X18137500Y-11195000D02*
G75*
G03*
X18137500Y-11195000I-20000J0D01*
G01*
X18457500Y-10655000D02*
G75*
G03*
X18457500Y-10655000I-20000J0D01*
G01*
D14*
X16244500Y-11150000D02*
X16244500Y-11230000D01*
X16204500Y-11190000D02*
X16284500Y-11190000D01*
X16732500Y-11150000D02*
X16732500Y-11230000D01*
X16692500Y-11190000D02*
X16772500Y-11190000D01*
D15*
X10450820Y-9102820D02*
X10450820Y-9039180D01*
X10387180Y-9039180D01*
X10387180Y-9102820D01*
X10450820Y-9102820D01*
X10450820Y-9356820D02*
X10450820Y-9293180D01*
X10387180Y-9293180D01*
X10387180Y-9356820D01*
X10450820Y-9356820D01*
X10450820Y-9610820D02*
X10450820Y-9547180D01*
X10387180Y-9547180D01*
X10387180Y-9610820D01*
X10450820Y-9610820D01*
D10*
X10089500Y-12135000D02*
X10139500Y-12085000D01*
X10089500Y-12035000D01*
X10039500Y-12085000D01*
X10089500Y-12135000D01*
X10343500Y-12135000D02*
X10393500Y-12085000D01*
X10343500Y-12035000D01*
X10293500Y-12085000D01*
X10343500Y-12135000D01*
X10597500Y-12135000D02*
X10647500Y-12085000D01*
X10597500Y-12035000D01*
X10547500Y-12085000D01*
X10597500Y-12135000D01*
X10851500Y-12135000D02*
X10901500Y-12085000D01*
X10851500Y-12035000D01*
X10801500Y-12085000D01*
X10851500Y-12135000D01*
X12311500Y-11895000D02*
X12361500Y-11845000D01*
X12311500Y-11795000D01*
X12261500Y-11845000D01*
X12311500Y-11895000D01*
X12311500Y-12149000D02*
X12361500Y-12099000D01*
X12311500Y-12049000D01*
X12261500Y-12099000D01*
X12311500Y-12149000D01*
X12565500Y-11895000D02*
X12615500Y-11845000D01*
X12565500Y-11795000D01*
X12515500Y-11845000D01*
X12565500Y-11895000D01*
X12565500Y-12149000D02*
X12615500Y-12099000D01*
X12565500Y-12049000D01*
X12515500Y-12099000D01*
X12565500Y-12149000D01*
X12819500Y-11895000D02*
X12869500Y-11845000D01*
X12819500Y-11795000D01*
X12769500Y-11845000D01*
X12819500Y-11895000D01*
X12819500Y-12149000D02*
X12869500Y-12099000D01*
X12819500Y-12049000D01*
X12769500Y-12099000D01*
X12819500Y-12149000D01*
X13073500Y-11895000D02*
X13123500Y-11845000D01*
X13073500Y-11795000D01*
X13023500Y-11845000D01*
X13073500Y-11895000D01*
X13073500Y-12149000D02*
X13123500Y-12099000D01*
X13073500Y-12049000D01*
X13023500Y-12099000D01*
X13073500Y-12149000D01*
X13327500Y-11895000D02*
X13377500Y-11845000D01*
X13327500Y-11795000D01*
X13277500Y-11845000D01*
X13327500Y-11895000D01*
X13327500Y-12149000D02*
X13377500Y-12099000D01*
X13327500Y-12049000D01*
X13277500Y-12099000D01*
X13327500Y-12149000D01*
X13581500Y-11895000D02*
X13631500Y-11845000D01*
X13581500Y-11795000D01*
X13531500Y-11845000D01*
X13581500Y-11895000D01*
X13581500Y-12149000D02*
X13631500Y-12099000D01*
X13581500Y-12049000D01*
X13531500Y-12099000D01*
X13581500Y-12149000D01*
X13835500Y-11895000D02*
X13885500Y-11845000D01*
X13835500Y-11795000D01*
X13785500Y-11845000D01*
X13835500Y-11895000D01*
X13835500Y-12149000D02*
X13885500Y-12099000D01*
X13835500Y-12049000D01*
X13785500Y-12099000D01*
X13835500Y-12149000D01*
X14089500Y-11895000D02*
X14139500Y-11845000D01*
X14089500Y-11795000D01*
X14039500Y-11845000D01*
X14089500Y-11895000D01*
X14089500Y-12149000D02*
X14139500Y-12099000D01*
X14089500Y-12049000D01*
X14039500Y-12099000D01*
X14089500Y-12149000D01*
X14343500Y-11895000D02*
X14393500Y-11845000D01*
X14343500Y-11795000D01*
X14293500Y-11845000D01*
X14343500Y-11895000D01*
X14343500Y-12149000D02*
X14393500Y-12099000D01*
X14343500Y-12049000D01*
X14293500Y-12099000D01*
X14343500Y-12149000D01*
X14597500Y-11895000D02*
X14647500Y-11845000D01*
X14597500Y-11795000D01*
X14547500Y-11845000D01*
X14597500Y-11895000D01*
X14597500Y-12149000D02*
X14647500Y-12099000D01*
X14597500Y-12049000D01*
X14547500Y-12099000D01*
X14597500Y-12149000D01*
X14851500Y-11895000D02*
X14901500Y-11845000D01*
X14851500Y-11795000D01*
X14801500Y-11845000D01*
X14851500Y-11895000D01*
X14851500Y-12149000D02*
X14901500Y-12099000D01*
X14851500Y-12049000D01*
X14801500Y-12099000D01*
X14851500Y-12149000D01*
X17667500Y-11700000D02*
X17717500Y-11650000D01*
X17667500Y-11600000D01*
X17617500Y-11650000D01*
X17667500Y-11700000D01*
X17667500Y-12150000D02*
X17717500Y-12100000D01*
X17667500Y-12050000D01*
X17617500Y-12100000D01*
X17667500Y-12150000D01*
X18227500Y-9215000D02*
X18277500Y-9165000D01*
X18227500Y-9115000D01*
X18177500Y-9165000D01*
X18227500Y-9215000D01*
D11*
X18277500Y-9265000D02*
X18277500Y-9065000D01*
X18277500Y-9065000D02*
G75*
G03*
X18177500Y-9065000I-50000J0D01*
G01*
X18177500Y-9065000D02*
X18177500Y-9265000D01*
X18177500Y-9265000D02*
G75*
G03*
X18277500Y-9265000I50000J0D01*
G01*
D10*
X18317500Y-11700000D02*
X18367500Y-11650000D01*
X18317500Y-11600000D01*
X18267500Y-11650000D01*
X18317500Y-11700000D01*
X18317500Y-12150000D02*
X18367500Y-12100000D01*
X18317500Y-12050000D01*
X18267500Y-12100000D01*
X18317500Y-12150000D01*
X18527500Y-8745000D02*
X18577500Y-8695000D01*
X18527500Y-8645000D01*
X18477500Y-8695000D01*
X18527500Y-8745000D01*
D11*
X18627500Y-8645000D02*
X18427500Y-8645000D01*
X18427500Y-8645000D02*
G75*
G03*
X18427500Y-8745000I0J-50000D01*
G01*
X18427500Y-8745000D02*
X18627500Y-8745000D01*
X18627500Y-8745000D02*
G75*
G03*
X18627500Y-8645000I0J50000D01*
G01*
D10*
X18817500Y-11695000D02*
X18867500Y-11645000D01*
X18817500Y-11595000D01*
X18767500Y-11645000D01*
X18817500Y-11695000D01*
X18817500Y-12145000D02*
X18867500Y-12095000D01*
X18817500Y-12045000D01*
X18767500Y-12095000D01*
X18817500Y-12145000D01*
X18827500Y-9215000D02*
X18877500Y-9165000D01*
X18827500Y-9115000D01*
X18777500Y-9165000D01*
X18827500Y-9215000D01*
D11*
X18877500Y-9265000D02*
X18877500Y-9065000D01*
X18877500Y-9065000D02*
G75*
G03*
X18777500Y-9065000I-50000J0D01*
G01*
X18777500Y-9065000D02*
X18777500Y-9265000D01*
X18777500Y-9265000D02*
G75*
G03*
X18877500Y-9265000I50000J0D01*
G01*
D10*
X19467500Y-11695000D02*
X19517500Y-11645000D01*
X19467500Y-11595000D01*
X19417500Y-11645000D01*
X19467500Y-11695000D01*
X19467500Y-12145000D02*
X19517500Y-12095000D01*
X19467500Y-12045000D01*
X19417500Y-12095000D01*
X19467500Y-12145000D01*
D16*
X15471000Y-10650500D02*
X15580000Y-10759500D01*
X15580000Y-10650500D02*
X15471000Y-10759500D01*
X15580000Y-10705000D02*
G75*
G03*
X15580000Y-10705000I-54500J0D01*
G01*
D17*
X10292500Y-10040000D02*
X10402500Y-10150000D01*
X10402500Y-10040000D02*
X10292500Y-10150000D01*
X10347500Y-10040000D02*
X10347500Y-10150000D01*
X10292500Y-10095000D02*
X10402500Y-10095000D01*
X10292500Y-10294000D02*
X10402500Y-10404000D01*
X10402500Y-10294000D02*
X10292500Y-10404000D01*
X10347500Y-10294000D02*
X10347500Y-10404000D01*
X10292500Y-10349000D02*
X10402500Y-10349000D01*
X10292500Y-10548000D02*
X10402500Y-10658000D01*
X10402500Y-10548000D02*
X10292500Y-10658000D01*
X10347500Y-10548000D02*
X10347500Y-10658000D01*
X10292500Y-10603000D02*
X10402500Y-10603000D01*
X10292500Y-10802000D02*
X10402500Y-10912000D01*
X10402500Y-10802000D02*
X10292500Y-10912000D01*
X10347500Y-10802000D02*
X10347500Y-10912000D01*
X10292500Y-10857000D02*
X10402500Y-10857000D01*
D18*
X16436500Y-10214000D02*
X16648500Y-10426000D01*
X16648500Y-10214000D02*
X16436500Y-10426000D01*
X16617454Y-10394954D02*
X16617454Y-10245046D01*
X16467546Y-10245046D01*
X16467546Y-10394954D01*
X16617454Y-10394954D01*
D15*
X18910000Y-10230000D02*
X19000000Y-10320000D01*
X19000000Y-10230000D02*
X18910000Y-10320000D01*
X18955000Y-10320000D02*
X19000000Y-10275000D01*
X18955000Y-10230000D01*
X18910000Y-10275000D01*
X18955000Y-10320000D01*
X18910000Y-10670000D02*
X19000000Y-10760000D01*
X19000000Y-10670000D02*
X18910000Y-10760000D01*
X18955000Y-10760000D02*
X19000000Y-10715000D01*
X18955000Y-10670000D01*
X18910000Y-10715000D01*
X18955000Y-10760000D01*
D11*
X10133277Y-12681484D02*
X10133277Y-12481484D01*
X10133277Y-12481484D02*
X10180896Y-12481484D01*
X10180896Y-12481484D02*
X10209467Y-12491008D01*
X10209467Y-12491008D02*
X10228515Y-12510055D01*
X10228515Y-12510055D02*
X10238039Y-12529103D01*
X10238039Y-12529103D02*
X10247563Y-12567198D01*
X10247563Y-12567198D02*
X10247563Y-12595769D01*
X10247563Y-12595769D02*
X10238039Y-12633865D01*
X10238039Y-12633865D02*
X10228515Y-12652912D01*
X10228515Y-12652912D02*
X10209467Y-12671960D01*
X10209467Y-12671960D02*
X10180896Y-12681484D01*
X10180896Y-12681484D02*
X10133277Y-12681484D01*
X10333277Y-12681484D02*
X10333277Y-12548150D01*
X10333277Y-12586246D02*
X10342801Y-12567198D01*
X10342801Y-12567198D02*
X10352324Y-12557674D01*
X10352324Y-12557674D02*
X10371372Y-12548150D01*
X10371372Y-12548150D02*
X10390420Y-12548150D01*
X10457086Y-12681484D02*
X10457086Y-12548150D01*
X10457086Y-12481484D02*
X10447563Y-12491008D01*
X10447563Y-12491008D02*
X10457086Y-12500531D01*
X10457086Y-12500531D02*
X10466610Y-12491008D01*
X10466610Y-12491008D02*
X10457086Y-12481484D01*
X10457086Y-12481484D02*
X10457086Y-12500531D01*
X10580896Y-12681484D02*
X10561848Y-12671960D01*
X10561848Y-12671960D02*
X10552324Y-12652912D01*
X10552324Y-12652912D02*
X10552324Y-12481484D01*
X10685658Y-12681484D02*
X10666610Y-12671960D01*
X10666610Y-12671960D02*
X10657086Y-12652912D01*
X10657086Y-12652912D02*
X10657086Y-12481484D01*
X10914229Y-12681484D02*
X10914229Y-12481484D01*
X10914229Y-12481484D02*
X10980896Y-12624341D01*
X10980896Y-12624341D02*
X11047563Y-12481484D01*
X11047563Y-12481484D02*
X11047563Y-12681484D01*
X11228515Y-12681484D02*
X11228515Y-12576722D01*
X11228515Y-12576722D02*
X11218991Y-12557674D01*
X11218991Y-12557674D02*
X11199943Y-12548150D01*
X11199943Y-12548150D02*
X11161848Y-12548150D01*
X11161848Y-12548150D02*
X11142801Y-12557674D01*
X11228515Y-12671960D02*
X11209467Y-12681484D01*
X11209467Y-12681484D02*
X11161848Y-12681484D01*
X11161848Y-12681484D02*
X11142801Y-12671960D01*
X11142801Y-12671960D02*
X11133277Y-12652912D01*
X11133277Y-12652912D02*
X11133277Y-12633865D01*
X11133277Y-12633865D02*
X11142801Y-12614817D01*
X11142801Y-12614817D02*
X11161848Y-12605293D01*
X11161848Y-12605293D02*
X11209467Y-12605293D01*
X11209467Y-12605293D02*
X11228515Y-12595769D01*
X11323753Y-12548150D02*
X11323753Y-12748150D01*
X11323753Y-12557674D02*
X11342801Y-12548150D01*
X11342801Y-12548150D02*
X11380896Y-12548150D01*
X11380896Y-12548150D02*
X11399943Y-12557674D01*
X11399943Y-12557674D02*
X11409467Y-12567198D01*
X11409467Y-12567198D02*
X11418991Y-12586246D01*
X11418991Y-12586246D02*
X11418991Y-12643388D01*
X11418991Y-12643388D02*
X11409467Y-12662436D01*
X11409467Y-12662436D02*
X11399943Y-12671960D01*
X11399943Y-12671960D02*
X11380896Y-12681484D01*
X11380896Y-12681484D02*
X11342801Y-12681484D01*
X11342801Y-12681484D02*
X11323753Y-12671960D01*
X11504705Y-12662436D02*
X11514229Y-12671960D01*
X11514229Y-12671960D02*
X11504705Y-12681484D01*
X11504705Y-12681484D02*
X11495182Y-12671960D01*
X11495182Y-12671960D02*
X11504705Y-12662436D01*
X11504705Y-12662436D02*
X11504705Y-12681484D01*
X11504705Y-12557674D02*
X11514229Y-12567198D01*
X11514229Y-12567198D02*
X11504705Y-12576722D01*
X11504705Y-12576722D02*
X11495182Y-12567198D01*
X11495182Y-12567198D02*
X11504705Y-12557674D01*
X11504705Y-12557674D02*
X11504705Y-12576722D01*
D12*
X9852500Y-13000000D02*
X9872500Y-13020000D01*
X9872500Y-13000000D02*
X9852500Y-13020000D01*
D11*
X10171372Y-12901484D02*
X10190420Y-12901484D01*
X10190420Y-12901484D02*
X10209467Y-12911008D01*
X10209467Y-12911008D02*
X10218991Y-12920531D01*
X10218991Y-12920531D02*
X10228515Y-12939579D01*
X10228515Y-12939579D02*
X10238039Y-12977674D01*
X10238039Y-12977674D02*
X10238039Y-13025293D01*
X10238039Y-13025293D02*
X10228515Y-13063388D01*
X10228515Y-13063388D02*
X10218991Y-13082436D01*
X10218991Y-13082436D02*
X10209467Y-13091960D01*
X10209467Y-13091960D02*
X10190420Y-13101484D01*
X10190420Y-13101484D02*
X10171372Y-13101484D01*
X10171372Y-13101484D02*
X10152324Y-13091960D01*
X10152324Y-13091960D02*
X10142801Y-13082436D01*
X10142801Y-13082436D02*
X10133277Y-13063388D01*
X10133277Y-13063388D02*
X10123753Y-13025293D01*
X10123753Y-13025293D02*
X10123753Y-12977674D01*
X10123753Y-12977674D02*
X10133277Y-12939579D01*
X10133277Y-12939579D02*
X10142801Y-12920531D01*
X10142801Y-12920531D02*
X10152324Y-12911008D01*
X10152324Y-12911008D02*
X10171372Y-12901484D01*
X10323753Y-13082436D02*
X10333277Y-13091960D01*
X10333277Y-13091960D02*
X10323753Y-13101484D01*
X10323753Y-13101484D02*
X10314229Y-13091960D01*
X10314229Y-13091960D02*
X10323753Y-13082436D01*
X10323753Y-13082436D02*
X10323753Y-13101484D01*
X10409467Y-12920531D02*
X10418991Y-12911008D01*
X10418991Y-12911008D02*
X10438039Y-12901484D01*
X10438039Y-12901484D02*
X10485658Y-12901484D01*
X10485658Y-12901484D02*
X10504705Y-12911008D01*
X10504705Y-12911008D02*
X10514229Y-12920531D01*
X10514229Y-12920531D02*
X10523753Y-12939579D01*
X10523753Y-12939579D02*
X10523753Y-12958627D01*
X10523753Y-12958627D02*
X10514229Y-12987198D01*
X10514229Y-12987198D02*
X10399944Y-13101484D01*
X10399944Y-13101484D02*
X10523753Y-13101484D01*
X10647563Y-12901484D02*
X10666610Y-12901484D01*
X10666610Y-12901484D02*
X10685658Y-12911008D01*
X10685658Y-12911008D02*
X10695182Y-12920531D01*
X10695182Y-12920531D02*
X10704705Y-12939579D01*
X10704705Y-12939579D02*
X10714229Y-12977674D01*
X10714229Y-12977674D02*
X10714229Y-13025293D01*
X10714229Y-13025293D02*
X10704705Y-13063388D01*
X10704705Y-13063388D02*
X10695182Y-13082436D01*
X10695182Y-13082436D02*
X10685658Y-13091960D01*
X10685658Y-13091960D02*
X10666610Y-13101484D01*
X10666610Y-13101484D02*
X10647563Y-13101484D01*
X10647563Y-13101484D02*
X10628515Y-13091960D01*
X10628515Y-13091960D02*
X10618991Y-13082436D01*
X10618991Y-13082436D02*
X10609467Y-13063388D01*
X10609467Y-13063388D02*
X10599944Y-13025293D01*
X10599944Y-13025293D02*
X10599944Y-12977674D01*
X10599944Y-12977674D02*
X10609467Y-12939579D01*
X10609467Y-12939579D02*
X10618991Y-12920531D01*
X10618991Y-12920531D02*
X10628515Y-12911008D01*
X10628515Y-12911008D02*
X10647563Y-12901484D01*
X10838039Y-12901484D02*
X10857086Y-12901484D01*
X10857086Y-12901484D02*
X10876134Y-12911008D01*
X10876134Y-12911008D02*
X10885658Y-12920531D01*
X10885658Y-12920531D02*
X10895182Y-12939579D01*
X10895182Y-12939579D02*
X10904705Y-12977674D01*
X10904705Y-12977674D02*
X10904705Y-13025293D01*
X10904705Y-13025293D02*
X10895182Y-13063388D01*
X10895182Y-13063388D02*
X10885658Y-13082436D01*
X10885658Y-13082436D02*
X10876134Y-13091960D01*
X10876134Y-13091960D02*
X10857086Y-13101484D01*
X10857086Y-13101484D02*
X10838039Y-13101484D01*
X10838039Y-13101484D02*
X10818991Y-13091960D01*
X10818991Y-13091960D02*
X10809467Y-13082436D01*
X10809467Y-13082436D02*
X10799944Y-13063388D01*
X10799944Y-13063388D02*
X10790420Y-13025293D01*
X10790420Y-13025293D02*
X10790420Y-12977674D01*
X10790420Y-12977674D02*
X10799944Y-12939579D01*
X10799944Y-12939579D02*
X10809467Y-12920531D01*
X10809467Y-12920531D02*
X10818991Y-12911008D01*
X10818991Y-12911008D02*
X10838039Y-12901484D01*
X10990420Y-13101484D02*
X10990420Y-12968150D01*
X10990420Y-12987198D02*
X10999944Y-12977674D01*
X10999944Y-12977674D02*
X11018991Y-12968150D01*
X11018991Y-12968150D02*
X11047563Y-12968150D01*
X11047563Y-12968150D02*
X11066610Y-12977674D01*
X11066610Y-12977674D02*
X11076134Y-12996722D01*
X11076134Y-12996722D02*
X11076134Y-13101484D01*
X11076134Y-12996722D02*
X11085658Y-12977674D01*
X11085658Y-12977674D02*
X11104705Y-12968150D01*
X11104705Y-12968150D02*
X11133277Y-12968150D01*
X11133277Y-12968150D02*
X11152325Y-12977674D01*
X11152325Y-12977674D02*
X11161848Y-12996722D01*
X11161848Y-12996722D02*
X11161848Y-13101484D01*
X11257086Y-13101484D02*
X11257086Y-12968150D01*
X11257086Y-12987198D02*
X11266610Y-12977674D01*
X11266610Y-12977674D02*
X11285658Y-12968150D01*
X11285658Y-12968150D02*
X11314229Y-12968150D01*
X11314229Y-12968150D02*
X11333277Y-12977674D01*
X11333277Y-12977674D02*
X11342801Y-12996722D01*
X11342801Y-12996722D02*
X11342801Y-13101484D01*
X11342801Y-12996722D02*
X11352324Y-12977674D01*
X11352324Y-12977674D02*
X11371372Y-12968150D01*
X11371372Y-12968150D02*
X11399943Y-12968150D01*
X11399943Y-12968150D02*
X11418991Y-12977674D01*
X11418991Y-12977674D02*
X11428515Y-12996722D01*
X11428515Y-12996722D02*
X11428515Y-13101484D01*
X11818991Y-12891960D02*
X11647563Y-13149103D01*
X12076134Y-12901484D02*
X12095182Y-12901484D01*
X12095182Y-12901484D02*
X12114229Y-12911008D01*
X12114229Y-12911008D02*
X12123753Y-12920531D01*
X12123753Y-12920531D02*
X12133277Y-12939579D01*
X12133277Y-12939579D02*
X12142801Y-12977674D01*
X12142801Y-12977674D02*
X12142801Y-13025293D01*
X12142801Y-13025293D02*
X12133277Y-13063388D01*
X12133277Y-13063388D02*
X12123753Y-13082436D01*
X12123753Y-13082436D02*
X12114229Y-13091960D01*
X12114229Y-13091960D02*
X12095182Y-13101484D01*
X12095182Y-13101484D02*
X12076134Y-13101484D01*
X12076134Y-13101484D02*
X12057086Y-13091960D01*
X12057086Y-13091960D02*
X12047563Y-13082436D01*
X12047563Y-13082436D02*
X12038039Y-13063388D01*
X12038039Y-13063388D02*
X12028515Y-13025293D01*
X12028515Y-13025293D02*
X12028515Y-12977674D01*
X12028515Y-12977674D02*
X12038039Y-12939579D01*
X12038039Y-12939579D02*
X12047563Y-12920531D01*
X12047563Y-12920531D02*
X12057086Y-12911008D01*
X12057086Y-12911008D02*
X12076134Y-12901484D01*
X12228515Y-13082436D02*
X12238039Y-13091960D01*
X12238039Y-13091960D02*
X12228515Y-13101484D01*
X12228515Y-13101484D02*
X12218991Y-13091960D01*
X12218991Y-13091960D02*
X12228515Y-13082436D01*
X12228515Y-13082436D02*
X12228515Y-13101484D01*
X12361848Y-12901484D02*
X12380896Y-12901484D01*
X12380896Y-12901484D02*
X12399944Y-12911008D01*
X12399944Y-12911008D02*
X12409467Y-12920531D01*
X12409467Y-12920531D02*
X12418991Y-12939579D01*
X12418991Y-12939579D02*
X12428515Y-12977674D01*
X12428515Y-12977674D02*
X12428515Y-13025293D01*
X12428515Y-13025293D02*
X12418991Y-13063388D01*
X12418991Y-13063388D02*
X12409467Y-13082436D01*
X12409467Y-13082436D02*
X12399944Y-13091960D01*
X12399944Y-13091960D02*
X12380896Y-13101484D01*
X12380896Y-13101484D02*
X12361848Y-13101484D01*
X12361848Y-13101484D02*
X12342801Y-13091960D01*
X12342801Y-13091960D02*
X12333277Y-13082436D01*
X12333277Y-13082436D02*
X12323753Y-13063388D01*
X12323753Y-13063388D02*
X12314229Y-13025293D01*
X12314229Y-13025293D02*
X12314229Y-12977674D01*
X12314229Y-12977674D02*
X12323753Y-12939579D01*
X12323753Y-12939579D02*
X12333277Y-12920531D01*
X12333277Y-12920531D02*
X12342801Y-12911008D01*
X12342801Y-12911008D02*
X12361848Y-12901484D01*
X12552325Y-12901484D02*
X12571372Y-12901484D01*
X12571372Y-12901484D02*
X12590420Y-12911008D01*
X12590420Y-12911008D02*
X12599944Y-12920531D01*
X12599944Y-12920531D02*
X12609467Y-12939579D01*
X12609467Y-12939579D02*
X12618991Y-12977674D01*
X12618991Y-12977674D02*
X12618991Y-13025293D01*
X12618991Y-13025293D02*
X12609467Y-13063388D01*
X12609467Y-13063388D02*
X12599944Y-13082436D01*
X12599944Y-13082436D02*
X12590420Y-13091960D01*
X12590420Y-13091960D02*
X12571372Y-13101484D01*
X12571372Y-13101484D02*
X12552325Y-13101484D01*
X12552325Y-13101484D02*
X12533277Y-13091960D01*
X12533277Y-13091960D02*
X12523753Y-13082436D01*
X12523753Y-13082436D02*
X12514229Y-13063388D01*
X12514229Y-13063388D02*
X12504706Y-13025293D01*
X12504706Y-13025293D02*
X12504706Y-12977674D01*
X12504706Y-12977674D02*
X12514229Y-12939579D01*
X12514229Y-12939579D02*
X12523753Y-12920531D01*
X12523753Y-12920531D02*
X12533277Y-12911008D01*
X12533277Y-12911008D02*
X12552325Y-12901484D01*
X12685658Y-12901484D02*
X12818991Y-12901484D01*
X12818991Y-12901484D02*
X12733277Y-13101484D01*
X12904706Y-13101484D02*
X12942801Y-13101484D01*
X12942801Y-13101484D02*
X12961848Y-13091960D01*
X12961848Y-13091960D02*
X12971372Y-13082436D01*
X12971372Y-13082436D02*
X12990420Y-13053865D01*
X12990420Y-13053865D02*
X12999944Y-13015769D01*
X12999944Y-13015769D02*
X12999944Y-12939579D01*
X12999944Y-12939579D02*
X12990420Y-12920531D01*
X12990420Y-12920531D02*
X12980896Y-12911008D01*
X12980896Y-12911008D02*
X12961848Y-12901484D01*
X12961848Y-12901484D02*
X12923753Y-12901484D01*
X12923753Y-12901484D02*
X12904706Y-12911008D01*
X12904706Y-12911008D02*
X12895182Y-12920531D01*
X12895182Y-12920531D02*
X12885658Y-12939579D01*
X12885658Y-12939579D02*
X12885658Y-12987198D01*
X12885658Y-12987198D02*
X12895182Y-13006246D01*
X12895182Y-13006246D02*
X12904706Y-13015769D01*
X12904706Y-13015769D02*
X12923753Y-13025293D01*
X12923753Y-13025293D02*
X12961848Y-13025293D01*
X12961848Y-13025293D02*
X12980896Y-13015769D01*
X12980896Y-13015769D02*
X12990420Y-13006246D01*
X12990420Y-13006246D02*
X12999944Y-12987198D01*
X13076134Y-12901484D02*
X13076134Y-12939579D01*
X13152325Y-12901484D02*
X13152325Y-12939579D01*
X13447563Y-13177674D02*
X13438039Y-13168150D01*
X13438039Y-13168150D02*
X13418991Y-13139579D01*
X13418991Y-13139579D02*
X13409468Y-13120531D01*
X13409468Y-13120531D02*
X13399944Y-13091960D01*
X13399944Y-13091960D02*
X13390420Y-13044341D01*
X13390420Y-13044341D02*
X13390420Y-13006246D01*
X13390420Y-13006246D02*
X13399944Y-12958627D01*
X13399944Y-12958627D02*
X13409468Y-12930055D01*
X13409468Y-12930055D02*
X13418991Y-12911008D01*
X13418991Y-12911008D02*
X13438039Y-12882436D01*
X13438039Y-12882436D02*
X13447563Y-12872912D01*
X13628515Y-13101484D02*
X13514229Y-13101484D01*
X13571372Y-13101484D02*
X13571372Y-12901484D01*
X13571372Y-12901484D02*
X13552325Y-12930055D01*
X13552325Y-12930055D02*
X13533277Y-12949103D01*
X13533277Y-12949103D02*
X13514229Y-12958627D01*
X13704706Y-12920531D02*
X13714229Y-12911008D01*
X13714229Y-12911008D02*
X13733277Y-12901484D01*
X13733277Y-12901484D02*
X13780896Y-12901484D01*
X13780896Y-12901484D02*
X13799944Y-12911008D01*
X13799944Y-12911008D02*
X13809468Y-12920531D01*
X13809468Y-12920531D02*
X13818991Y-12939579D01*
X13818991Y-12939579D02*
X13818991Y-12958627D01*
X13818991Y-12958627D02*
X13809468Y-12987198D01*
X13809468Y-12987198D02*
X13695182Y-13101484D01*
X13695182Y-13101484D02*
X13818991Y-13101484D01*
X14057087Y-13101484D02*
X14057087Y-12901484D01*
X14142801Y-13101484D02*
X14142801Y-12996722D01*
X14142801Y-12996722D02*
X14133277Y-12977674D01*
X14133277Y-12977674D02*
X14114230Y-12968150D01*
X14114230Y-12968150D02*
X14085658Y-12968150D01*
X14085658Y-12968150D02*
X14066610Y-12977674D01*
X14066610Y-12977674D02*
X14057087Y-12987198D01*
X14266610Y-13101484D02*
X14247563Y-13091960D01*
X14247563Y-13091960D02*
X14238039Y-13082436D01*
X14238039Y-13082436D02*
X14228515Y-13063388D01*
X14228515Y-13063388D02*
X14228515Y-13006246D01*
X14228515Y-13006246D02*
X14238039Y-12987198D01*
X14238039Y-12987198D02*
X14247563Y-12977674D01*
X14247563Y-12977674D02*
X14266610Y-12968150D01*
X14266610Y-12968150D02*
X14295182Y-12968150D01*
X14295182Y-12968150D02*
X14314230Y-12977674D01*
X14314230Y-12977674D02*
X14323753Y-12987198D01*
X14323753Y-12987198D02*
X14333277Y-13006246D01*
X14333277Y-13006246D02*
X14333277Y-13063388D01*
X14333277Y-13063388D02*
X14323753Y-13082436D01*
X14323753Y-13082436D02*
X14314230Y-13091960D01*
X14314230Y-13091960D02*
X14295182Y-13101484D01*
X14295182Y-13101484D02*
X14266610Y-13101484D01*
X14447563Y-13101484D02*
X14428515Y-13091960D01*
X14428515Y-13091960D02*
X14418991Y-13072912D01*
X14418991Y-13072912D02*
X14418991Y-12901484D01*
X14599944Y-13091960D02*
X14580896Y-13101484D01*
X14580896Y-13101484D02*
X14542801Y-13101484D01*
X14542801Y-13101484D02*
X14523753Y-13091960D01*
X14523753Y-13091960D02*
X14514230Y-13072912D01*
X14514230Y-13072912D02*
X14514230Y-12996722D01*
X14514230Y-12996722D02*
X14523753Y-12977674D01*
X14523753Y-12977674D02*
X14542801Y-12968150D01*
X14542801Y-12968150D02*
X14580896Y-12968150D01*
X14580896Y-12968150D02*
X14599944Y-12977674D01*
X14599944Y-12977674D02*
X14609468Y-12996722D01*
X14609468Y-12996722D02*
X14609468Y-13015769D01*
X14609468Y-13015769D02*
X14514230Y-13034817D01*
X14685658Y-13091960D02*
X14704706Y-13101484D01*
X14704706Y-13101484D02*
X14742801Y-13101484D01*
X14742801Y-13101484D02*
X14761849Y-13091960D01*
X14761849Y-13091960D02*
X14771372Y-13072912D01*
X14771372Y-13072912D02*
X14771372Y-13063388D01*
X14771372Y-13063388D02*
X14761849Y-13044341D01*
X14761849Y-13044341D02*
X14742801Y-13034817D01*
X14742801Y-13034817D02*
X14714230Y-13034817D01*
X14714230Y-13034817D02*
X14695182Y-13025293D01*
X14695182Y-13025293D02*
X14685658Y-13006246D01*
X14685658Y-13006246D02*
X14685658Y-12996722D01*
X14685658Y-12996722D02*
X14695182Y-12977674D01*
X14695182Y-12977674D02*
X14714230Y-12968150D01*
X14714230Y-12968150D02*
X14742801Y-12968150D01*
X14742801Y-12968150D02*
X14761849Y-12977674D01*
X14838039Y-13177674D02*
X14847563Y-13168150D01*
X14847563Y-13168150D02*
X14866611Y-13139579D01*
X14866611Y-13139579D02*
X14876134Y-13120531D01*
X14876134Y-13120531D02*
X14885658Y-13091960D01*
X14885658Y-13091960D02*
X14895182Y-13044341D01*
X14895182Y-13044341D02*
X14895182Y-13006246D01*
X14895182Y-13006246D02*
X14885658Y-12958627D01*
X14885658Y-12958627D02*
X14876134Y-12930055D01*
X14876134Y-12930055D02*
X14866611Y-12911008D01*
X14866611Y-12911008D02*
X14847563Y-12882436D01*
X14847563Y-12882436D02*
X14838039Y-12872912D01*
D13*
X9872500Y-13274000D02*
G75*
G03*
X9872500Y-13274000I-20000J0D01*
G01*
D11*
X10171372Y-13165484D02*
X10190420Y-13165484D01*
X10190420Y-13165484D02*
X10209467Y-13175008D01*
X10209467Y-13175008D02*
X10218991Y-13184531D01*
X10218991Y-13184531D02*
X10228515Y-13203579D01*
X10228515Y-13203579D02*
X10238039Y-13241674D01*
X10238039Y-13241674D02*
X10238039Y-13289293D01*
X10238039Y-13289293D02*
X10228515Y-13327388D01*
X10228515Y-13327388D02*
X10218991Y-13346436D01*
X10218991Y-13346436D02*
X10209467Y-13355960D01*
X10209467Y-13355960D02*
X10190420Y-13365484D01*
X10190420Y-13365484D02*
X10171372Y-13365484D01*
X10171372Y-13365484D02*
X10152324Y-13355960D01*
X10152324Y-13355960D02*
X10142801Y-13346436D01*
X10142801Y-13346436D02*
X10133277Y-13327388D01*
X10133277Y-13327388D02*
X10123753Y-13289293D01*
X10123753Y-13289293D02*
X10123753Y-13241674D01*
X10123753Y-13241674D02*
X10133277Y-13203579D01*
X10133277Y-13203579D02*
X10142801Y-13184531D01*
X10142801Y-13184531D02*
X10152324Y-13175008D01*
X10152324Y-13175008D02*
X10171372Y-13165484D01*
X10323753Y-13346436D02*
X10333277Y-13355960D01*
X10333277Y-13355960D02*
X10323753Y-13365484D01*
X10323753Y-13365484D02*
X10314229Y-13355960D01*
X10314229Y-13355960D02*
X10323753Y-13346436D01*
X10323753Y-13346436D02*
X10323753Y-13365484D01*
X10504705Y-13232150D02*
X10504705Y-13365484D01*
X10457086Y-13155960D02*
X10409467Y-13298817D01*
X10409467Y-13298817D02*
X10533277Y-13298817D01*
X10647563Y-13165484D02*
X10666610Y-13165484D01*
X10666610Y-13165484D02*
X10685658Y-13175008D01*
X10685658Y-13175008D02*
X10695182Y-13184531D01*
X10695182Y-13184531D02*
X10704705Y-13203579D01*
X10704705Y-13203579D02*
X10714229Y-13241674D01*
X10714229Y-13241674D02*
X10714229Y-13289293D01*
X10714229Y-13289293D02*
X10704705Y-13327388D01*
X10704705Y-13327388D02*
X10695182Y-13346436D01*
X10695182Y-13346436D02*
X10685658Y-13355960D01*
X10685658Y-13355960D02*
X10666610Y-13365484D01*
X10666610Y-13365484D02*
X10647563Y-13365484D01*
X10647563Y-13365484D02*
X10628515Y-13355960D01*
X10628515Y-13355960D02*
X10618991Y-13346436D01*
X10618991Y-13346436D02*
X10609467Y-13327388D01*
X10609467Y-13327388D02*
X10599944Y-13289293D01*
X10599944Y-13289293D02*
X10599944Y-13241674D01*
X10599944Y-13241674D02*
X10609467Y-13203579D01*
X10609467Y-13203579D02*
X10618991Y-13184531D01*
X10618991Y-13184531D02*
X10628515Y-13175008D01*
X10628515Y-13175008D02*
X10647563Y-13165484D01*
X10838039Y-13165484D02*
X10857086Y-13165484D01*
X10857086Y-13165484D02*
X10876134Y-13175008D01*
X10876134Y-13175008D02*
X10885658Y-13184531D01*
X10885658Y-13184531D02*
X10895182Y-13203579D01*
X10895182Y-13203579D02*
X10904705Y-13241674D01*
X10904705Y-13241674D02*
X10904705Y-13289293D01*
X10904705Y-13289293D02*
X10895182Y-13327388D01*
X10895182Y-13327388D02*
X10885658Y-13346436D01*
X10885658Y-13346436D02*
X10876134Y-13355960D01*
X10876134Y-13355960D02*
X10857086Y-13365484D01*
X10857086Y-13365484D02*
X10838039Y-13365484D01*
X10838039Y-13365484D02*
X10818991Y-13355960D01*
X10818991Y-13355960D02*
X10809467Y-13346436D01*
X10809467Y-13346436D02*
X10799944Y-13327388D01*
X10799944Y-13327388D02*
X10790420Y-13289293D01*
X10790420Y-13289293D02*
X10790420Y-13241674D01*
X10790420Y-13241674D02*
X10799944Y-13203579D01*
X10799944Y-13203579D02*
X10809467Y-13184531D01*
X10809467Y-13184531D02*
X10818991Y-13175008D01*
X10818991Y-13175008D02*
X10838039Y-13165484D01*
X10990420Y-13365484D02*
X10990420Y-13232150D01*
X10990420Y-13251198D02*
X10999944Y-13241674D01*
X10999944Y-13241674D02*
X11018991Y-13232150D01*
X11018991Y-13232150D02*
X11047563Y-13232150D01*
X11047563Y-13232150D02*
X11066610Y-13241674D01*
X11066610Y-13241674D02*
X11076134Y-13260722D01*
X11076134Y-13260722D02*
X11076134Y-13365484D01*
X11076134Y-13260722D02*
X11085658Y-13241674D01*
X11085658Y-13241674D02*
X11104705Y-13232150D01*
X11104705Y-13232150D02*
X11133277Y-13232150D01*
X11133277Y-13232150D02*
X11152325Y-13241674D01*
X11152325Y-13241674D02*
X11161848Y-13260722D01*
X11161848Y-13260722D02*
X11161848Y-13365484D01*
X11257086Y-13365484D02*
X11257086Y-13232150D01*
X11257086Y-13251198D02*
X11266610Y-13241674D01*
X11266610Y-13241674D02*
X11285658Y-13232150D01*
X11285658Y-13232150D02*
X11314229Y-13232150D01*
X11314229Y-13232150D02*
X11333277Y-13241674D01*
X11333277Y-13241674D02*
X11342801Y-13260722D01*
X11342801Y-13260722D02*
X11342801Y-13365484D01*
X11342801Y-13260722D02*
X11352324Y-13241674D01*
X11352324Y-13241674D02*
X11371372Y-13232150D01*
X11371372Y-13232150D02*
X11399943Y-13232150D01*
X11399943Y-13232150D02*
X11418991Y-13241674D01*
X11418991Y-13241674D02*
X11428515Y-13260722D01*
X11428515Y-13260722D02*
X11428515Y-13365484D01*
X11818991Y-13155960D02*
X11647563Y-13413103D01*
X12076134Y-13165484D02*
X12095182Y-13165484D01*
X12095182Y-13165484D02*
X12114229Y-13175008D01*
X12114229Y-13175008D02*
X12123753Y-13184531D01*
X12123753Y-13184531D02*
X12133277Y-13203579D01*
X12133277Y-13203579D02*
X12142801Y-13241674D01*
X12142801Y-13241674D02*
X12142801Y-13289293D01*
X12142801Y-13289293D02*
X12133277Y-13327388D01*
X12133277Y-13327388D02*
X12123753Y-13346436D01*
X12123753Y-13346436D02*
X12114229Y-13355960D01*
X12114229Y-13355960D02*
X12095182Y-13365484D01*
X12095182Y-13365484D02*
X12076134Y-13365484D01*
X12076134Y-13365484D02*
X12057086Y-13355960D01*
X12057086Y-13355960D02*
X12047563Y-13346436D01*
X12047563Y-13346436D02*
X12038039Y-13327388D01*
X12038039Y-13327388D02*
X12028515Y-13289293D01*
X12028515Y-13289293D02*
X12028515Y-13241674D01*
X12028515Y-13241674D02*
X12038039Y-13203579D01*
X12038039Y-13203579D02*
X12047563Y-13184531D01*
X12047563Y-13184531D02*
X12057086Y-13175008D01*
X12057086Y-13175008D02*
X12076134Y-13165484D01*
X12228515Y-13346436D02*
X12238039Y-13355960D01*
X12238039Y-13355960D02*
X12228515Y-13365484D01*
X12228515Y-13365484D02*
X12218991Y-13355960D01*
X12218991Y-13355960D02*
X12228515Y-13346436D01*
X12228515Y-13346436D02*
X12228515Y-13365484D01*
X12361848Y-13165484D02*
X12380896Y-13165484D01*
X12380896Y-13165484D02*
X12399944Y-13175008D01*
X12399944Y-13175008D02*
X12409467Y-13184531D01*
X12409467Y-13184531D02*
X12418991Y-13203579D01*
X12418991Y-13203579D02*
X12428515Y-13241674D01*
X12428515Y-13241674D02*
X12428515Y-13289293D01*
X12428515Y-13289293D02*
X12418991Y-13327388D01*
X12418991Y-13327388D02*
X12409467Y-13346436D01*
X12409467Y-13346436D02*
X12399944Y-13355960D01*
X12399944Y-13355960D02*
X12380896Y-13365484D01*
X12380896Y-13365484D02*
X12361848Y-13365484D01*
X12361848Y-13365484D02*
X12342801Y-13355960D01*
X12342801Y-13355960D02*
X12333277Y-13346436D01*
X12333277Y-13346436D02*
X12323753Y-13327388D01*
X12323753Y-13327388D02*
X12314229Y-13289293D01*
X12314229Y-13289293D02*
X12314229Y-13241674D01*
X12314229Y-13241674D02*
X12323753Y-13203579D01*
X12323753Y-13203579D02*
X12333277Y-13184531D01*
X12333277Y-13184531D02*
X12342801Y-13175008D01*
X12342801Y-13175008D02*
X12361848Y-13165484D01*
X12618991Y-13365484D02*
X12504706Y-13365484D01*
X12561848Y-13365484D02*
X12561848Y-13165484D01*
X12561848Y-13165484D02*
X12542801Y-13194055D01*
X12542801Y-13194055D02*
X12523753Y-13213103D01*
X12523753Y-13213103D02*
X12504706Y-13222627D01*
X12799944Y-13165484D02*
X12704706Y-13165484D01*
X12704706Y-13165484D02*
X12695182Y-13260722D01*
X12695182Y-13260722D02*
X12704706Y-13251198D01*
X12704706Y-13251198D02*
X12723753Y-13241674D01*
X12723753Y-13241674D02*
X12771372Y-13241674D01*
X12771372Y-13241674D02*
X12790420Y-13251198D01*
X12790420Y-13251198D02*
X12799944Y-13260722D01*
X12799944Y-13260722D02*
X12809467Y-13279769D01*
X12809467Y-13279769D02*
X12809467Y-13327388D01*
X12809467Y-13327388D02*
X12799944Y-13346436D01*
X12799944Y-13346436D02*
X12790420Y-13355960D01*
X12790420Y-13355960D02*
X12771372Y-13365484D01*
X12771372Y-13365484D02*
X12723753Y-13365484D01*
X12723753Y-13365484D02*
X12704706Y-13355960D01*
X12704706Y-13355960D02*
X12695182Y-13346436D01*
X12876134Y-13165484D02*
X13009467Y-13165484D01*
X13009467Y-13165484D02*
X12923753Y-13365484D01*
X13076134Y-13165484D02*
X13076134Y-13203579D01*
X13152325Y-13165484D02*
X13152325Y-13203579D01*
X13447563Y-13441674D02*
X13438039Y-13432150D01*
X13438039Y-13432150D02*
X13418991Y-13403579D01*
X13418991Y-13403579D02*
X13409468Y-13384531D01*
X13409468Y-13384531D02*
X13399944Y-13355960D01*
X13399944Y-13355960D02*
X13390420Y-13308341D01*
X13390420Y-13308341D02*
X13390420Y-13270246D01*
X13390420Y-13270246D02*
X13399944Y-13222627D01*
X13399944Y-13222627D02*
X13409468Y-13194055D01*
X13409468Y-13194055D02*
X13418991Y-13175008D01*
X13418991Y-13175008D02*
X13438039Y-13146436D01*
X13438039Y-13146436D02*
X13447563Y-13136912D01*
X13504706Y-13165484D02*
X13638039Y-13165484D01*
X13638039Y-13165484D02*
X13552325Y-13365484D01*
X13695182Y-13165484D02*
X13828515Y-13165484D01*
X13828515Y-13165484D02*
X13742801Y-13365484D01*
X14057087Y-13365484D02*
X14057087Y-13165484D01*
X14142801Y-13365484D02*
X14142801Y-13260722D01*
X14142801Y-13260722D02*
X14133277Y-13241674D01*
X14133277Y-13241674D02*
X14114230Y-13232150D01*
X14114230Y-13232150D02*
X14085658Y-13232150D01*
X14085658Y-13232150D02*
X14066610Y-13241674D01*
X14066610Y-13241674D02*
X14057087Y-13251198D01*
X14266610Y-13365484D02*
X14247563Y-13355960D01*
X14247563Y-13355960D02*
X14238039Y-13346436D01*
X14238039Y-13346436D02*
X14228515Y-13327388D01*
X14228515Y-13327388D02*
X14228515Y-13270246D01*
X14228515Y-13270246D02*
X14238039Y-13251198D01*
X14238039Y-13251198D02*
X14247563Y-13241674D01*
X14247563Y-13241674D02*
X14266610Y-13232150D01*
X14266610Y-13232150D02*
X14295182Y-13232150D01*
X14295182Y-13232150D02*
X14314230Y-13241674D01*
X14314230Y-13241674D02*
X14323753Y-13251198D01*
X14323753Y-13251198D02*
X14333277Y-13270246D01*
X14333277Y-13270246D02*
X14333277Y-13327388D01*
X14333277Y-13327388D02*
X14323753Y-13346436D01*
X14323753Y-13346436D02*
X14314230Y-13355960D01*
X14314230Y-13355960D02*
X14295182Y-13365484D01*
X14295182Y-13365484D02*
X14266610Y-13365484D01*
X14447563Y-13365484D02*
X14428515Y-13355960D01*
X14428515Y-13355960D02*
X14418991Y-13336912D01*
X14418991Y-13336912D02*
X14418991Y-13165484D01*
X14599944Y-13355960D02*
X14580896Y-13365484D01*
X14580896Y-13365484D02*
X14542801Y-13365484D01*
X14542801Y-13365484D02*
X14523753Y-13355960D01*
X14523753Y-13355960D02*
X14514230Y-13336912D01*
X14514230Y-13336912D02*
X14514230Y-13260722D01*
X14514230Y-13260722D02*
X14523753Y-13241674D01*
X14523753Y-13241674D02*
X14542801Y-13232150D01*
X14542801Y-13232150D02*
X14580896Y-13232150D01*
X14580896Y-13232150D02*
X14599944Y-13241674D01*
X14599944Y-13241674D02*
X14609468Y-13260722D01*
X14609468Y-13260722D02*
X14609468Y-13279769D01*
X14609468Y-13279769D02*
X14514230Y-13298817D01*
X14685658Y-13355960D02*
X14704706Y-13365484D01*
X14704706Y-13365484D02*
X14742801Y-13365484D01*
X14742801Y-13365484D02*
X14761849Y-13355960D01*
X14761849Y-13355960D02*
X14771372Y-13336912D01*
X14771372Y-13336912D02*
X14771372Y-13327388D01*
X14771372Y-13327388D02*
X14761849Y-13308341D01*
X14761849Y-13308341D02*
X14742801Y-13298817D01*
X14742801Y-13298817D02*
X14714230Y-13298817D01*
X14714230Y-13298817D02*
X14695182Y-13289293D01*
X14695182Y-13289293D02*
X14685658Y-13270246D01*
X14685658Y-13270246D02*
X14685658Y-13260722D01*
X14685658Y-13260722D02*
X14695182Y-13241674D01*
X14695182Y-13241674D02*
X14714230Y-13232150D01*
X14714230Y-13232150D02*
X14742801Y-13232150D01*
X14742801Y-13232150D02*
X14761849Y-13241674D01*
X14838039Y-13441674D02*
X14847563Y-13432150D01*
X14847563Y-13432150D02*
X14866611Y-13403579D01*
X14866611Y-13403579D02*
X14876134Y-13384531D01*
X14876134Y-13384531D02*
X14885658Y-13355960D01*
X14885658Y-13355960D02*
X14895182Y-13308341D01*
X14895182Y-13308341D02*
X14895182Y-13270246D01*
X14895182Y-13270246D02*
X14885658Y-13222627D01*
X14885658Y-13222627D02*
X14876134Y-13194055D01*
X14876134Y-13194055D02*
X14866611Y-13175008D01*
X14866611Y-13175008D02*
X14847563Y-13146436D01*
X14847563Y-13146436D02*
X14838039Y-13136912D01*
D14*
X9832500Y-13498000D02*
X9832500Y-13578000D01*
X9792500Y-13538000D02*
X9872500Y-13538000D01*
D11*
X10171372Y-13429484D02*
X10190420Y-13429484D01*
X10190420Y-13429484D02*
X10209467Y-13439008D01*
X10209467Y-13439008D02*
X10218991Y-13448531D01*
X10218991Y-13448531D02*
X10228515Y-13467579D01*
X10228515Y-13467579D02*
X10238039Y-13505674D01*
X10238039Y-13505674D02*
X10238039Y-13553293D01*
X10238039Y-13553293D02*
X10228515Y-13591388D01*
X10228515Y-13591388D02*
X10218991Y-13610436D01*
X10218991Y-13610436D02*
X10209467Y-13619960D01*
X10209467Y-13619960D02*
X10190420Y-13629484D01*
X10190420Y-13629484D02*
X10171372Y-13629484D01*
X10171372Y-13629484D02*
X10152324Y-13619960D01*
X10152324Y-13619960D02*
X10142801Y-13610436D01*
X10142801Y-13610436D02*
X10133277Y-13591388D01*
X10133277Y-13591388D02*
X10123753Y-13553293D01*
X10123753Y-13553293D02*
X10123753Y-13505674D01*
X10123753Y-13505674D02*
X10133277Y-13467579D01*
X10133277Y-13467579D02*
X10142801Y-13448531D01*
X10142801Y-13448531D02*
X10152324Y-13439008D01*
X10152324Y-13439008D02*
X10171372Y-13429484D01*
X10323753Y-13610436D02*
X10333277Y-13619960D01*
X10333277Y-13619960D02*
X10323753Y-13629484D01*
X10323753Y-13629484D02*
X10314229Y-13619960D01*
X10314229Y-13619960D02*
X10323753Y-13610436D01*
X10323753Y-13610436D02*
X10323753Y-13629484D01*
X10447563Y-13515198D02*
X10428515Y-13505674D01*
X10428515Y-13505674D02*
X10418991Y-13496150D01*
X10418991Y-13496150D02*
X10409467Y-13477103D01*
X10409467Y-13477103D02*
X10409467Y-13467579D01*
X10409467Y-13467579D02*
X10418991Y-13448531D01*
X10418991Y-13448531D02*
X10428515Y-13439008D01*
X10428515Y-13439008D02*
X10447563Y-13429484D01*
X10447563Y-13429484D02*
X10485658Y-13429484D01*
X10485658Y-13429484D02*
X10504705Y-13439008D01*
X10504705Y-13439008D02*
X10514229Y-13448531D01*
X10514229Y-13448531D02*
X10523753Y-13467579D01*
X10523753Y-13467579D02*
X10523753Y-13477103D01*
X10523753Y-13477103D02*
X10514229Y-13496150D01*
X10514229Y-13496150D02*
X10504705Y-13505674D01*
X10504705Y-13505674D02*
X10485658Y-13515198D01*
X10485658Y-13515198D02*
X10447563Y-13515198D01*
X10447563Y-13515198D02*
X10428515Y-13524722D01*
X10428515Y-13524722D02*
X10418991Y-13534246D01*
X10418991Y-13534246D02*
X10409467Y-13553293D01*
X10409467Y-13553293D02*
X10409467Y-13591388D01*
X10409467Y-13591388D02*
X10418991Y-13610436D01*
X10418991Y-13610436D02*
X10428515Y-13619960D01*
X10428515Y-13619960D02*
X10447563Y-13629484D01*
X10447563Y-13629484D02*
X10485658Y-13629484D01*
X10485658Y-13629484D02*
X10504705Y-13619960D01*
X10504705Y-13619960D02*
X10514229Y-13610436D01*
X10514229Y-13610436D02*
X10523753Y-13591388D01*
X10523753Y-13591388D02*
X10523753Y-13553293D01*
X10523753Y-13553293D02*
X10514229Y-13534246D01*
X10514229Y-13534246D02*
X10504705Y-13524722D01*
X10504705Y-13524722D02*
X10485658Y-13515198D01*
X10647563Y-13429484D02*
X10666610Y-13429484D01*
X10666610Y-13429484D02*
X10685658Y-13439008D01*
X10685658Y-13439008D02*
X10695182Y-13448531D01*
X10695182Y-13448531D02*
X10704705Y-13467579D01*
X10704705Y-13467579D02*
X10714229Y-13505674D01*
X10714229Y-13505674D02*
X10714229Y-13553293D01*
X10714229Y-13553293D02*
X10704705Y-13591388D01*
X10704705Y-13591388D02*
X10695182Y-13610436D01*
X10695182Y-13610436D02*
X10685658Y-13619960D01*
X10685658Y-13619960D02*
X10666610Y-13629484D01*
X10666610Y-13629484D02*
X10647563Y-13629484D01*
X10647563Y-13629484D02*
X10628515Y-13619960D01*
X10628515Y-13619960D02*
X10618991Y-13610436D01*
X10618991Y-13610436D02*
X10609467Y-13591388D01*
X10609467Y-13591388D02*
X10599944Y-13553293D01*
X10599944Y-13553293D02*
X10599944Y-13505674D01*
X10599944Y-13505674D02*
X10609467Y-13467579D01*
X10609467Y-13467579D02*
X10618991Y-13448531D01*
X10618991Y-13448531D02*
X10628515Y-13439008D01*
X10628515Y-13439008D02*
X10647563Y-13429484D01*
X10838039Y-13429484D02*
X10857086Y-13429484D01*
X10857086Y-13429484D02*
X10876134Y-13439008D01*
X10876134Y-13439008D02*
X10885658Y-13448531D01*
X10885658Y-13448531D02*
X10895182Y-13467579D01*
X10895182Y-13467579D02*
X10904705Y-13505674D01*
X10904705Y-13505674D02*
X10904705Y-13553293D01*
X10904705Y-13553293D02*
X10895182Y-13591388D01*
X10895182Y-13591388D02*
X10885658Y-13610436D01*
X10885658Y-13610436D02*
X10876134Y-13619960D01*
X10876134Y-13619960D02*
X10857086Y-13629484D01*
X10857086Y-13629484D02*
X10838039Y-13629484D01*
X10838039Y-13629484D02*
X10818991Y-13619960D01*
X10818991Y-13619960D02*
X10809467Y-13610436D01*
X10809467Y-13610436D02*
X10799944Y-13591388D01*
X10799944Y-13591388D02*
X10790420Y-13553293D01*
X10790420Y-13553293D02*
X10790420Y-13505674D01*
X10790420Y-13505674D02*
X10799944Y-13467579D01*
X10799944Y-13467579D02*
X10809467Y-13448531D01*
X10809467Y-13448531D02*
X10818991Y-13439008D01*
X10818991Y-13439008D02*
X10838039Y-13429484D01*
X10990420Y-13629484D02*
X10990420Y-13496150D01*
X10990420Y-13515198D02*
X10999944Y-13505674D01*
X10999944Y-13505674D02*
X11018991Y-13496150D01*
X11018991Y-13496150D02*
X11047563Y-13496150D01*
X11047563Y-13496150D02*
X11066610Y-13505674D01*
X11066610Y-13505674D02*
X11076134Y-13524722D01*
X11076134Y-13524722D02*
X11076134Y-13629484D01*
X11076134Y-13524722D02*
X11085658Y-13505674D01*
X11085658Y-13505674D02*
X11104705Y-13496150D01*
X11104705Y-13496150D02*
X11133277Y-13496150D01*
X11133277Y-13496150D02*
X11152325Y-13505674D01*
X11152325Y-13505674D02*
X11161848Y-13524722D01*
X11161848Y-13524722D02*
X11161848Y-13629484D01*
X11257086Y-13629484D02*
X11257086Y-13496150D01*
X11257086Y-13515198D02*
X11266610Y-13505674D01*
X11266610Y-13505674D02*
X11285658Y-13496150D01*
X11285658Y-13496150D02*
X11314229Y-13496150D01*
X11314229Y-13496150D02*
X11333277Y-13505674D01*
X11333277Y-13505674D02*
X11342801Y-13524722D01*
X11342801Y-13524722D02*
X11342801Y-13629484D01*
X11342801Y-13524722D02*
X11352324Y-13505674D01*
X11352324Y-13505674D02*
X11371372Y-13496150D01*
X11371372Y-13496150D02*
X11399943Y-13496150D01*
X11399943Y-13496150D02*
X11418991Y-13505674D01*
X11418991Y-13505674D02*
X11428515Y-13524722D01*
X11428515Y-13524722D02*
X11428515Y-13629484D01*
X11818991Y-13419960D02*
X11647563Y-13677103D01*
X12076134Y-13429484D02*
X12095182Y-13429484D01*
X12095182Y-13429484D02*
X12114229Y-13439008D01*
X12114229Y-13439008D02*
X12123753Y-13448531D01*
X12123753Y-13448531D02*
X12133277Y-13467579D01*
X12133277Y-13467579D02*
X12142801Y-13505674D01*
X12142801Y-13505674D02*
X12142801Y-13553293D01*
X12142801Y-13553293D02*
X12133277Y-13591388D01*
X12133277Y-13591388D02*
X12123753Y-13610436D01*
X12123753Y-13610436D02*
X12114229Y-13619960D01*
X12114229Y-13619960D02*
X12095182Y-13629484D01*
X12095182Y-13629484D02*
X12076134Y-13629484D01*
X12076134Y-13629484D02*
X12057086Y-13619960D01*
X12057086Y-13619960D02*
X12047563Y-13610436D01*
X12047563Y-13610436D02*
X12038039Y-13591388D01*
X12038039Y-13591388D02*
X12028515Y-13553293D01*
X12028515Y-13553293D02*
X12028515Y-13505674D01*
X12028515Y-13505674D02*
X12038039Y-13467579D01*
X12038039Y-13467579D02*
X12047563Y-13448531D01*
X12047563Y-13448531D02*
X12057086Y-13439008D01*
X12057086Y-13439008D02*
X12076134Y-13429484D01*
X12228515Y-13610436D02*
X12238039Y-13619960D01*
X12238039Y-13619960D02*
X12228515Y-13629484D01*
X12228515Y-13629484D02*
X12218991Y-13619960D01*
X12218991Y-13619960D02*
X12228515Y-13610436D01*
X12228515Y-13610436D02*
X12228515Y-13629484D01*
X12361848Y-13429484D02*
X12380896Y-13429484D01*
X12380896Y-13429484D02*
X12399944Y-13439008D01*
X12399944Y-13439008D02*
X12409467Y-13448531D01*
X12409467Y-13448531D02*
X12418991Y-13467579D01*
X12418991Y-13467579D02*
X12428515Y-13505674D01*
X12428515Y-13505674D02*
X12428515Y-13553293D01*
X12428515Y-13553293D02*
X12418991Y-13591388D01*
X12418991Y-13591388D02*
X12409467Y-13610436D01*
X12409467Y-13610436D02*
X12399944Y-13619960D01*
X12399944Y-13619960D02*
X12380896Y-13629484D01*
X12380896Y-13629484D02*
X12361848Y-13629484D01*
X12361848Y-13629484D02*
X12342801Y-13619960D01*
X12342801Y-13619960D02*
X12333277Y-13610436D01*
X12333277Y-13610436D02*
X12323753Y-13591388D01*
X12323753Y-13591388D02*
X12314229Y-13553293D01*
X12314229Y-13553293D02*
X12314229Y-13505674D01*
X12314229Y-13505674D02*
X12323753Y-13467579D01*
X12323753Y-13467579D02*
X12333277Y-13448531D01*
X12333277Y-13448531D02*
X12342801Y-13439008D01*
X12342801Y-13439008D02*
X12361848Y-13429484D01*
X12495182Y-13429484D02*
X12618991Y-13429484D01*
X12618991Y-13429484D02*
X12552325Y-13505674D01*
X12552325Y-13505674D02*
X12580896Y-13505674D01*
X12580896Y-13505674D02*
X12599944Y-13515198D01*
X12599944Y-13515198D02*
X12609467Y-13524722D01*
X12609467Y-13524722D02*
X12618991Y-13543769D01*
X12618991Y-13543769D02*
X12618991Y-13591388D01*
X12618991Y-13591388D02*
X12609467Y-13610436D01*
X12609467Y-13610436D02*
X12599944Y-13619960D01*
X12599944Y-13619960D02*
X12580896Y-13629484D01*
X12580896Y-13629484D02*
X12523753Y-13629484D01*
X12523753Y-13629484D02*
X12504706Y-13619960D01*
X12504706Y-13619960D02*
X12495182Y-13610436D01*
X12809467Y-13629484D02*
X12695182Y-13629484D01*
X12752325Y-13629484D02*
X12752325Y-13429484D01*
X12752325Y-13429484D02*
X12733277Y-13458055D01*
X12733277Y-13458055D02*
X12714229Y-13477103D01*
X12714229Y-13477103D02*
X12695182Y-13486627D01*
X12990420Y-13429484D02*
X12895182Y-13429484D01*
X12895182Y-13429484D02*
X12885658Y-13524722D01*
X12885658Y-13524722D02*
X12895182Y-13515198D01*
X12895182Y-13515198D02*
X12914229Y-13505674D01*
X12914229Y-13505674D02*
X12961848Y-13505674D01*
X12961848Y-13505674D02*
X12980896Y-13515198D01*
X12980896Y-13515198D02*
X12990420Y-13524722D01*
X12990420Y-13524722D02*
X12999944Y-13543769D01*
X12999944Y-13543769D02*
X12999944Y-13591388D01*
X12999944Y-13591388D02*
X12990420Y-13610436D01*
X12990420Y-13610436D02*
X12980896Y-13619960D01*
X12980896Y-13619960D02*
X12961848Y-13629484D01*
X12961848Y-13629484D02*
X12914229Y-13629484D01*
X12914229Y-13629484D02*
X12895182Y-13619960D01*
X12895182Y-13619960D02*
X12885658Y-13610436D01*
X13076134Y-13429484D02*
X13076134Y-13467579D01*
X13152325Y-13429484D02*
X13152325Y-13467579D01*
X13447563Y-13705674D02*
X13438039Y-13696150D01*
X13438039Y-13696150D02*
X13418991Y-13667579D01*
X13418991Y-13667579D02*
X13409468Y-13648531D01*
X13409468Y-13648531D02*
X13399944Y-13619960D01*
X13399944Y-13619960D02*
X13390420Y-13572341D01*
X13390420Y-13572341D02*
X13390420Y-13534246D01*
X13390420Y-13534246D02*
X13399944Y-13486627D01*
X13399944Y-13486627D02*
X13409468Y-13458055D01*
X13409468Y-13458055D02*
X13418991Y-13439008D01*
X13418991Y-13439008D02*
X13438039Y-13410436D01*
X13438039Y-13410436D02*
X13447563Y-13400912D01*
X13514229Y-13448531D02*
X13523753Y-13439008D01*
X13523753Y-13439008D02*
X13542801Y-13429484D01*
X13542801Y-13429484D02*
X13590420Y-13429484D01*
X13590420Y-13429484D02*
X13609468Y-13439008D01*
X13609468Y-13439008D02*
X13618991Y-13448531D01*
X13618991Y-13448531D02*
X13628515Y-13467579D01*
X13628515Y-13467579D02*
X13628515Y-13486627D01*
X13628515Y-13486627D02*
X13618991Y-13515198D01*
X13618991Y-13515198D02*
X13504706Y-13629484D01*
X13504706Y-13629484D02*
X13628515Y-13629484D01*
X13866610Y-13629484D02*
X13866610Y-13429484D01*
X13952325Y-13629484D02*
X13952325Y-13524722D01*
X13952325Y-13524722D02*
X13942801Y-13505674D01*
X13942801Y-13505674D02*
X13923753Y-13496150D01*
X13923753Y-13496150D02*
X13895182Y-13496150D01*
X13895182Y-13496150D02*
X13876134Y-13505674D01*
X13876134Y-13505674D02*
X13866610Y-13515198D01*
X14076134Y-13629484D02*
X14057087Y-13619960D01*
X14057087Y-13619960D02*
X14047563Y-13610436D01*
X14047563Y-13610436D02*
X14038039Y-13591388D01*
X14038039Y-13591388D02*
X14038039Y-13534246D01*
X14038039Y-13534246D02*
X14047563Y-13515198D01*
X14047563Y-13515198D02*
X14057087Y-13505674D01*
X14057087Y-13505674D02*
X14076134Y-13496150D01*
X14076134Y-13496150D02*
X14104706Y-13496150D01*
X14104706Y-13496150D02*
X14123753Y-13505674D01*
X14123753Y-13505674D02*
X14133277Y-13515198D01*
X14133277Y-13515198D02*
X14142801Y-13534246D01*
X14142801Y-13534246D02*
X14142801Y-13591388D01*
X14142801Y-13591388D02*
X14133277Y-13610436D01*
X14133277Y-13610436D02*
X14123753Y-13619960D01*
X14123753Y-13619960D02*
X14104706Y-13629484D01*
X14104706Y-13629484D02*
X14076134Y-13629484D01*
X14257087Y-13629484D02*
X14238039Y-13619960D01*
X14238039Y-13619960D02*
X14228515Y-13600912D01*
X14228515Y-13600912D02*
X14228515Y-13429484D01*
X14409468Y-13619960D02*
X14390420Y-13629484D01*
X14390420Y-13629484D02*
X14352325Y-13629484D01*
X14352325Y-13629484D02*
X14333277Y-13619960D01*
X14333277Y-13619960D02*
X14323753Y-13600912D01*
X14323753Y-13600912D02*
X14323753Y-13524722D01*
X14323753Y-13524722D02*
X14333277Y-13505674D01*
X14333277Y-13505674D02*
X14352325Y-13496150D01*
X14352325Y-13496150D02*
X14390420Y-13496150D01*
X14390420Y-13496150D02*
X14409468Y-13505674D01*
X14409468Y-13505674D02*
X14418991Y-13524722D01*
X14418991Y-13524722D02*
X14418991Y-13543769D01*
X14418991Y-13543769D02*
X14323753Y-13562817D01*
X14495182Y-13619960D02*
X14514230Y-13629484D01*
X14514230Y-13629484D02*
X14552325Y-13629484D01*
X14552325Y-13629484D02*
X14571372Y-13619960D01*
X14571372Y-13619960D02*
X14580896Y-13600912D01*
X14580896Y-13600912D02*
X14580896Y-13591388D01*
X14580896Y-13591388D02*
X14571372Y-13572341D01*
X14571372Y-13572341D02*
X14552325Y-13562817D01*
X14552325Y-13562817D02*
X14523753Y-13562817D01*
X14523753Y-13562817D02*
X14504706Y-13553293D01*
X14504706Y-13553293D02*
X14495182Y-13534246D01*
X14495182Y-13534246D02*
X14495182Y-13524722D01*
X14495182Y-13524722D02*
X14504706Y-13505674D01*
X14504706Y-13505674D02*
X14523753Y-13496150D01*
X14523753Y-13496150D02*
X14552325Y-13496150D01*
X14552325Y-13496150D02*
X14571372Y-13505674D01*
X14647563Y-13705674D02*
X14657087Y-13696150D01*
X14657087Y-13696150D02*
X14676134Y-13667579D01*
X14676134Y-13667579D02*
X14685658Y-13648531D01*
X14685658Y-13648531D02*
X14695182Y-13619960D01*
X14695182Y-13619960D02*
X14704706Y-13572341D01*
X14704706Y-13572341D02*
X14704706Y-13534246D01*
X14704706Y-13534246D02*
X14695182Y-13486627D01*
X14695182Y-13486627D02*
X14685658Y-13458055D01*
X14685658Y-13458055D02*
X14676134Y-13439008D01*
X14676134Y-13439008D02*
X14657087Y-13410436D01*
X14657087Y-13410436D02*
X14647563Y-13400912D01*
D15*
X9859320Y-13833820D02*
X9859320Y-13770180D01*
X9795680Y-13770180D01*
X9795680Y-13833820D01*
X9859320Y-13833820D01*
D11*
X10171372Y-13693484D02*
X10190420Y-13693484D01*
X10190420Y-13693484D02*
X10209467Y-13703008D01*
X10209467Y-13703008D02*
X10218991Y-13712531D01*
X10218991Y-13712531D02*
X10228515Y-13731579D01*
X10228515Y-13731579D02*
X10238039Y-13769674D01*
X10238039Y-13769674D02*
X10238039Y-13817293D01*
X10238039Y-13817293D02*
X10228515Y-13855388D01*
X10228515Y-13855388D02*
X10218991Y-13874436D01*
X10218991Y-13874436D02*
X10209467Y-13883960D01*
X10209467Y-13883960D02*
X10190420Y-13893484D01*
X10190420Y-13893484D02*
X10171372Y-13893484D01*
X10171372Y-13893484D02*
X10152324Y-13883960D01*
X10152324Y-13883960D02*
X10142801Y-13874436D01*
X10142801Y-13874436D02*
X10133277Y-13855388D01*
X10133277Y-13855388D02*
X10123753Y-13817293D01*
X10123753Y-13817293D02*
X10123753Y-13769674D01*
X10123753Y-13769674D02*
X10133277Y-13731579D01*
X10133277Y-13731579D02*
X10142801Y-13712531D01*
X10142801Y-13712531D02*
X10152324Y-13703008D01*
X10152324Y-13703008D02*
X10171372Y-13693484D01*
X10323753Y-13874436D02*
X10333277Y-13883960D01*
X10333277Y-13883960D02*
X10323753Y-13893484D01*
X10323753Y-13893484D02*
X10314229Y-13883960D01*
X10314229Y-13883960D02*
X10323753Y-13874436D01*
X10323753Y-13874436D02*
X10323753Y-13893484D01*
X10428515Y-13893484D02*
X10466610Y-13893484D01*
X10466610Y-13893484D02*
X10485658Y-13883960D01*
X10485658Y-13883960D02*
X10495182Y-13874436D01*
X10495182Y-13874436D02*
X10514229Y-13845865D01*
X10514229Y-13845865D02*
X10523753Y-13807769D01*
X10523753Y-13807769D02*
X10523753Y-13731579D01*
X10523753Y-13731579D02*
X10514229Y-13712531D01*
X10514229Y-13712531D02*
X10504705Y-13703008D01*
X10504705Y-13703008D02*
X10485658Y-13693484D01*
X10485658Y-13693484D02*
X10447563Y-13693484D01*
X10447563Y-13693484D02*
X10428515Y-13703008D01*
X10428515Y-13703008D02*
X10418991Y-13712531D01*
X10418991Y-13712531D02*
X10409467Y-13731579D01*
X10409467Y-13731579D02*
X10409467Y-13779198D01*
X10409467Y-13779198D02*
X10418991Y-13798246D01*
X10418991Y-13798246D02*
X10428515Y-13807769D01*
X10428515Y-13807769D02*
X10447563Y-13817293D01*
X10447563Y-13817293D02*
X10485658Y-13817293D01*
X10485658Y-13817293D02*
X10504705Y-13807769D01*
X10504705Y-13807769D02*
X10514229Y-13798246D01*
X10514229Y-13798246D02*
X10523753Y-13779198D01*
X10647563Y-13693484D02*
X10666610Y-13693484D01*
X10666610Y-13693484D02*
X10685658Y-13703008D01*
X10685658Y-13703008D02*
X10695182Y-13712531D01*
X10695182Y-13712531D02*
X10704705Y-13731579D01*
X10704705Y-13731579D02*
X10714229Y-13769674D01*
X10714229Y-13769674D02*
X10714229Y-13817293D01*
X10714229Y-13817293D02*
X10704705Y-13855388D01*
X10704705Y-13855388D02*
X10695182Y-13874436D01*
X10695182Y-13874436D02*
X10685658Y-13883960D01*
X10685658Y-13883960D02*
X10666610Y-13893484D01*
X10666610Y-13893484D02*
X10647563Y-13893484D01*
X10647563Y-13893484D02*
X10628515Y-13883960D01*
X10628515Y-13883960D02*
X10618991Y-13874436D01*
X10618991Y-13874436D02*
X10609467Y-13855388D01*
X10609467Y-13855388D02*
X10599944Y-13817293D01*
X10599944Y-13817293D02*
X10599944Y-13769674D01*
X10599944Y-13769674D02*
X10609467Y-13731579D01*
X10609467Y-13731579D02*
X10618991Y-13712531D01*
X10618991Y-13712531D02*
X10628515Y-13703008D01*
X10628515Y-13703008D02*
X10647563Y-13693484D01*
X10838039Y-13693484D02*
X10857086Y-13693484D01*
X10857086Y-13693484D02*
X10876134Y-13703008D01*
X10876134Y-13703008D02*
X10885658Y-13712531D01*
X10885658Y-13712531D02*
X10895182Y-13731579D01*
X10895182Y-13731579D02*
X10904705Y-13769674D01*
X10904705Y-13769674D02*
X10904705Y-13817293D01*
X10904705Y-13817293D02*
X10895182Y-13855388D01*
X10895182Y-13855388D02*
X10885658Y-13874436D01*
X10885658Y-13874436D02*
X10876134Y-13883960D01*
X10876134Y-13883960D02*
X10857086Y-13893484D01*
X10857086Y-13893484D02*
X10838039Y-13893484D01*
X10838039Y-13893484D02*
X10818991Y-13883960D01*
X10818991Y-13883960D02*
X10809467Y-13874436D01*
X10809467Y-13874436D02*
X10799944Y-13855388D01*
X10799944Y-13855388D02*
X10790420Y-13817293D01*
X10790420Y-13817293D02*
X10790420Y-13769674D01*
X10790420Y-13769674D02*
X10799944Y-13731579D01*
X10799944Y-13731579D02*
X10809467Y-13712531D01*
X10809467Y-13712531D02*
X10818991Y-13703008D01*
X10818991Y-13703008D02*
X10838039Y-13693484D01*
X10990420Y-13893484D02*
X10990420Y-13760150D01*
X10990420Y-13779198D02*
X10999944Y-13769674D01*
X10999944Y-13769674D02*
X11018991Y-13760150D01*
X11018991Y-13760150D02*
X11047563Y-13760150D01*
X11047563Y-13760150D02*
X11066610Y-13769674D01*
X11066610Y-13769674D02*
X11076134Y-13788722D01*
X11076134Y-13788722D02*
X11076134Y-13893484D01*
X11076134Y-13788722D02*
X11085658Y-13769674D01*
X11085658Y-13769674D02*
X11104705Y-13760150D01*
X11104705Y-13760150D02*
X11133277Y-13760150D01*
X11133277Y-13760150D02*
X11152325Y-13769674D01*
X11152325Y-13769674D02*
X11161848Y-13788722D01*
X11161848Y-13788722D02*
X11161848Y-13893484D01*
X11257086Y-13893484D02*
X11257086Y-13760150D01*
X11257086Y-13779198D02*
X11266610Y-13769674D01*
X11266610Y-13769674D02*
X11285658Y-13760150D01*
X11285658Y-13760150D02*
X11314229Y-13760150D01*
X11314229Y-13760150D02*
X11333277Y-13769674D01*
X11333277Y-13769674D02*
X11342801Y-13788722D01*
X11342801Y-13788722D02*
X11342801Y-13893484D01*
X11342801Y-13788722D02*
X11352324Y-13769674D01*
X11352324Y-13769674D02*
X11371372Y-13760150D01*
X11371372Y-13760150D02*
X11399943Y-13760150D01*
X11399943Y-13760150D02*
X11418991Y-13769674D01*
X11418991Y-13769674D02*
X11428515Y-13788722D01*
X11428515Y-13788722D02*
X11428515Y-13893484D01*
X11818991Y-13683960D02*
X11647563Y-13941103D01*
X12076134Y-13693484D02*
X12095182Y-13693484D01*
X12095182Y-13693484D02*
X12114229Y-13703008D01*
X12114229Y-13703008D02*
X12123753Y-13712531D01*
X12123753Y-13712531D02*
X12133277Y-13731579D01*
X12133277Y-13731579D02*
X12142801Y-13769674D01*
X12142801Y-13769674D02*
X12142801Y-13817293D01*
X12142801Y-13817293D02*
X12133277Y-13855388D01*
X12133277Y-13855388D02*
X12123753Y-13874436D01*
X12123753Y-13874436D02*
X12114229Y-13883960D01*
X12114229Y-13883960D02*
X12095182Y-13893484D01*
X12095182Y-13893484D02*
X12076134Y-13893484D01*
X12076134Y-13893484D02*
X12057086Y-13883960D01*
X12057086Y-13883960D02*
X12047563Y-13874436D01*
X12047563Y-13874436D02*
X12038039Y-13855388D01*
X12038039Y-13855388D02*
X12028515Y-13817293D01*
X12028515Y-13817293D02*
X12028515Y-13769674D01*
X12028515Y-13769674D02*
X12038039Y-13731579D01*
X12038039Y-13731579D02*
X12047563Y-13712531D01*
X12047563Y-13712531D02*
X12057086Y-13703008D01*
X12057086Y-13703008D02*
X12076134Y-13693484D01*
X12228515Y-13874436D02*
X12238039Y-13883960D01*
X12238039Y-13883960D02*
X12228515Y-13893484D01*
X12228515Y-13893484D02*
X12218991Y-13883960D01*
X12218991Y-13883960D02*
X12228515Y-13874436D01*
X12228515Y-13874436D02*
X12228515Y-13893484D01*
X12361848Y-13693484D02*
X12380896Y-13693484D01*
X12380896Y-13693484D02*
X12399944Y-13703008D01*
X12399944Y-13703008D02*
X12409467Y-13712531D01*
X12409467Y-13712531D02*
X12418991Y-13731579D01*
X12418991Y-13731579D02*
X12428515Y-13769674D01*
X12428515Y-13769674D02*
X12428515Y-13817293D01*
X12428515Y-13817293D02*
X12418991Y-13855388D01*
X12418991Y-13855388D02*
X12409467Y-13874436D01*
X12409467Y-13874436D02*
X12399944Y-13883960D01*
X12399944Y-13883960D02*
X12380896Y-13893484D01*
X12380896Y-13893484D02*
X12361848Y-13893484D01*
X12361848Y-13893484D02*
X12342801Y-13883960D01*
X12342801Y-13883960D02*
X12333277Y-13874436D01*
X12333277Y-13874436D02*
X12323753Y-13855388D01*
X12323753Y-13855388D02*
X12314229Y-13817293D01*
X12314229Y-13817293D02*
X12314229Y-13769674D01*
X12314229Y-13769674D02*
X12323753Y-13731579D01*
X12323753Y-13731579D02*
X12333277Y-13712531D01*
X12333277Y-13712531D02*
X12342801Y-13703008D01*
X12342801Y-13703008D02*
X12361848Y-13693484D01*
X12495182Y-13693484D02*
X12618991Y-13693484D01*
X12618991Y-13693484D02*
X12552325Y-13769674D01*
X12552325Y-13769674D02*
X12580896Y-13769674D01*
X12580896Y-13769674D02*
X12599944Y-13779198D01*
X12599944Y-13779198D02*
X12609467Y-13788722D01*
X12609467Y-13788722D02*
X12618991Y-13807769D01*
X12618991Y-13807769D02*
X12618991Y-13855388D01*
X12618991Y-13855388D02*
X12609467Y-13874436D01*
X12609467Y-13874436D02*
X12599944Y-13883960D01*
X12599944Y-13883960D02*
X12580896Y-13893484D01*
X12580896Y-13893484D02*
X12523753Y-13893484D01*
X12523753Y-13893484D02*
X12504706Y-13883960D01*
X12504706Y-13883960D02*
X12495182Y-13874436D01*
X12799944Y-13693484D02*
X12704706Y-13693484D01*
X12704706Y-13693484D02*
X12695182Y-13788722D01*
X12695182Y-13788722D02*
X12704706Y-13779198D01*
X12704706Y-13779198D02*
X12723753Y-13769674D01*
X12723753Y-13769674D02*
X12771372Y-13769674D01*
X12771372Y-13769674D02*
X12790420Y-13779198D01*
X12790420Y-13779198D02*
X12799944Y-13788722D01*
X12799944Y-13788722D02*
X12809467Y-13807769D01*
X12809467Y-13807769D02*
X12809467Y-13855388D01*
X12809467Y-13855388D02*
X12799944Y-13874436D01*
X12799944Y-13874436D02*
X12790420Y-13883960D01*
X12790420Y-13883960D02*
X12771372Y-13893484D01*
X12771372Y-13893484D02*
X12723753Y-13893484D01*
X12723753Y-13893484D02*
X12704706Y-13883960D01*
X12704706Y-13883960D02*
X12695182Y-13874436D01*
X12980896Y-13760150D02*
X12980896Y-13893484D01*
X12933277Y-13683960D02*
X12885658Y-13826817D01*
X12885658Y-13826817D02*
X13009467Y-13826817D01*
X13076134Y-13693484D02*
X13076134Y-13731579D01*
X13152325Y-13693484D02*
X13152325Y-13731579D01*
X13447563Y-13969674D02*
X13438039Y-13960150D01*
X13438039Y-13960150D02*
X13418991Y-13931579D01*
X13418991Y-13931579D02*
X13409468Y-13912531D01*
X13409468Y-13912531D02*
X13399944Y-13883960D01*
X13399944Y-13883960D02*
X13390420Y-13836341D01*
X13390420Y-13836341D02*
X13390420Y-13798246D01*
X13390420Y-13798246D02*
X13399944Y-13750627D01*
X13399944Y-13750627D02*
X13409468Y-13722055D01*
X13409468Y-13722055D02*
X13418991Y-13703008D01*
X13418991Y-13703008D02*
X13438039Y-13674436D01*
X13438039Y-13674436D02*
X13447563Y-13664912D01*
X13504706Y-13693484D02*
X13628515Y-13693484D01*
X13628515Y-13693484D02*
X13561848Y-13769674D01*
X13561848Y-13769674D02*
X13590420Y-13769674D01*
X13590420Y-13769674D02*
X13609468Y-13779198D01*
X13609468Y-13779198D02*
X13618991Y-13788722D01*
X13618991Y-13788722D02*
X13628515Y-13807769D01*
X13628515Y-13807769D02*
X13628515Y-13855388D01*
X13628515Y-13855388D02*
X13618991Y-13874436D01*
X13618991Y-13874436D02*
X13609468Y-13883960D01*
X13609468Y-13883960D02*
X13590420Y-13893484D01*
X13590420Y-13893484D02*
X13533277Y-13893484D01*
X13533277Y-13893484D02*
X13514229Y-13883960D01*
X13514229Y-13883960D02*
X13504706Y-13874436D01*
X13866610Y-13893484D02*
X13866610Y-13693484D01*
X13952325Y-13893484D02*
X13952325Y-13788722D01*
X13952325Y-13788722D02*
X13942801Y-13769674D01*
X13942801Y-13769674D02*
X13923753Y-13760150D01*
X13923753Y-13760150D02*
X13895182Y-13760150D01*
X13895182Y-13760150D02*
X13876134Y-13769674D01*
X13876134Y-13769674D02*
X13866610Y-13779198D01*
X14076134Y-13893484D02*
X14057087Y-13883960D01*
X14057087Y-13883960D02*
X14047563Y-13874436D01*
X14047563Y-13874436D02*
X14038039Y-13855388D01*
X14038039Y-13855388D02*
X14038039Y-13798246D01*
X14038039Y-13798246D02*
X14047563Y-13779198D01*
X14047563Y-13779198D02*
X14057087Y-13769674D01*
X14057087Y-13769674D02*
X14076134Y-13760150D01*
X14076134Y-13760150D02*
X14104706Y-13760150D01*
X14104706Y-13760150D02*
X14123753Y-13769674D01*
X14123753Y-13769674D02*
X14133277Y-13779198D01*
X14133277Y-13779198D02*
X14142801Y-13798246D01*
X14142801Y-13798246D02*
X14142801Y-13855388D01*
X14142801Y-13855388D02*
X14133277Y-13874436D01*
X14133277Y-13874436D02*
X14123753Y-13883960D01*
X14123753Y-13883960D02*
X14104706Y-13893484D01*
X14104706Y-13893484D02*
X14076134Y-13893484D01*
X14257087Y-13893484D02*
X14238039Y-13883960D01*
X14238039Y-13883960D02*
X14228515Y-13864912D01*
X14228515Y-13864912D02*
X14228515Y-13693484D01*
X14409468Y-13883960D02*
X14390420Y-13893484D01*
X14390420Y-13893484D02*
X14352325Y-13893484D01*
X14352325Y-13893484D02*
X14333277Y-13883960D01*
X14333277Y-13883960D02*
X14323753Y-13864912D01*
X14323753Y-13864912D02*
X14323753Y-13788722D01*
X14323753Y-13788722D02*
X14333277Y-13769674D01*
X14333277Y-13769674D02*
X14352325Y-13760150D01*
X14352325Y-13760150D02*
X14390420Y-13760150D01*
X14390420Y-13760150D02*
X14409468Y-13769674D01*
X14409468Y-13769674D02*
X14418991Y-13788722D01*
X14418991Y-13788722D02*
X14418991Y-13807769D01*
X14418991Y-13807769D02*
X14323753Y-13826817D01*
X14495182Y-13883960D02*
X14514230Y-13893484D01*
X14514230Y-13893484D02*
X14552325Y-13893484D01*
X14552325Y-13893484D02*
X14571372Y-13883960D01*
X14571372Y-13883960D02*
X14580896Y-13864912D01*
X14580896Y-13864912D02*
X14580896Y-13855388D01*
X14580896Y-13855388D02*
X14571372Y-13836341D01*
X14571372Y-13836341D02*
X14552325Y-13826817D01*
X14552325Y-13826817D02*
X14523753Y-13826817D01*
X14523753Y-13826817D02*
X14504706Y-13817293D01*
X14504706Y-13817293D02*
X14495182Y-13798246D01*
X14495182Y-13798246D02*
X14495182Y-13788722D01*
X14495182Y-13788722D02*
X14504706Y-13769674D01*
X14504706Y-13769674D02*
X14523753Y-13760150D01*
X14523753Y-13760150D02*
X14552325Y-13760150D01*
X14552325Y-13760150D02*
X14571372Y-13769674D01*
X14647563Y-13969674D02*
X14657087Y-13960150D01*
X14657087Y-13960150D02*
X14676134Y-13931579D01*
X14676134Y-13931579D02*
X14685658Y-13912531D01*
X14685658Y-13912531D02*
X14695182Y-13883960D01*
X14695182Y-13883960D02*
X14704706Y-13836341D01*
X14704706Y-13836341D02*
X14704706Y-13798246D01*
X14704706Y-13798246D02*
X14695182Y-13750627D01*
X14695182Y-13750627D02*
X14685658Y-13722055D01*
X14685658Y-13722055D02*
X14676134Y-13703008D01*
X14676134Y-13703008D02*
X14657087Y-13674436D01*
X14657087Y-13674436D02*
X14647563Y-13664912D01*
D10*
X9822500Y-14116000D02*
X9872500Y-14066000D01*
X9822500Y-14016000D01*
X9772500Y-14066000D01*
X9822500Y-14116000D01*
D11*
X10238039Y-14157484D02*
X10123753Y-14157484D01*
X10180896Y-14157484D02*
X10180896Y-13957484D01*
X10180896Y-13957484D02*
X10161848Y-13986055D01*
X10161848Y-13986055D02*
X10142801Y-14005103D01*
X10142801Y-14005103D02*
X10123753Y-14014627D01*
X10323753Y-14138436D02*
X10333277Y-14147960D01*
X10333277Y-14147960D02*
X10323753Y-14157484D01*
X10323753Y-14157484D02*
X10314229Y-14147960D01*
X10314229Y-14147960D02*
X10323753Y-14138436D01*
X10323753Y-14138436D02*
X10323753Y-14157484D01*
X10457086Y-13957484D02*
X10476134Y-13957484D01*
X10476134Y-13957484D02*
X10495182Y-13967008D01*
X10495182Y-13967008D02*
X10504705Y-13976531D01*
X10504705Y-13976531D02*
X10514229Y-13995579D01*
X10514229Y-13995579D02*
X10523753Y-14033674D01*
X10523753Y-14033674D02*
X10523753Y-14081293D01*
X10523753Y-14081293D02*
X10514229Y-14119388D01*
X10514229Y-14119388D02*
X10504705Y-14138436D01*
X10504705Y-14138436D02*
X10495182Y-14147960D01*
X10495182Y-14147960D02*
X10476134Y-14157484D01*
X10476134Y-14157484D02*
X10457086Y-14157484D01*
X10457086Y-14157484D02*
X10438039Y-14147960D01*
X10438039Y-14147960D02*
X10428515Y-14138436D01*
X10428515Y-14138436D02*
X10418991Y-14119388D01*
X10418991Y-14119388D02*
X10409467Y-14081293D01*
X10409467Y-14081293D02*
X10409467Y-14033674D01*
X10409467Y-14033674D02*
X10418991Y-13995579D01*
X10418991Y-13995579D02*
X10428515Y-13976531D01*
X10428515Y-13976531D02*
X10438039Y-13967008D01*
X10438039Y-13967008D02*
X10457086Y-13957484D01*
X10647563Y-13957484D02*
X10666610Y-13957484D01*
X10666610Y-13957484D02*
X10685658Y-13967008D01*
X10685658Y-13967008D02*
X10695182Y-13976531D01*
X10695182Y-13976531D02*
X10704705Y-13995579D01*
X10704705Y-13995579D02*
X10714229Y-14033674D01*
X10714229Y-14033674D02*
X10714229Y-14081293D01*
X10714229Y-14081293D02*
X10704705Y-14119388D01*
X10704705Y-14119388D02*
X10695182Y-14138436D01*
X10695182Y-14138436D02*
X10685658Y-14147960D01*
X10685658Y-14147960D02*
X10666610Y-14157484D01*
X10666610Y-14157484D02*
X10647563Y-14157484D01*
X10647563Y-14157484D02*
X10628515Y-14147960D01*
X10628515Y-14147960D02*
X10618991Y-14138436D01*
X10618991Y-14138436D02*
X10609467Y-14119388D01*
X10609467Y-14119388D02*
X10599944Y-14081293D01*
X10599944Y-14081293D02*
X10599944Y-14033674D01*
X10599944Y-14033674D02*
X10609467Y-13995579D01*
X10609467Y-13995579D02*
X10618991Y-13976531D01*
X10618991Y-13976531D02*
X10628515Y-13967008D01*
X10628515Y-13967008D02*
X10647563Y-13957484D01*
X10838039Y-13957484D02*
X10857086Y-13957484D01*
X10857086Y-13957484D02*
X10876134Y-13967008D01*
X10876134Y-13967008D02*
X10885658Y-13976531D01*
X10885658Y-13976531D02*
X10895182Y-13995579D01*
X10895182Y-13995579D02*
X10904705Y-14033674D01*
X10904705Y-14033674D02*
X10904705Y-14081293D01*
X10904705Y-14081293D02*
X10895182Y-14119388D01*
X10895182Y-14119388D02*
X10885658Y-14138436D01*
X10885658Y-14138436D02*
X10876134Y-14147960D01*
X10876134Y-14147960D02*
X10857086Y-14157484D01*
X10857086Y-14157484D02*
X10838039Y-14157484D01*
X10838039Y-14157484D02*
X10818991Y-14147960D01*
X10818991Y-14147960D02*
X10809467Y-14138436D01*
X10809467Y-14138436D02*
X10799944Y-14119388D01*
X10799944Y-14119388D02*
X10790420Y-14081293D01*
X10790420Y-14081293D02*
X10790420Y-14033674D01*
X10790420Y-14033674D02*
X10799944Y-13995579D01*
X10799944Y-13995579D02*
X10809467Y-13976531D01*
X10809467Y-13976531D02*
X10818991Y-13967008D01*
X10818991Y-13967008D02*
X10838039Y-13957484D01*
X10990420Y-14157484D02*
X10990420Y-14024150D01*
X10990420Y-14043198D02*
X10999944Y-14033674D01*
X10999944Y-14033674D02*
X11018991Y-14024150D01*
X11018991Y-14024150D02*
X11047563Y-14024150D01*
X11047563Y-14024150D02*
X11066610Y-14033674D01*
X11066610Y-14033674D02*
X11076134Y-14052722D01*
X11076134Y-14052722D02*
X11076134Y-14157484D01*
X11076134Y-14052722D02*
X11085658Y-14033674D01*
X11085658Y-14033674D02*
X11104705Y-14024150D01*
X11104705Y-14024150D02*
X11133277Y-14024150D01*
X11133277Y-14024150D02*
X11152325Y-14033674D01*
X11152325Y-14033674D02*
X11161848Y-14052722D01*
X11161848Y-14052722D02*
X11161848Y-14157484D01*
X11257086Y-14157484D02*
X11257086Y-14024150D01*
X11257086Y-14043198D02*
X11266610Y-14033674D01*
X11266610Y-14033674D02*
X11285658Y-14024150D01*
X11285658Y-14024150D02*
X11314229Y-14024150D01*
X11314229Y-14024150D02*
X11333277Y-14033674D01*
X11333277Y-14033674D02*
X11342801Y-14052722D01*
X11342801Y-14052722D02*
X11342801Y-14157484D01*
X11342801Y-14052722D02*
X11352324Y-14033674D01*
X11352324Y-14033674D02*
X11371372Y-14024150D01*
X11371372Y-14024150D02*
X11399943Y-14024150D01*
X11399943Y-14024150D02*
X11418991Y-14033674D01*
X11418991Y-14033674D02*
X11428515Y-14052722D01*
X11428515Y-14052722D02*
X11428515Y-14157484D01*
X11818991Y-13947960D02*
X11647563Y-14205103D01*
X12076134Y-13957484D02*
X12095182Y-13957484D01*
X12095182Y-13957484D02*
X12114229Y-13967008D01*
X12114229Y-13967008D02*
X12123753Y-13976531D01*
X12123753Y-13976531D02*
X12133277Y-13995579D01*
X12133277Y-13995579D02*
X12142801Y-14033674D01*
X12142801Y-14033674D02*
X12142801Y-14081293D01*
X12142801Y-14081293D02*
X12133277Y-14119388D01*
X12133277Y-14119388D02*
X12123753Y-14138436D01*
X12123753Y-14138436D02*
X12114229Y-14147960D01*
X12114229Y-14147960D02*
X12095182Y-14157484D01*
X12095182Y-14157484D02*
X12076134Y-14157484D01*
X12076134Y-14157484D02*
X12057086Y-14147960D01*
X12057086Y-14147960D02*
X12047563Y-14138436D01*
X12047563Y-14138436D02*
X12038039Y-14119388D01*
X12038039Y-14119388D02*
X12028515Y-14081293D01*
X12028515Y-14081293D02*
X12028515Y-14033674D01*
X12028515Y-14033674D02*
X12038039Y-13995579D01*
X12038039Y-13995579D02*
X12047563Y-13976531D01*
X12047563Y-13976531D02*
X12057086Y-13967008D01*
X12057086Y-13967008D02*
X12076134Y-13957484D01*
X12228515Y-14138436D02*
X12238039Y-14147960D01*
X12238039Y-14147960D02*
X12228515Y-14157484D01*
X12228515Y-14157484D02*
X12218991Y-14147960D01*
X12218991Y-14147960D02*
X12228515Y-14138436D01*
X12228515Y-14138436D02*
X12228515Y-14157484D01*
X12361848Y-13957484D02*
X12380896Y-13957484D01*
X12380896Y-13957484D02*
X12399944Y-13967008D01*
X12399944Y-13967008D02*
X12409467Y-13976531D01*
X12409467Y-13976531D02*
X12418991Y-13995579D01*
X12418991Y-13995579D02*
X12428515Y-14033674D01*
X12428515Y-14033674D02*
X12428515Y-14081293D01*
X12428515Y-14081293D02*
X12418991Y-14119388D01*
X12418991Y-14119388D02*
X12409467Y-14138436D01*
X12409467Y-14138436D02*
X12399944Y-14147960D01*
X12399944Y-14147960D02*
X12380896Y-14157484D01*
X12380896Y-14157484D02*
X12361848Y-14157484D01*
X12361848Y-14157484D02*
X12342801Y-14147960D01*
X12342801Y-14147960D02*
X12333277Y-14138436D01*
X12333277Y-14138436D02*
X12323753Y-14119388D01*
X12323753Y-14119388D02*
X12314229Y-14081293D01*
X12314229Y-14081293D02*
X12314229Y-14033674D01*
X12314229Y-14033674D02*
X12323753Y-13995579D01*
X12323753Y-13995579D02*
X12333277Y-13976531D01*
X12333277Y-13976531D02*
X12342801Y-13967008D01*
X12342801Y-13967008D02*
X12361848Y-13957484D01*
X12495182Y-13957484D02*
X12618991Y-13957484D01*
X12618991Y-13957484D02*
X12552325Y-14033674D01*
X12552325Y-14033674D02*
X12580896Y-14033674D01*
X12580896Y-14033674D02*
X12599944Y-14043198D01*
X12599944Y-14043198D02*
X12609467Y-14052722D01*
X12609467Y-14052722D02*
X12618991Y-14071769D01*
X12618991Y-14071769D02*
X12618991Y-14119388D01*
X12618991Y-14119388D02*
X12609467Y-14138436D01*
X12609467Y-14138436D02*
X12599944Y-14147960D01*
X12599944Y-14147960D02*
X12580896Y-14157484D01*
X12580896Y-14157484D02*
X12523753Y-14157484D01*
X12523753Y-14157484D02*
X12504706Y-14147960D01*
X12504706Y-14147960D02*
X12495182Y-14138436D01*
X12714229Y-14157484D02*
X12752325Y-14157484D01*
X12752325Y-14157484D02*
X12771372Y-14147960D01*
X12771372Y-14147960D02*
X12780896Y-14138436D01*
X12780896Y-14138436D02*
X12799944Y-14109865D01*
X12799944Y-14109865D02*
X12809467Y-14071769D01*
X12809467Y-14071769D02*
X12809467Y-13995579D01*
X12809467Y-13995579D02*
X12799944Y-13976531D01*
X12799944Y-13976531D02*
X12790420Y-13967008D01*
X12790420Y-13967008D02*
X12771372Y-13957484D01*
X12771372Y-13957484D02*
X12733277Y-13957484D01*
X12733277Y-13957484D02*
X12714229Y-13967008D01*
X12714229Y-13967008D02*
X12704706Y-13976531D01*
X12704706Y-13976531D02*
X12695182Y-13995579D01*
X12695182Y-13995579D02*
X12695182Y-14043198D01*
X12695182Y-14043198D02*
X12704706Y-14062246D01*
X12704706Y-14062246D02*
X12714229Y-14071769D01*
X12714229Y-14071769D02*
X12733277Y-14081293D01*
X12733277Y-14081293D02*
X12771372Y-14081293D01*
X12771372Y-14081293D02*
X12790420Y-14071769D01*
X12790420Y-14071769D02*
X12799944Y-14062246D01*
X12799944Y-14062246D02*
X12809467Y-14043198D01*
X12980896Y-14024150D02*
X12980896Y-14157484D01*
X12933277Y-13947960D02*
X12885658Y-14090817D01*
X12885658Y-14090817D02*
X13009467Y-14090817D01*
X13076134Y-13957484D02*
X13076134Y-13995579D01*
X13152325Y-13957484D02*
X13152325Y-13995579D01*
X13447563Y-14233674D02*
X13438039Y-14224150D01*
X13438039Y-14224150D02*
X13418991Y-14195579D01*
X13418991Y-14195579D02*
X13409468Y-14176531D01*
X13409468Y-14176531D02*
X13399944Y-14147960D01*
X13399944Y-14147960D02*
X13390420Y-14100341D01*
X13390420Y-14100341D02*
X13390420Y-14062246D01*
X13390420Y-14062246D02*
X13399944Y-14014627D01*
X13399944Y-14014627D02*
X13409468Y-13986055D01*
X13409468Y-13986055D02*
X13418991Y-13967008D01*
X13418991Y-13967008D02*
X13438039Y-13938436D01*
X13438039Y-13938436D02*
X13447563Y-13928912D01*
X13504706Y-13957484D02*
X13628515Y-13957484D01*
X13628515Y-13957484D02*
X13561848Y-14033674D01*
X13561848Y-14033674D02*
X13590420Y-14033674D01*
X13590420Y-14033674D02*
X13609468Y-14043198D01*
X13609468Y-14043198D02*
X13618991Y-14052722D01*
X13618991Y-14052722D02*
X13628515Y-14071769D01*
X13628515Y-14071769D02*
X13628515Y-14119388D01*
X13628515Y-14119388D02*
X13618991Y-14138436D01*
X13618991Y-14138436D02*
X13609468Y-14147960D01*
X13609468Y-14147960D02*
X13590420Y-14157484D01*
X13590420Y-14157484D02*
X13533277Y-14157484D01*
X13533277Y-14157484D02*
X13514229Y-14147960D01*
X13514229Y-14147960D02*
X13504706Y-14138436D01*
X13799944Y-14024150D02*
X13799944Y-14157484D01*
X13752325Y-13947960D02*
X13704706Y-14090817D01*
X13704706Y-14090817D02*
X13828515Y-14090817D01*
X14057087Y-14157484D02*
X14057087Y-13957484D01*
X14142801Y-14157484D02*
X14142801Y-14052722D01*
X14142801Y-14052722D02*
X14133277Y-14033674D01*
X14133277Y-14033674D02*
X14114230Y-14024150D01*
X14114230Y-14024150D02*
X14085658Y-14024150D01*
X14085658Y-14024150D02*
X14066610Y-14033674D01*
X14066610Y-14033674D02*
X14057087Y-14043198D01*
X14266610Y-14157484D02*
X14247563Y-14147960D01*
X14247563Y-14147960D02*
X14238039Y-14138436D01*
X14238039Y-14138436D02*
X14228515Y-14119388D01*
X14228515Y-14119388D02*
X14228515Y-14062246D01*
X14228515Y-14062246D02*
X14238039Y-14043198D01*
X14238039Y-14043198D02*
X14247563Y-14033674D01*
X14247563Y-14033674D02*
X14266610Y-14024150D01*
X14266610Y-14024150D02*
X14295182Y-14024150D01*
X14295182Y-14024150D02*
X14314230Y-14033674D01*
X14314230Y-14033674D02*
X14323753Y-14043198D01*
X14323753Y-14043198D02*
X14333277Y-14062246D01*
X14333277Y-14062246D02*
X14333277Y-14119388D01*
X14333277Y-14119388D02*
X14323753Y-14138436D01*
X14323753Y-14138436D02*
X14314230Y-14147960D01*
X14314230Y-14147960D02*
X14295182Y-14157484D01*
X14295182Y-14157484D02*
X14266610Y-14157484D01*
X14447563Y-14157484D02*
X14428515Y-14147960D01*
X14428515Y-14147960D02*
X14418991Y-14128912D01*
X14418991Y-14128912D02*
X14418991Y-13957484D01*
X14599944Y-14147960D02*
X14580896Y-14157484D01*
X14580896Y-14157484D02*
X14542801Y-14157484D01*
X14542801Y-14157484D02*
X14523753Y-14147960D01*
X14523753Y-14147960D02*
X14514230Y-14128912D01*
X14514230Y-14128912D02*
X14514230Y-14052722D01*
X14514230Y-14052722D02*
X14523753Y-14033674D01*
X14523753Y-14033674D02*
X14542801Y-14024150D01*
X14542801Y-14024150D02*
X14580896Y-14024150D01*
X14580896Y-14024150D02*
X14599944Y-14033674D01*
X14599944Y-14033674D02*
X14609468Y-14052722D01*
X14609468Y-14052722D02*
X14609468Y-14071769D01*
X14609468Y-14071769D02*
X14514230Y-14090817D01*
X14685658Y-14147960D02*
X14704706Y-14157484D01*
X14704706Y-14157484D02*
X14742801Y-14157484D01*
X14742801Y-14157484D02*
X14761849Y-14147960D01*
X14761849Y-14147960D02*
X14771372Y-14128912D01*
X14771372Y-14128912D02*
X14771372Y-14119388D01*
X14771372Y-14119388D02*
X14761849Y-14100341D01*
X14761849Y-14100341D02*
X14742801Y-14090817D01*
X14742801Y-14090817D02*
X14714230Y-14090817D01*
X14714230Y-14090817D02*
X14695182Y-14081293D01*
X14695182Y-14081293D02*
X14685658Y-14062246D01*
X14685658Y-14062246D02*
X14685658Y-14052722D01*
X14685658Y-14052722D02*
X14695182Y-14033674D01*
X14695182Y-14033674D02*
X14714230Y-14024150D01*
X14714230Y-14024150D02*
X14742801Y-14024150D01*
X14742801Y-14024150D02*
X14761849Y-14033674D01*
X15009468Y-14081293D02*
X15161849Y-14081293D01*
X15085658Y-14157484D02*
X15085658Y-14005103D01*
X15390420Y-13957484D02*
X15514230Y-13957484D01*
X15514230Y-13957484D02*
X15447563Y-14033674D01*
X15447563Y-14033674D02*
X15476134Y-14033674D01*
X15476134Y-14033674D02*
X15495182Y-14043198D01*
X15495182Y-14043198D02*
X15504706Y-14052722D01*
X15504706Y-14052722D02*
X15514230Y-14071769D01*
X15514230Y-14071769D02*
X15514230Y-14119388D01*
X15514230Y-14119388D02*
X15504706Y-14138436D01*
X15504706Y-14138436D02*
X15495182Y-14147960D01*
X15495182Y-14147960D02*
X15476134Y-14157484D01*
X15476134Y-14157484D02*
X15418992Y-14157484D01*
X15418992Y-14157484D02*
X15399944Y-14147960D01*
X15399944Y-14147960D02*
X15390420Y-14138436D01*
X15742801Y-14147960D02*
X15761849Y-14157484D01*
X15761849Y-14157484D02*
X15799944Y-14157484D01*
X15799944Y-14157484D02*
X15818992Y-14147960D01*
X15818992Y-14147960D02*
X15828515Y-14128912D01*
X15828515Y-14128912D02*
X15828515Y-14119388D01*
X15828515Y-14119388D02*
X15818992Y-14100341D01*
X15818992Y-14100341D02*
X15799944Y-14090817D01*
X15799944Y-14090817D02*
X15771373Y-14090817D01*
X15771373Y-14090817D02*
X15752325Y-14081293D01*
X15752325Y-14081293D02*
X15742801Y-14062246D01*
X15742801Y-14062246D02*
X15742801Y-14052722D01*
X15742801Y-14052722D02*
X15752325Y-14033674D01*
X15752325Y-14033674D02*
X15771373Y-14024150D01*
X15771373Y-14024150D02*
X15799944Y-14024150D01*
X15799944Y-14024150D02*
X15818992Y-14033674D01*
X15942801Y-14157484D02*
X15923754Y-14147960D01*
X15923754Y-14147960D02*
X15914230Y-14128912D01*
X15914230Y-14128912D02*
X15914230Y-13957484D01*
X16047563Y-14157484D02*
X16028515Y-14147960D01*
X16028515Y-14147960D02*
X16018992Y-14138436D01*
X16018992Y-14138436D02*
X16009468Y-14119388D01*
X16009468Y-14119388D02*
X16009468Y-14062246D01*
X16009468Y-14062246D02*
X16018992Y-14043198D01*
X16018992Y-14043198D02*
X16028515Y-14033674D01*
X16028515Y-14033674D02*
X16047563Y-14024150D01*
X16047563Y-14024150D02*
X16076135Y-14024150D01*
X16076135Y-14024150D02*
X16095182Y-14033674D01*
X16095182Y-14033674D02*
X16104706Y-14043198D01*
X16104706Y-14043198D02*
X16114230Y-14062246D01*
X16114230Y-14062246D02*
X16114230Y-14119388D01*
X16114230Y-14119388D02*
X16104706Y-14138436D01*
X16104706Y-14138436D02*
X16095182Y-14147960D01*
X16095182Y-14147960D02*
X16076135Y-14157484D01*
X16076135Y-14157484D02*
X16047563Y-14157484D01*
X16171373Y-14024150D02*
X16247563Y-14024150D01*
X16199944Y-13957484D02*
X16199944Y-14128912D01*
X16199944Y-14128912D02*
X16209468Y-14147960D01*
X16209468Y-14147960D02*
X16228515Y-14157484D01*
X16228515Y-14157484D02*
X16247563Y-14157484D01*
X16304706Y-14147960D02*
X16323754Y-14157484D01*
X16323754Y-14157484D02*
X16361849Y-14157484D01*
X16361849Y-14157484D02*
X16380896Y-14147960D01*
X16380896Y-14147960D02*
X16390420Y-14128912D01*
X16390420Y-14128912D02*
X16390420Y-14119388D01*
X16390420Y-14119388D02*
X16380896Y-14100341D01*
X16380896Y-14100341D02*
X16361849Y-14090817D01*
X16361849Y-14090817D02*
X16333277Y-14090817D01*
X16333277Y-14090817D02*
X16314230Y-14081293D01*
X16314230Y-14081293D02*
X16304706Y-14062246D01*
X16304706Y-14062246D02*
X16304706Y-14052722D01*
X16304706Y-14052722D02*
X16314230Y-14033674D01*
X16314230Y-14033674D02*
X16333277Y-14024150D01*
X16333277Y-14024150D02*
X16361849Y-14024150D01*
X16361849Y-14024150D02*
X16380896Y-14033674D01*
X16457087Y-14233674D02*
X16466611Y-14224150D01*
X16466611Y-14224150D02*
X16485658Y-14195579D01*
X16485658Y-14195579D02*
X16495182Y-14176531D01*
X16495182Y-14176531D02*
X16504706Y-14147960D01*
X16504706Y-14147960D02*
X16514230Y-14100341D01*
X16514230Y-14100341D02*
X16514230Y-14062246D01*
X16514230Y-14062246D02*
X16504706Y-14014627D01*
X16504706Y-14014627D02*
X16495182Y-13986055D01*
X16495182Y-13986055D02*
X16485658Y-13967008D01*
X16485658Y-13967008D02*
X16466611Y-13938436D01*
X16466611Y-13938436D02*
X16457087Y-13928912D01*
D16*
X9763500Y-14275500D02*
X9872500Y-14384500D01*
X9872500Y-14275500D02*
X9763500Y-14384500D01*
X9872500Y-14330000D02*
G75*
G03*
X9872500Y-14330000I-54500J0D01*
G01*
D11*
X10238039Y-14421484D02*
X10123753Y-14421484D01*
X10180896Y-14421484D02*
X10180896Y-14221484D01*
X10180896Y-14221484D02*
X10161848Y-14250055D01*
X10161848Y-14250055D02*
X10142801Y-14269103D01*
X10142801Y-14269103D02*
X10123753Y-14278627D01*
X10323753Y-14402436D02*
X10333277Y-14411960D01*
X10333277Y-14411960D02*
X10323753Y-14421484D01*
X10323753Y-14421484D02*
X10314229Y-14411960D01*
X10314229Y-14411960D02*
X10323753Y-14402436D01*
X10323753Y-14402436D02*
X10323753Y-14421484D01*
X10457086Y-14221484D02*
X10476134Y-14221484D01*
X10476134Y-14221484D02*
X10495182Y-14231008D01*
X10495182Y-14231008D02*
X10504705Y-14240531D01*
X10504705Y-14240531D02*
X10514229Y-14259579D01*
X10514229Y-14259579D02*
X10523753Y-14297674D01*
X10523753Y-14297674D02*
X10523753Y-14345293D01*
X10523753Y-14345293D02*
X10514229Y-14383388D01*
X10514229Y-14383388D02*
X10504705Y-14402436D01*
X10504705Y-14402436D02*
X10495182Y-14411960D01*
X10495182Y-14411960D02*
X10476134Y-14421484D01*
X10476134Y-14421484D02*
X10457086Y-14421484D01*
X10457086Y-14421484D02*
X10438039Y-14411960D01*
X10438039Y-14411960D02*
X10428515Y-14402436D01*
X10428515Y-14402436D02*
X10418991Y-14383388D01*
X10418991Y-14383388D02*
X10409467Y-14345293D01*
X10409467Y-14345293D02*
X10409467Y-14297674D01*
X10409467Y-14297674D02*
X10418991Y-14259579D01*
X10418991Y-14259579D02*
X10428515Y-14240531D01*
X10428515Y-14240531D02*
X10438039Y-14231008D01*
X10438039Y-14231008D02*
X10457086Y-14221484D01*
X10618991Y-14421484D02*
X10657086Y-14421484D01*
X10657086Y-14421484D02*
X10676134Y-14411960D01*
X10676134Y-14411960D02*
X10685658Y-14402436D01*
X10685658Y-14402436D02*
X10704705Y-14373865D01*
X10704705Y-14373865D02*
X10714229Y-14335769D01*
X10714229Y-14335769D02*
X10714229Y-14259579D01*
X10714229Y-14259579D02*
X10704705Y-14240531D01*
X10704705Y-14240531D02*
X10695182Y-14231008D01*
X10695182Y-14231008D02*
X10676134Y-14221484D01*
X10676134Y-14221484D02*
X10638039Y-14221484D01*
X10638039Y-14221484D02*
X10618991Y-14231008D01*
X10618991Y-14231008D02*
X10609467Y-14240531D01*
X10609467Y-14240531D02*
X10599944Y-14259579D01*
X10599944Y-14259579D02*
X10599944Y-14307198D01*
X10599944Y-14307198D02*
X10609467Y-14326246D01*
X10609467Y-14326246D02*
X10618991Y-14335769D01*
X10618991Y-14335769D02*
X10638039Y-14345293D01*
X10638039Y-14345293D02*
X10676134Y-14345293D01*
X10676134Y-14345293D02*
X10695182Y-14335769D01*
X10695182Y-14335769D02*
X10704705Y-14326246D01*
X10704705Y-14326246D02*
X10714229Y-14307198D01*
X10838039Y-14221484D02*
X10857086Y-14221484D01*
X10857086Y-14221484D02*
X10876134Y-14231008D01*
X10876134Y-14231008D02*
X10885658Y-14240531D01*
X10885658Y-14240531D02*
X10895182Y-14259579D01*
X10895182Y-14259579D02*
X10904705Y-14297674D01*
X10904705Y-14297674D02*
X10904705Y-14345293D01*
X10904705Y-14345293D02*
X10895182Y-14383388D01*
X10895182Y-14383388D02*
X10885658Y-14402436D01*
X10885658Y-14402436D02*
X10876134Y-14411960D01*
X10876134Y-14411960D02*
X10857086Y-14421484D01*
X10857086Y-14421484D02*
X10838039Y-14421484D01*
X10838039Y-14421484D02*
X10818991Y-14411960D01*
X10818991Y-14411960D02*
X10809467Y-14402436D01*
X10809467Y-14402436D02*
X10799944Y-14383388D01*
X10799944Y-14383388D02*
X10790420Y-14345293D01*
X10790420Y-14345293D02*
X10790420Y-14297674D01*
X10790420Y-14297674D02*
X10799944Y-14259579D01*
X10799944Y-14259579D02*
X10809467Y-14240531D01*
X10809467Y-14240531D02*
X10818991Y-14231008D01*
X10818991Y-14231008D02*
X10838039Y-14221484D01*
X10990420Y-14421484D02*
X10990420Y-14288150D01*
X10990420Y-14307198D02*
X10999944Y-14297674D01*
X10999944Y-14297674D02*
X11018991Y-14288150D01*
X11018991Y-14288150D02*
X11047563Y-14288150D01*
X11047563Y-14288150D02*
X11066610Y-14297674D01*
X11066610Y-14297674D02*
X11076134Y-14316722D01*
X11076134Y-14316722D02*
X11076134Y-14421484D01*
X11076134Y-14316722D02*
X11085658Y-14297674D01*
X11085658Y-14297674D02*
X11104705Y-14288150D01*
X11104705Y-14288150D02*
X11133277Y-14288150D01*
X11133277Y-14288150D02*
X11152325Y-14297674D01*
X11152325Y-14297674D02*
X11161848Y-14316722D01*
X11161848Y-14316722D02*
X11161848Y-14421484D01*
X11257086Y-14421484D02*
X11257086Y-14288150D01*
X11257086Y-14307198D02*
X11266610Y-14297674D01*
X11266610Y-14297674D02*
X11285658Y-14288150D01*
X11285658Y-14288150D02*
X11314229Y-14288150D01*
X11314229Y-14288150D02*
X11333277Y-14297674D01*
X11333277Y-14297674D02*
X11342801Y-14316722D01*
X11342801Y-14316722D02*
X11342801Y-14421484D01*
X11342801Y-14316722D02*
X11352324Y-14297674D01*
X11352324Y-14297674D02*
X11371372Y-14288150D01*
X11371372Y-14288150D02*
X11399943Y-14288150D01*
X11399943Y-14288150D02*
X11418991Y-14297674D01*
X11418991Y-14297674D02*
X11428515Y-14316722D01*
X11428515Y-14316722D02*
X11428515Y-14421484D01*
X11818991Y-14211960D02*
X11647563Y-14469103D01*
X12076134Y-14221484D02*
X12095182Y-14221484D01*
X12095182Y-14221484D02*
X12114229Y-14231008D01*
X12114229Y-14231008D02*
X12123753Y-14240531D01*
X12123753Y-14240531D02*
X12133277Y-14259579D01*
X12133277Y-14259579D02*
X12142801Y-14297674D01*
X12142801Y-14297674D02*
X12142801Y-14345293D01*
X12142801Y-14345293D02*
X12133277Y-14383388D01*
X12133277Y-14383388D02*
X12123753Y-14402436D01*
X12123753Y-14402436D02*
X12114229Y-14411960D01*
X12114229Y-14411960D02*
X12095182Y-14421484D01*
X12095182Y-14421484D02*
X12076134Y-14421484D01*
X12076134Y-14421484D02*
X12057086Y-14411960D01*
X12057086Y-14411960D02*
X12047563Y-14402436D01*
X12047563Y-14402436D02*
X12038039Y-14383388D01*
X12038039Y-14383388D02*
X12028515Y-14345293D01*
X12028515Y-14345293D02*
X12028515Y-14297674D01*
X12028515Y-14297674D02*
X12038039Y-14259579D01*
X12038039Y-14259579D02*
X12047563Y-14240531D01*
X12047563Y-14240531D02*
X12057086Y-14231008D01*
X12057086Y-14231008D02*
X12076134Y-14221484D01*
X12228515Y-14402436D02*
X12238039Y-14411960D01*
X12238039Y-14411960D02*
X12228515Y-14421484D01*
X12228515Y-14421484D02*
X12218991Y-14411960D01*
X12218991Y-14411960D02*
X12228515Y-14402436D01*
X12228515Y-14402436D02*
X12228515Y-14421484D01*
X12361848Y-14221484D02*
X12380896Y-14221484D01*
X12380896Y-14221484D02*
X12399944Y-14231008D01*
X12399944Y-14231008D02*
X12409467Y-14240531D01*
X12409467Y-14240531D02*
X12418991Y-14259579D01*
X12418991Y-14259579D02*
X12428515Y-14297674D01*
X12428515Y-14297674D02*
X12428515Y-14345293D01*
X12428515Y-14345293D02*
X12418991Y-14383388D01*
X12418991Y-14383388D02*
X12409467Y-14402436D01*
X12409467Y-14402436D02*
X12399944Y-14411960D01*
X12399944Y-14411960D02*
X12380896Y-14421484D01*
X12380896Y-14421484D02*
X12361848Y-14421484D01*
X12361848Y-14421484D02*
X12342801Y-14411960D01*
X12342801Y-14411960D02*
X12333277Y-14402436D01*
X12333277Y-14402436D02*
X12323753Y-14383388D01*
X12323753Y-14383388D02*
X12314229Y-14345293D01*
X12314229Y-14345293D02*
X12314229Y-14297674D01*
X12314229Y-14297674D02*
X12323753Y-14259579D01*
X12323753Y-14259579D02*
X12333277Y-14240531D01*
X12333277Y-14240531D02*
X12342801Y-14231008D01*
X12342801Y-14231008D02*
X12361848Y-14221484D01*
X12599944Y-14288150D02*
X12599944Y-14421484D01*
X12552325Y-14211960D02*
X12504706Y-14354817D01*
X12504706Y-14354817D02*
X12628515Y-14354817D01*
X12695182Y-14240531D02*
X12704706Y-14231008D01*
X12704706Y-14231008D02*
X12723753Y-14221484D01*
X12723753Y-14221484D02*
X12771372Y-14221484D01*
X12771372Y-14221484D02*
X12790420Y-14231008D01*
X12790420Y-14231008D02*
X12799944Y-14240531D01*
X12799944Y-14240531D02*
X12809467Y-14259579D01*
X12809467Y-14259579D02*
X12809467Y-14278627D01*
X12809467Y-14278627D02*
X12799944Y-14307198D01*
X12799944Y-14307198D02*
X12685658Y-14421484D01*
X12685658Y-14421484D02*
X12809467Y-14421484D01*
X12904706Y-14421484D02*
X12942801Y-14421484D01*
X12942801Y-14421484D02*
X12961848Y-14411960D01*
X12961848Y-14411960D02*
X12971372Y-14402436D01*
X12971372Y-14402436D02*
X12990420Y-14373865D01*
X12990420Y-14373865D02*
X12999944Y-14335769D01*
X12999944Y-14335769D02*
X12999944Y-14259579D01*
X12999944Y-14259579D02*
X12990420Y-14240531D01*
X12990420Y-14240531D02*
X12980896Y-14231008D01*
X12980896Y-14231008D02*
X12961848Y-14221484D01*
X12961848Y-14221484D02*
X12923753Y-14221484D01*
X12923753Y-14221484D02*
X12904706Y-14231008D01*
X12904706Y-14231008D02*
X12895182Y-14240531D01*
X12895182Y-14240531D02*
X12885658Y-14259579D01*
X12885658Y-14259579D02*
X12885658Y-14307198D01*
X12885658Y-14307198D02*
X12895182Y-14326246D01*
X12895182Y-14326246D02*
X12904706Y-14335769D01*
X12904706Y-14335769D02*
X12923753Y-14345293D01*
X12923753Y-14345293D02*
X12961848Y-14345293D01*
X12961848Y-14345293D02*
X12980896Y-14335769D01*
X12980896Y-14335769D02*
X12990420Y-14326246D01*
X12990420Y-14326246D02*
X12999944Y-14307198D01*
X13076134Y-14221484D02*
X13076134Y-14259579D01*
X13152325Y-14221484D02*
X13152325Y-14259579D01*
X13447563Y-14497674D02*
X13438039Y-14488150D01*
X13438039Y-14488150D02*
X13418991Y-14459579D01*
X13418991Y-14459579D02*
X13409468Y-14440531D01*
X13409468Y-14440531D02*
X13399944Y-14411960D01*
X13399944Y-14411960D02*
X13390420Y-14364341D01*
X13390420Y-14364341D02*
X13390420Y-14326246D01*
X13390420Y-14326246D02*
X13399944Y-14278627D01*
X13399944Y-14278627D02*
X13409468Y-14250055D01*
X13409468Y-14250055D02*
X13418991Y-14231008D01*
X13418991Y-14231008D02*
X13438039Y-14202436D01*
X13438039Y-14202436D02*
X13447563Y-14192912D01*
X13628515Y-14421484D02*
X13514229Y-14421484D01*
X13571372Y-14421484D02*
X13571372Y-14221484D01*
X13571372Y-14221484D02*
X13552325Y-14250055D01*
X13552325Y-14250055D02*
X13533277Y-14269103D01*
X13533277Y-14269103D02*
X13514229Y-14278627D01*
X13866610Y-14421484D02*
X13866610Y-14221484D01*
X13952325Y-14421484D02*
X13952325Y-14316722D01*
X13952325Y-14316722D02*
X13942801Y-14297674D01*
X13942801Y-14297674D02*
X13923753Y-14288150D01*
X13923753Y-14288150D02*
X13895182Y-14288150D01*
X13895182Y-14288150D02*
X13876134Y-14297674D01*
X13876134Y-14297674D02*
X13866610Y-14307198D01*
X14076134Y-14421484D02*
X14057087Y-14411960D01*
X14057087Y-14411960D02*
X14047563Y-14402436D01*
X14047563Y-14402436D02*
X14038039Y-14383388D01*
X14038039Y-14383388D02*
X14038039Y-14326246D01*
X14038039Y-14326246D02*
X14047563Y-14307198D01*
X14047563Y-14307198D02*
X14057087Y-14297674D01*
X14057087Y-14297674D02*
X14076134Y-14288150D01*
X14076134Y-14288150D02*
X14104706Y-14288150D01*
X14104706Y-14288150D02*
X14123753Y-14297674D01*
X14123753Y-14297674D02*
X14133277Y-14307198D01*
X14133277Y-14307198D02*
X14142801Y-14326246D01*
X14142801Y-14326246D02*
X14142801Y-14383388D01*
X14142801Y-14383388D02*
X14133277Y-14402436D01*
X14133277Y-14402436D02*
X14123753Y-14411960D01*
X14123753Y-14411960D02*
X14104706Y-14421484D01*
X14104706Y-14421484D02*
X14076134Y-14421484D01*
X14257087Y-14421484D02*
X14238039Y-14411960D01*
X14238039Y-14411960D02*
X14228515Y-14392912D01*
X14228515Y-14392912D02*
X14228515Y-14221484D01*
X14409468Y-14411960D02*
X14390420Y-14421484D01*
X14390420Y-14421484D02*
X14352325Y-14421484D01*
X14352325Y-14421484D02*
X14333277Y-14411960D01*
X14333277Y-14411960D02*
X14323753Y-14392912D01*
X14323753Y-14392912D02*
X14323753Y-14316722D01*
X14323753Y-14316722D02*
X14333277Y-14297674D01*
X14333277Y-14297674D02*
X14352325Y-14288150D01*
X14352325Y-14288150D02*
X14390420Y-14288150D01*
X14390420Y-14288150D02*
X14409468Y-14297674D01*
X14409468Y-14297674D02*
X14418991Y-14316722D01*
X14418991Y-14316722D02*
X14418991Y-14335769D01*
X14418991Y-14335769D02*
X14323753Y-14354817D01*
X14485658Y-14497674D02*
X14495182Y-14488150D01*
X14495182Y-14488150D02*
X14514230Y-14459579D01*
X14514230Y-14459579D02*
X14523753Y-14440531D01*
X14523753Y-14440531D02*
X14533277Y-14411960D01*
X14533277Y-14411960D02*
X14542801Y-14364341D01*
X14542801Y-14364341D02*
X14542801Y-14326246D01*
X14542801Y-14326246D02*
X14533277Y-14278627D01*
X14533277Y-14278627D02*
X14523753Y-14250055D01*
X14523753Y-14250055D02*
X14514230Y-14231008D01*
X14514230Y-14231008D02*
X14495182Y-14202436D01*
X14495182Y-14202436D02*
X14485658Y-14192912D01*
D17*
X9762500Y-14539000D02*
X9872500Y-14649000D01*
X9872500Y-14539000D02*
X9762500Y-14649000D01*
X9817500Y-14539000D02*
X9817500Y-14649000D01*
X9762500Y-14594000D02*
X9872500Y-14594000D01*
D11*
X10238039Y-14685484D02*
X10123753Y-14685484D01*
X10180896Y-14685484D02*
X10180896Y-14485484D01*
X10180896Y-14485484D02*
X10161848Y-14514055D01*
X10161848Y-14514055D02*
X10142801Y-14533103D01*
X10142801Y-14533103D02*
X10123753Y-14542627D01*
X10323753Y-14666436D02*
X10333277Y-14675960D01*
X10333277Y-14675960D02*
X10323753Y-14685484D01*
X10323753Y-14685484D02*
X10314229Y-14675960D01*
X10314229Y-14675960D02*
X10323753Y-14666436D01*
X10323753Y-14666436D02*
X10323753Y-14685484D01*
X10523753Y-14685484D02*
X10409467Y-14685484D01*
X10466610Y-14685484D02*
X10466610Y-14485484D01*
X10466610Y-14485484D02*
X10447563Y-14514055D01*
X10447563Y-14514055D02*
X10428515Y-14533103D01*
X10428515Y-14533103D02*
X10409467Y-14542627D01*
X10647563Y-14485484D02*
X10666610Y-14485484D01*
X10666610Y-14485484D02*
X10685658Y-14495008D01*
X10685658Y-14495008D02*
X10695182Y-14504531D01*
X10695182Y-14504531D02*
X10704705Y-14523579D01*
X10704705Y-14523579D02*
X10714229Y-14561674D01*
X10714229Y-14561674D02*
X10714229Y-14609293D01*
X10714229Y-14609293D02*
X10704705Y-14647388D01*
X10704705Y-14647388D02*
X10695182Y-14666436D01*
X10695182Y-14666436D02*
X10685658Y-14675960D01*
X10685658Y-14675960D02*
X10666610Y-14685484D01*
X10666610Y-14685484D02*
X10647563Y-14685484D01*
X10647563Y-14685484D02*
X10628515Y-14675960D01*
X10628515Y-14675960D02*
X10618991Y-14666436D01*
X10618991Y-14666436D02*
X10609467Y-14647388D01*
X10609467Y-14647388D02*
X10599944Y-14609293D01*
X10599944Y-14609293D02*
X10599944Y-14561674D01*
X10599944Y-14561674D02*
X10609467Y-14523579D01*
X10609467Y-14523579D02*
X10618991Y-14504531D01*
X10618991Y-14504531D02*
X10628515Y-14495008D01*
X10628515Y-14495008D02*
X10647563Y-14485484D01*
X10838039Y-14485484D02*
X10857086Y-14485484D01*
X10857086Y-14485484D02*
X10876134Y-14495008D01*
X10876134Y-14495008D02*
X10885658Y-14504531D01*
X10885658Y-14504531D02*
X10895182Y-14523579D01*
X10895182Y-14523579D02*
X10904705Y-14561674D01*
X10904705Y-14561674D02*
X10904705Y-14609293D01*
X10904705Y-14609293D02*
X10895182Y-14647388D01*
X10895182Y-14647388D02*
X10885658Y-14666436D01*
X10885658Y-14666436D02*
X10876134Y-14675960D01*
X10876134Y-14675960D02*
X10857086Y-14685484D01*
X10857086Y-14685484D02*
X10838039Y-14685484D01*
X10838039Y-14685484D02*
X10818991Y-14675960D01*
X10818991Y-14675960D02*
X10809467Y-14666436D01*
X10809467Y-14666436D02*
X10799944Y-14647388D01*
X10799944Y-14647388D02*
X10790420Y-14609293D01*
X10790420Y-14609293D02*
X10790420Y-14561674D01*
X10790420Y-14561674D02*
X10799944Y-14523579D01*
X10799944Y-14523579D02*
X10809467Y-14504531D01*
X10809467Y-14504531D02*
X10818991Y-14495008D01*
X10818991Y-14495008D02*
X10838039Y-14485484D01*
X10990420Y-14685484D02*
X10990420Y-14552150D01*
X10990420Y-14571198D02*
X10999944Y-14561674D01*
X10999944Y-14561674D02*
X11018991Y-14552150D01*
X11018991Y-14552150D02*
X11047563Y-14552150D01*
X11047563Y-14552150D02*
X11066610Y-14561674D01*
X11066610Y-14561674D02*
X11076134Y-14580722D01*
X11076134Y-14580722D02*
X11076134Y-14685484D01*
X11076134Y-14580722D02*
X11085658Y-14561674D01*
X11085658Y-14561674D02*
X11104705Y-14552150D01*
X11104705Y-14552150D02*
X11133277Y-14552150D01*
X11133277Y-14552150D02*
X11152325Y-14561674D01*
X11152325Y-14561674D02*
X11161848Y-14580722D01*
X11161848Y-14580722D02*
X11161848Y-14685484D01*
X11257086Y-14685484D02*
X11257086Y-14552150D01*
X11257086Y-14571198D02*
X11266610Y-14561674D01*
X11266610Y-14561674D02*
X11285658Y-14552150D01*
X11285658Y-14552150D02*
X11314229Y-14552150D01*
X11314229Y-14552150D02*
X11333277Y-14561674D01*
X11333277Y-14561674D02*
X11342801Y-14580722D01*
X11342801Y-14580722D02*
X11342801Y-14685484D01*
X11342801Y-14580722D02*
X11352324Y-14561674D01*
X11352324Y-14561674D02*
X11371372Y-14552150D01*
X11371372Y-14552150D02*
X11399943Y-14552150D01*
X11399943Y-14552150D02*
X11418991Y-14561674D01*
X11418991Y-14561674D02*
X11428515Y-14580722D01*
X11428515Y-14580722D02*
X11428515Y-14685484D01*
X11818991Y-14475960D02*
X11647563Y-14733103D01*
X12076134Y-14485484D02*
X12095182Y-14485484D01*
X12095182Y-14485484D02*
X12114229Y-14495008D01*
X12114229Y-14495008D02*
X12123753Y-14504531D01*
X12123753Y-14504531D02*
X12133277Y-14523579D01*
X12133277Y-14523579D02*
X12142801Y-14561674D01*
X12142801Y-14561674D02*
X12142801Y-14609293D01*
X12142801Y-14609293D02*
X12133277Y-14647388D01*
X12133277Y-14647388D02*
X12123753Y-14666436D01*
X12123753Y-14666436D02*
X12114229Y-14675960D01*
X12114229Y-14675960D02*
X12095182Y-14685484D01*
X12095182Y-14685484D02*
X12076134Y-14685484D01*
X12076134Y-14685484D02*
X12057086Y-14675960D01*
X12057086Y-14675960D02*
X12047563Y-14666436D01*
X12047563Y-14666436D02*
X12038039Y-14647388D01*
X12038039Y-14647388D02*
X12028515Y-14609293D01*
X12028515Y-14609293D02*
X12028515Y-14561674D01*
X12028515Y-14561674D02*
X12038039Y-14523579D01*
X12038039Y-14523579D02*
X12047563Y-14504531D01*
X12047563Y-14504531D02*
X12057086Y-14495008D01*
X12057086Y-14495008D02*
X12076134Y-14485484D01*
X12228515Y-14666436D02*
X12238039Y-14675960D01*
X12238039Y-14675960D02*
X12228515Y-14685484D01*
X12228515Y-14685484D02*
X12218991Y-14675960D01*
X12218991Y-14675960D02*
X12228515Y-14666436D01*
X12228515Y-14666436D02*
X12228515Y-14685484D01*
X12361848Y-14485484D02*
X12380896Y-14485484D01*
X12380896Y-14485484D02*
X12399944Y-14495008D01*
X12399944Y-14495008D02*
X12409467Y-14504531D01*
X12409467Y-14504531D02*
X12418991Y-14523579D01*
X12418991Y-14523579D02*
X12428515Y-14561674D01*
X12428515Y-14561674D02*
X12428515Y-14609293D01*
X12428515Y-14609293D02*
X12418991Y-14647388D01*
X12418991Y-14647388D02*
X12409467Y-14666436D01*
X12409467Y-14666436D02*
X12399944Y-14675960D01*
X12399944Y-14675960D02*
X12380896Y-14685484D01*
X12380896Y-14685484D02*
X12361848Y-14685484D01*
X12361848Y-14685484D02*
X12342801Y-14675960D01*
X12342801Y-14675960D02*
X12333277Y-14666436D01*
X12333277Y-14666436D02*
X12323753Y-14647388D01*
X12323753Y-14647388D02*
X12314229Y-14609293D01*
X12314229Y-14609293D02*
X12314229Y-14561674D01*
X12314229Y-14561674D02*
X12323753Y-14523579D01*
X12323753Y-14523579D02*
X12333277Y-14504531D01*
X12333277Y-14504531D02*
X12342801Y-14495008D01*
X12342801Y-14495008D02*
X12361848Y-14485484D01*
X12599944Y-14552150D02*
X12599944Y-14685484D01*
X12552325Y-14475960D02*
X12504706Y-14618817D01*
X12504706Y-14618817D02*
X12628515Y-14618817D01*
X12685658Y-14485484D02*
X12809467Y-14485484D01*
X12809467Y-14485484D02*
X12742801Y-14561674D01*
X12742801Y-14561674D02*
X12771372Y-14561674D01*
X12771372Y-14561674D02*
X12790420Y-14571198D01*
X12790420Y-14571198D02*
X12799944Y-14580722D01*
X12799944Y-14580722D02*
X12809467Y-14599769D01*
X12809467Y-14599769D02*
X12809467Y-14647388D01*
X12809467Y-14647388D02*
X12799944Y-14666436D01*
X12799944Y-14666436D02*
X12790420Y-14675960D01*
X12790420Y-14675960D02*
X12771372Y-14685484D01*
X12771372Y-14685484D02*
X12714229Y-14685484D01*
X12714229Y-14685484D02*
X12695182Y-14675960D01*
X12695182Y-14675960D02*
X12685658Y-14666436D01*
X12876134Y-14485484D02*
X12999944Y-14485484D01*
X12999944Y-14485484D02*
X12933277Y-14561674D01*
X12933277Y-14561674D02*
X12961848Y-14561674D01*
X12961848Y-14561674D02*
X12980896Y-14571198D01*
X12980896Y-14571198D02*
X12990420Y-14580722D01*
X12990420Y-14580722D02*
X12999944Y-14599769D01*
X12999944Y-14599769D02*
X12999944Y-14647388D01*
X12999944Y-14647388D02*
X12990420Y-14666436D01*
X12990420Y-14666436D02*
X12980896Y-14675960D01*
X12980896Y-14675960D02*
X12961848Y-14685484D01*
X12961848Y-14685484D02*
X12904706Y-14685484D01*
X12904706Y-14685484D02*
X12885658Y-14675960D01*
X12885658Y-14675960D02*
X12876134Y-14666436D01*
X13076134Y-14485484D02*
X13076134Y-14523579D01*
X13152325Y-14485484D02*
X13152325Y-14523579D01*
X13447563Y-14761674D02*
X13438039Y-14752150D01*
X13438039Y-14752150D02*
X13418991Y-14723579D01*
X13418991Y-14723579D02*
X13409468Y-14704531D01*
X13409468Y-14704531D02*
X13399944Y-14675960D01*
X13399944Y-14675960D02*
X13390420Y-14628341D01*
X13390420Y-14628341D02*
X13390420Y-14590246D01*
X13390420Y-14590246D02*
X13399944Y-14542627D01*
X13399944Y-14542627D02*
X13409468Y-14514055D01*
X13409468Y-14514055D02*
X13418991Y-14495008D01*
X13418991Y-14495008D02*
X13438039Y-14466436D01*
X13438039Y-14466436D02*
X13447563Y-14456912D01*
X13609468Y-14552150D02*
X13609468Y-14685484D01*
X13561848Y-14475960D02*
X13514229Y-14618817D01*
X13514229Y-14618817D02*
X13638039Y-14618817D01*
X13866610Y-14685484D02*
X13866610Y-14485484D01*
X13952325Y-14685484D02*
X13952325Y-14580722D01*
X13952325Y-14580722D02*
X13942801Y-14561674D01*
X13942801Y-14561674D02*
X13923753Y-14552150D01*
X13923753Y-14552150D02*
X13895182Y-14552150D01*
X13895182Y-14552150D02*
X13876134Y-14561674D01*
X13876134Y-14561674D02*
X13866610Y-14571198D01*
X14076134Y-14685484D02*
X14057087Y-14675960D01*
X14057087Y-14675960D02*
X14047563Y-14666436D01*
X14047563Y-14666436D02*
X14038039Y-14647388D01*
X14038039Y-14647388D02*
X14038039Y-14590246D01*
X14038039Y-14590246D02*
X14047563Y-14571198D01*
X14047563Y-14571198D02*
X14057087Y-14561674D01*
X14057087Y-14561674D02*
X14076134Y-14552150D01*
X14076134Y-14552150D02*
X14104706Y-14552150D01*
X14104706Y-14552150D02*
X14123753Y-14561674D01*
X14123753Y-14561674D02*
X14133277Y-14571198D01*
X14133277Y-14571198D02*
X14142801Y-14590246D01*
X14142801Y-14590246D02*
X14142801Y-14647388D01*
X14142801Y-14647388D02*
X14133277Y-14666436D01*
X14133277Y-14666436D02*
X14123753Y-14675960D01*
X14123753Y-14675960D02*
X14104706Y-14685484D01*
X14104706Y-14685484D02*
X14076134Y-14685484D01*
X14257087Y-14685484D02*
X14238039Y-14675960D01*
X14238039Y-14675960D02*
X14228515Y-14656912D01*
X14228515Y-14656912D02*
X14228515Y-14485484D01*
X14409468Y-14675960D02*
X14390420Y-14685484D01*
X14390420Y-14685484D02*
X14352325Y-14685484D01*
X14352325Y-14685484D02*
X14333277Y-14675960D01*
X14333277Y-14675960D02*
X14323753Y-14656912D01*
X14323753Y-14656912D02*
X14323753Y-14580722D01*
X14323753Y-14580722D02*
X14333277Y-14561674D01*
X14333277Y-14561674D02*
X14352325Y-14552150D01*
X14352325Y-14552150D02*
X14390420Y-14552150D01*
X14390420Y-14552150D02*
X14409468Y-14561674D01*
X14409468Y-14561674D02*
X14418991Y-14580722D01*
X14418991Y-14580722D02*
X14418991Y-14599769D01*
X14418991Y-14599769D02*
X14323753Y-14618817D01*
X14495182Y-14675960D02*
X14514230Y-14685484D01*
X14514230Y-14685484D02*
X14552325Y-14685484D01*
X14552325Y-14685484D02*
X14571372Y-14675960D01*
X14571372Y-14675960D02*
X14580896Y-14656912D01*
X14580896Y-14656912D02*
X14580896Y-14647388D01*
X14580896Y-14647388D02*
X14571372Y-14628341D01*
X14571372Y-14628341D02*
X14552325Y-14618817D01*
X14552325Y-14618817D02*
X14523753Y-14618817D01*
X14523753Y-14618817D02*
X14504706Y-14609293D01*
X14504706Y-14609293D02*
X14495182Y-14590246D01*
X14495182Y-14590246D02*
X14495182Y-14580722D01*
X14495182Y-14580722D02*
X14504706Y-14561674D01*
X14504706Y-14561674D02*
X14523753Y-14552150D01*
X14523753Y-14552150D02*
X14552325Y-14552150D01*
X14552325Y-14552150D02*
X14571372Y-14561674D01*
X14647563Y-14761674D02*
X14657087Y-14752150D01*
X14657087Y-14752150D02*
X14676134Y-14723579D01*
X14676134Y-14723579D02*
X14685658Y-14704531D01*
X14685658Y-14704531D02*
X14695182Y-14675960D01*
X14695182Y-14675960D02*
X14704706Y-14628341D01*
X14704706Y-14628341D02*
X14704706Y-14590246D01*
X14704706Y-14590246D02*
X14695182Y-14542627D01*
X14695182Y-14542627D02*
X14685658Y-14514055D01*
X14685658Y-14514055D02*
X14676134Y-14495008D01*
X14676134Y-14495008D02*
X14657087Y-14466436D01*
X14657087Y-14466436D02*
X14647563Y-14456912D01*
X9672500Y-14758000D02*
X9872500Y-14958000D01*
X9872500Y-14758000D02*
X9672500Y-14958000D01*
X9843211Y-14928711D02*
X9843211Y-14787289D01*
X9701789Y-14787289D01*
X9701789Y-14928711D01*
X9843211Y-14928711D01*
X10123753Y-14768531D02*
X10133277Y-14759008D01*
X10133277Y-14759008D02*
X10152324Y-14749484D01*
X10152324Y-14749484D02*
X10199944Y-14749484D01*
X10199944Y-14749484D02*
X10218991Y-14759008D01*
X10218991Y-14759008D02*
X10228515Y-14768531D01*
X10228515Y-14768531D02*
X10238039Y-14787579D01*
X10238039Y-14787579D02*
X10238039Y-14806627D01*
X10238039Y-14806627D02*
X10228515Y-14835198D01*
X10228515Y-14835198D02*
X10114229Y-14949484D01*
X10114229Y-14949484D02*
X10238039Y-14949484D01*
X10323753Y-14930436D02*
X10333277Y-14939960D01*
X10333277Y-14939960D02*
X10323753Y-14949484D01*
X10323753Y-14949484D02*
X10314229Y-14939960D01*
X10314229Y-14939960D02*
X10323753Y-14930436D01*
X10323753Y-14930436D02*
X10323753Y-14949484D01*
X10523753Y-14949484D02*
X10409467Y-14949484D01*
X10466610Y-14949484D02*
X10466610Y-14749484D01*
X10466610Y-14749484D02*
X10447563Y-14778055D01*
X10447563Y-14778055D02*
X10428515Y-14797103D01*
X10428515Y-14797103D02*
X10409467Y-14806627D01*
X10599944Y-14768531D02*
X10609467Y-14759008D01*
X10609467Y-14759008D02*
X10628515Y-14749484D01*
X10628515Y-14749484D02*
X10676134Y-14749484D01*
X10676134Y-14749484D02*
X10695182Y-14759008D01*
X10695182Y-14759008D02*
X10704705Y-14768531D01*
X10704705Y-14768531D02*
X10714229Y-14787579D01*
X10714229Y-14787579D02*
X10714229Y-14806627D01*
X10714229Y-14806627D02*
X10704705Y-14835198D01*
X10704705Y-14835198D02*
X10590420Y-14949484D01*
X10590420Y-14949484D02*
X10714229Y-14949484D01*
X10838039Y-14749484D02*
X10857086Y-14749484D01*
X10857086Y-14749484D02*
X10876134Y-14759008D01*
X10876134Y-14759008D02*
X10885658Y-14768531D01*
X10885658Y-14768531D02*
X10895182Y-14787579D01*
X10895182Y-14787579D02*
X10904705Y-14825674D01*
X10904705Y-14825674D02*
X10904705Y-14873293D01*
X10904705Y-14873293D02*
X10895182Y-14911388D01*
X10895182Y-14911388D02*
X10885658Y-14930436D01*
X10885658Y-14930436D02*
X10876134Y-14939960D01*
X10876134Y-14939960D02*
X10857086Y-14949484D01*
X10857086Y-14949484D02*
X10838039Y-14949484D01*
X10838039Y-14949484D02*
X10818991Y-14939960D01*
X10818991Y-14939960D02*
X10809467Y-14930436D01*
X10809467Y-14930436D02*
X10799944Y-14911388D01*
X10799944Y-14911388D02*
X10790420Y-14873293D01*
X10790420Y-14873293D02*
X10790420Y-14825674D01*
X10790420Y-14825674D02*
X10799944Y-14787579D01*
X10799944Y-14787579D02*
X10809467Y-14768531D01*
X10809467Y-14768531D02*
X10818991Y-14759008D01*
X10818991Y-14759008D02*
X10838039Y-14749484D01*
X10990420Y-14949484D02*
X10990420Y-14816150D01*
X10990420Y-14835198D02*
X10999944Y-14825674D01*
X10999944Y-14825674D02*
X11018991Y-14816150D01*
X11018991Y-14816150D02*
X11047563Y-14816150D01*
X11047563Y-14816150D02*
X11066610Y-14825674D01*
X11066610Y-14825674D02*
X11076134Y-14844722D01*
X11076134Y-14844722D02*
X11076134Y-14949484D01*
X11076134Y-14844722D02*
X11085658Y-14825674D01*
X11085658Y-14825674D02*
X11104705Y-14816150D01*
X11104705Y-14816150D02*
X11133277Y-14816150D01*
X11133277Y-14816150D02*
X11152325Y-14825674D01*
X11152325Y-14825674D02*
X11161848Y-14844722D01*
X11161848Y-14844722D02*
X11161848Y-14949484D01*
X11257086Y-14949484D02*
X11257086Y-14816150D01*
X11257086Y-14835198D02*
X11266610Y-14825674D01*
X11266610Y-14825674D02*
X11285658Y-14816150D01*
X11285658Y-14816150D02*
X11314229Y-14816150D01*
X11314229Y-14816150D02*
X11333277Y-14825674D01*
X11333277Y-14825674D02*
X11342801Y-14844722D01*
X11342801Y-14844722D02*
X11342801Y-14949484D01*
X11342801Y-14844722D02*
X11352324Y-14825674D01*
X11352324Y-14825674D02*
X11371372Y-14816150D01*
X11371372Y-14816150D02*
X11399943Y-14816150D01*
X11399943Y-14816150D02*
X11418991Y-14825674D01*
X11418991Y-14825674D02*
X11428515Y-14844722D01*
X11428515Y-14844722D02*
X11428515Y-14949484D01*
X11818991Y-14739960D02*
X11647563Y-14997103D01*
X12076134Y-14749484D02*
X12095182Y-14749484D01*
X12095182Y-14749484D02*
X12114229Y-14759008D01*
X12114229Y-14759008D02*
X12123753Y-14768531D01*
X12123753Y-14768531D02*
X12133277Y-14787579D01*
X12133277Y-14787579D02*
X12142801Y-14825674D01*
X12142801Y-14825674D02*
X12142801Y-14873293D01*
X12142801Y-14873293D02*
X12133277Y-14911388D01*
X12133277Y-14911388D02*
X12123753Y-14930436D01*
X12123753Y-14930436D02*
X12114229Y-14939960D01*
X12114229Y-14939960D02*
X12095182Y-14949484D01*
X12095182Y-14949484D02*
X12076134Y-14949484D01*
X12076134Y-14949484D02*
X12057086Y-14939960D01*
X12057086Y-14939960D02*
X12047563Y-14930436D01*
X12047563Y-14930436D02*
X12038039Y-14911388D01*
X12038039Y-14911388D02*
X12028515Y-14873293D01*
X12028515Y-14873293D02*
X12028515Y-14825674D01*
X12028515Y-14825674D02*
X12038039Y-14787579D01*
X12038039Y-14787579D02*
X12047563Y-14768531D01*
X12047563Y-14768531D02*
X12057086Y-14759008D01*
X12057086Y-14759008D02*
X12076134Y-14749484D01*
X12228515Y-14930436D02*
X12238039Y-14939960D01*
X12238039Y-14939960D02*
X12228515Y-14949484D01*
X12228515Y-14949484D02*
X12218991Y-14939960D01*
X12218991Y-14939960D02*
X12228515Y-14930436D01*
X12228515Y-14930436D02*
X12228515Y-14949484D01*
X12361848Y-14749484D02*
X12380896Y-14749484D01*
X12380896Y-14749484D02*
X12399944Y-14759008D01*
X12399944Y-14759008D02*
X12409467Y-14768531D01*
X12409467Y-14768531D02*
X12418991Y-14787579D01*
X12418991Y-14787579D02*
X12428515Y-14825674D01*
X12428515Y-14825674D02*
X12428515Y-14873293D01*
X12428515Y-14873293D02*
X12418991Y-14911388D01*
X12418991Y-14911388D02*
X12409467Y-14930436D01*
X12409467Y-14930436D02*
X12399944Y-14939960D01*
X12399944Y-14939960D02*
X12380896Y-14949484D01*
X12380896Y-14949484D02*
X12361848Y-14949484D01*
X12361848Y-14949484D02*
X12342801Y-14939960D01*
X12342801Y-14939960D02*
X12333277Y-14930436D01*
X12333277Y-14930436D02*
X12323753Y-14911388D01*
X12323753Y-14911388D02*
X12314229Y-14873293D01*
X12314229Y-14873293D02*
X12314229Y-14825674D01*
X12314229Y-14825674D02*
X12323753Y-14787579D01*
X12323753Y-14787579D02*
X12333277Y-14768531D01*
X12333277Y-14768531D02*
X12342801Y-14759008D01*
X12342801Y-14759008D02*
X12361848Y-14749484D01*
X12542801Y-14835198D02*
X12523753Y-14825674D01*
X12523753Y-14825674D02*
X12514229Y-14816150D01*
X12514229Y-14816150D02*
X12504706Y-14797103D01*
X12504706Y-14797103D02*
X12504706Y-14787579D01*
X12504706Y-14787579D02*
X12514229Y-14768531D01*
X12514229Y-14768531D02*
X12523753Y-14759008D01*
X12523753Y-14759008D02*
X12542801Y-14749484D01*
X12542801Y-14749484D02*
X12580896Y-14749484D01*
X12580896Y-14749484D02*
X12599944Y-14759008D01*
X12599944Y-14759008D02*
X12609467Y-14768531D01*
X12609467Y-14768531D02*
X12618991Y-14787579D01*
X12618991Y-14787579D02*
X12618991Y-14797103D01*
X12618991Y-14797103D02*
X12609467Y-14816150D01*
X12609467Y-14816150D02*
X12599944Y-14825674D01*
X12599944Y-14825674D02*
X12580896Y-14835198D01*
X12580896Y-14835198D02*
X12542801Y-14835198D01*
X12542801Y-14835198D02*
X12523753Y-14844722D01*
X12523753Y-14844722D02*
X12514229Y-14854246D01*
X12514229Y-14854246D02*
X12504706Y-14873293D01*
X12504706Y-14873293D02*
X12504706Y-14911388D01*
X12504706Y-14911388D02*
X12514229Y-14930436D01*
X12514229Y-14930436D02*
X12523753Y-14939960D01*
X12523753Y-14939960D02*
X12542801Y-14949484D01*
X12542801Y-14949484D02*
X12580896Y-14949484D01*
X12580896Y-14949484D02*
X12599944Y-14939960D01*
X12599944Y-14939960D02*
X12609467Y-14930436D01*
X12609467Y-14930436D02*
X12618991Y-14911388D01*
X12618991Y-14911388D02*
X12618991Y-14873293D01*
X12618991Y-14873293D02*
X12609467Y-14854246D01*
X12609467Y-14854246D02*
X12599944Y-14844722D01*
X12599944Y-14844722D02*
X12580896Y-14835198D01*
X12685658Y-14749484D02*
X12809467Y-14749484D01*
X12809467Y-14749484D02*
X12742801Y-14825674D01*
X12742801Y-14825674D02*
X12771372Y-14825674D01*
X12771372Y-14825674D02*
X12790420Y-14835198D01*
X12790420Y-14835198D02*
X12799944Y-14844722D01*
X12799944Y-14844722D02*
X12809467Y-14863769D01*
X12809467Y-14863769D02*
X12809467Y-14911388D01*
X12809467Y-14911388D02*
X12799944Y-14930436D01*
X12799944Y-14930436D02*
X12790420Y-14939960D01*
X12790420Y-14939960D02*
X12771372Y-14949484D01*
X12771372Y-14949484D02*
X12714229Y-14949484D01*
X12714229Y-14949484D02*
X12695182Y-14939960D01*
X12695182Y-14939960D02*
X12685658Y-14930436D01*
X12990420Y-14749484D02*
X12895182Y-14749484D01*
X12895182Y-14749484D02*
X12885658Y-14844722D01*
X12885658Y-14844722D02*
X12895182Y-14835198D01*
X12895182Y-14835198D02*
X12914229Y-14825674D01*
X12914229Y-14825674D02*
X12961848Y-14825674D01*
X12961848Y-14825674D02*
X12980896Y-14835198D01*
X12980896Y-14835198D02*
X12990420Y-14844722D01*
X12990420Y-14844722D02*
X12999944Y-14863769D01*
X12999944Y-14863769D02*
X12999944Y-14911388D01*
X12999944Y-14911388D02*
X12990420Y-14930436D01*
X12990420Y-14930436D02*
X12980896Y-14939960D01*
X12980896Y-14939960D02*
X12961848Y-14949484D01*
X12961848Y-14949484D02*
X12914229Y-14949484D01*
X12914229Y-14949484D02*
X12895182Y-14939960D01*
X12895182Y-14939960D02*
X12885658Y-14930436D01*
X13076134Y-14749484D02*
X13076134Y-14787579D01*
X13152325Y-14749484D02*
X13152325Y-14787579D01*
X13447563Y-15025674D02*
X13438039Y-15016150D01*
X13438039Y-15016150D02*
X13418991Y-14987579D01*
X13418991Y-14987579D02*
X13409468Y-14968531D01*
X13409468Y-14968531D02*
X13399944Y-14939960D01*
X13399944Y-14939960D02*
X13390420Y-14892341D01*
X13390420Y-14892341D02*
X13390420Y-14854246D01*
X13390420Y-14854246D02*
X13399944Y-14806627D01*
X13399944Y-14806627D02*
X13409468Y-14778055D01*
X13409468Y-14778055D02*
X13418991Y-14759008D01*
X13418991Y-14759008D02*
X13438039Y-14730436D01*
X13438039Y-14730436D02*
X13447563Y-14720912D01*
X13628515Y-14949484D02*
X13514229Y-14949484D01*
X13571372Y-14949484D02*
X13571372Y-14749484D01*
X13571372Y-14749484D02*
X13552325Y-14778055D01*
X13552325Y-14778055D02*
X13533277Y-14797103D01*
X13533277Y-14797103D02*
X13514229Y-14806627D01*
X13866610Y-14949484D02*
X13866610Y-14749484D01*
X13952325Y-14949484D02*
X13952325Y-14844722D01*
X13952325Y-14844722D02*
X13942801Y-14825674D01*
X13942801Y-14825674D02*
X13923753Y-14816150D01*
X13923753Y-14816150D02*
X13895182Y-14816150D01*
X13895182Y-14816150D02*
X13876134Y-14825674D01*
X13876134Y-14825674D02*
X13866610Y-14835198D01*
X14076134Y-14949484D02*
X14057087Y-14939960D01*
X14057087Y-14939960D02*
X14047563Y-14930436D01*
X14047563Y-14930436D02*
X14038039Y-14911388D01*
X14038039Y-14911388D02*
X14038039Y-14854246D01*
X14038039Y-14854246D02*
X14047563Y-14835198D01*
X14047563Y-14835198D02*
X14057087Y-14825674D01*
X14057087Y-14825674D02*
X14076134Y-14816150D01*
X14076134Y-14816150D02*
X14104706Y-14816150D01*
X14104706Y-14816150D02*
X14123753Y-14825674D01*
X14123753Y-14825674D02*
X14133277Y-14835198D01*
X14133277Y-14835198D02*
X14142801Y-14854246D01*
X14142801Y-14854246D02*
X14142801Y-14911388D01*
X14142801Y-14911388D02*
X14133277Y-14930436D01*
X14133277Y-14930436D02*
X14123753Y-14939960D01*
X14123753Y-14939960D02*
X14104706Y-14949484D01*
X14104706Y-14949484D02*
X14076134Y-14949484D01*
X14257087Y-14949484D02*
X14238039Y-14939960D01*
X14238039Y-14939960D02*
X14228515Y-14920912D01*
X14228515Y-14920912D02*
X14228515Y-14749484D01*
X14409468Y-14939960D02*
X14390420Y-14949484D01*
X14390420Y-14949484D02*
X14352325Y-14949484D01*
X14352325Y-14949484D02*
X14333277Y-14939960D01*
X14333277Y-14939960D02*
X14323753Y-14920912D01*
X14323753Y-14920912D02*
X14323753Y-14844722D01*
X14323753Y-14844722D02*
X14333277Y-14825674D01*
X14333277Y-14825674D02*
X14352325Y-14816150D01*
X14352325Y-14816150D02*
X14390420Y-14816150D01*
X14390420Y-14816150D02*
X14409468Y-14825674D01*
X14409468Y-14825674D02*
X14418991Y-14844722D01*
X14418991Y-14844722D02*
X14418991Y-14863769D01*
X14418991Y-14863769D02*
X14323753Y-14882817D01*
X14485658Y-15025674D02*
X14495182Y-15016150D01*
X14495182Y-15016150D02*
X14514230Y-14987579D01*
X14514230Y-14987579D02*
X14523753Y-14968531D01*
X14523753Y-14968531D02*
X14533277Y-14939960D01*
X14533277Y-14939960D02*
X14542801Y-14892341D01*
X14542801Y-14892341D02*
X14542801Y-14854246D01*
X14542801Y-14854246D02*
X14533277Y-14806627D01*
X14533277Y-14806627D02*
X14523753Y-14778055D01*
X14523753Y-14778055D02*
X14514230Y-14759008D01*
X14514230Y-14759008D02*
X14495182Y-14730436D01*
X14495182Y-14730436D02*
X14485658Y-14720912D01*
D15*
X9782500Y-15133000D02*
X9872500Y-15223000D01*
X9872500Y-15133000D02*
X9782500Y-15223000D01*
X9827500Y-15223000D02*
X9872500Y-15178000D01*
X9827500Y-15133000D01*
X9782500Y-15178000D01*
X9827500Y-15223000D01*
D11*
X10171372Y-15069484D02*
X10190420Y-15069484D01*
X10190420Y-15069484D02*
X10209467Y-15079008D01*
X10209467Y-15079008D02*
X10218991Y-15088531D01*
X10218991Y-15088531D02*
X10228515Y-15107579D01*
X10228515Y-15107579D02*
X10238039Y-15145674D01*
X10238039Y-15145674D02*
X10238039Y-15193293D01*
X10238039Y-15193293D02*
X10228515Y-15231388D01*
X10228515Y-15231388D02*
X10218991Y-15250436D01*
X10218991Y-15250436D02*
X10209467Y-15259960D01*
X10209467Y-15259960D02*
X10190420Y-15269484D01*
X10190420Y-15269484D02*
X10171372Y-15269484D01*
X10171372Y-15269484D02*
X10152324Y-15259960D01*
X10152324Y-15259960D02*
X10142801Y-15250436D01*
X10142801Y-15250436D02*
X10133277Y-15231388D01*
X10133277Y-15231388D02*
X10123753Y-15193293D01*
X10123753Y-15193293D02*
X10123753Y-15145674D01*
X10123753Y-15145674D02*
X10133277Y-15107579D01*
X10133277Y-15107579D02*
X10142801Y-15088531D01*
X10142801Y-15088531D02*
X10152324Y-15079008D01*
X10152324Y-15079008D02*
X10171372Y-15069484D01*
X10323753Y-15250436D02*
X10333277Y-15259960D01*
X10333277Y-15259960D02*
X10323753Y-15269484D01*
X10323753Y-15269484D02*
X10314229Y-15259960D01*
X10314229Y-15259960D02*
X10323753Y-15250436D01*
X10323753Y-15250436D02*
X10323753Y-15269484D01*
X10428515Y-15269484D02*
X10466610Y-15269484D01*
X10466610Y-15269484D02*
X10485658Y-15259960D01*
X10485658Y-15259960D02*
X10495182Y-15250436D01*
X10495182Y-15250436D02*
X10514229Y-15221865D01*
X10514229Y-15221865D02*
X10523753Y-15183769D01*
X10523753Y-15183769D02*
X10523753Y-15107579D01*
X10523753Y-15107579D02*
X10514229Y-15088531D01*
X10514229Y-15088531D02*
X10504705Y-15079008D01*
X10504705Y-15079008D02*
X10485658Y-15069484D01*
X10485658Y-15069484D02*
X10447563Y-15069484D01*
X10447563Y-15069484D02*
X10428515Y-15079008D01*
X10428515Y-15079008D02*
X10418991Y-15088531D01*
X10418991Y-15088531D02*
X10409467Y-15107579D01*
X10409467Y-15107579D02*
X10409467Y-15155198D01*
X10409467Y-15155198D02*
X10418991Y-15174246D01*
X10418991Y-15174246D02*
X10428515Y-15183769D01*
X10428515Y-15183769D02*
X10447563Y-15193293D01*
X10447563Y-15193293D02*
X10485658Y-15193293D01*
X10485658Y-15193293D02*
X10504705Y-15183769D01*
X10504705Y-15183769D02*
X10514229Y-15174246D01*
X10514229Y-15174246D02*
X10523753Y-15155198D01*
X10647563Y-15069484D02*
X10666610Y-15069484D01*
X10666610Y-15069484D02*
X10685658Y-15079008D01*
X10685658Y-15079008D02*
X10695182Y-15088531D01*
X10695182Y-15088531D02*
X10704705Y-15107579D01*
X10704705Y-15107579D02*
X10714229Y-15145674D01*
X10714229Y-15145674D02*
X10714229Y-15193293D01*
X10714229Y-15193293D02*
X10704705Y-15231388D01*
X10704705Y-15231388D02*
X10695182Y-15250436D01*
X10695182Y-15250436D02*
X10685658Y-15259960D01*
X10685658Y-15259960D02*
X10666610Y-15269484D01*
X10666610Y-15269484D02*
X10647563Y-15269484D01*
X10647563Y-15269484D02*
X10628515Y-15259960D01*
X10628515Y-15259960D02*
X10618991Y-15250436D01*
X10618991Y-15250436D02*
X10609467Y-15231388D01*
X10609467Y-15231388D02*
X10599944Y-15193293D01*
X10599944Y-15193293D02*
X10599944Y-15145674D01*
X10599944Y-15145674D02*
X10609467Y-15107579D01*
X10609467Y-15107579D02*
X10618991Y-15088531D01*
X10618991Y-15088531D02*
X10628515Y-15079008D01*
X10628515Y-15079008D02*
X10647563Y-15069484D01*
X10838039Y-15069484D02*
X10857086Y-15069484D01*
X10857086Y-15069484D02*
X10876134Y-15079008D01*
X10876134Y-15079008D02*
X10885658Y-15088531D01*
X10885658Y-15088531D02*
X10895182Y-15107579D01*
X10895182Y-15107579D02*
X10904705Y-15145674D01*
X10904705Y-15145674D02*
X10904705Y-15193293D01*
X10904705Y-15193293D02*
X10895182Y-15231388D01*
X10895182Y-15231388D02*
X10885658Y-15250436D01*
X10885658Y-15250436D02*
X10876134Y-15259960D01*
X10876134Y-15259960D02*
X10857086Y-15269484D01*
X10857086Y-15269484D02*
X10838039Y-15269484D01*
X10838039Y-15269484D02*
X10818991Y-15259960D01*
X10818991Y-15259960D02*
X10809467Y-15250436D01*
X10809467Y-15250436D02*
X10799944Y-15231388D01*
X10799944Y-15231388D02*
X10790420Y-15193293D01*
X10790420Y-15193293D02*
X10790420Y-15145674D01*
X10790420Y-15145674D02*
X10799944Y-15107579D01*
X10799944Y-15107579D02*
X10809467Y-15088531D01*
X10809467Y-15088531D02*
X10818991Y-15079008D01*
X10818991Y-15079008D02*
X10838039Y-15069484D01*
X10990420Y-15269484D02*
X10990420Y-15136150D01*
X10990420Y-15155198D02*
X10999944Y-15145674D01*
X10999944Y-15145674D02*
X11018991Y-15136150D01*
X11018991Y-15136150D02*
X11047563Y-15136150D01*
X11047563Y-15136150D02*
X11066610Y-15145674D01*
X11066610Y-15145674D02*
X11076134Y-15164722D01*
X11076134Y-15164722D02*
X11076134Y-15269484D01*
X11076134Y-15164722D02*
X11085658Y-15145674D01*
X11085658Y-15145674D02*
X11104705Y-15136150D01*
X11104705Y-15136150D02*
X11133277Y-15136150D01*
X11133277Y-15136150D02*
X11152325Y-15145674D01*
X11152325Y-15145674D02*
X11161848Y-15164722D01*
X11161848Y-15164722D02*
X11161848Y-15269484D01*
X11257086Y-15269484D02*
X11257086Y-15136150D01*
X11257086Y-15155198D02*
X11266610Y-15145674D01*
X11266610Y-15145674D02*
X11285658Y-15136150D01*
X11285658Y-15136150D02*
X11314229Y-15136150D01*
X11314229Y-15136150D02*
X11333277Y-15145674D01*
X11333277Y-15145674D02*
X11342801Y-15164722D01*
X11342801Y-15164722D02*
X11342801Y-15269484D01*
X11342801Y-15164722D02*
X11352324Y-15145674D01*
X11352324Y-15145674D02*
X11371372Y-15136150D01*
X11371372Y-15136150D02*
X11399943Y-15136150D01*
X11399943Y-15136150D02*
X11418991Y-15145674D01*
X11418991Y-15145674D02*
X11428515Y-15164722D01*
X11428515Y-15164722D02*
X11428515Y-15269484D01*
X11818991Y-15059960D02*
X11647563Y-15317103D01*
X12076134Y-15069484D02*
X12095182Y-15069484D01*
X12095182Y-15069484D02*
X12114229Y-15079008D01*
X12114229Y-15079008D02*
X12123753Y-15088531D01*
X12123753Y-15088531D02*
X12133277Y-15107579D01*
X12133277Y-15107579D02*
X12142801Y-15145674D01*
X12142801Y-15145674D02*
X12142801Y-15193293D01*
X12142801Y-15193293D02*
X12133277Y-15231388D01*
X12133277Y-15231388D02*
X12123753Y-15250436D01*
X12123753Y-15250436D02*
X12114229Y-15259960D01*
X12114229Y-15259960D02*
X12095182Y-15269484D01*
X12095182Y-15269484D02*
X12076134Y-15269484D01*
X12076134Y-15269484D02*
X12057086Y-15259960D01*
X12057086Y-15259960D02*
X12047563Y-15250436D01*
X12047563Y-15250436D02*
X12038039Y-15231388D01*
X12038039Y-15231388D02*
X12028515Y-15193293D01*
X12028515Y-15193293D02*
X12028515Y-15145674D01*
X12028515Y-15145674D02*
X12038039Y-15107579D01*
X12038039Y-15107579D02*
X12047563Y-15088531D01*
X12047563Y-15088531D02*
X12057086Y-15079008D01*
X12057086Y-15079008D02*
X12076134Y-15069484D01*
X12228515Y-15250436D02*
X12238039Y-15259960D01*
X12238039Y-15259960D02*
X12228515Y-15269484D01*
X12228515Y-15269484D02*
X12218991Y-15259960D01*
X12218991Y-15259960D02*
X12228515Y-15250436D01*
X12228515Y-15250436D02*
X12228515Y-15269484D01*
X12361848Y-15069484D02*
X12380896Y-15069484D01*
X12380896Y-15069484D02*
X12399944Y-15079008D01*
X12399944Y-15079008D02*
X12409467Y-15088531D01*
X12409467Y-15088531D02*
X12418991Y-15107579D01*
X12418991Y-15107579D02*
X12428515Y-15145674D01*
X12428515Y-15145674D02*
X12428515Y-15193293D01*
X12428515Y-15193293D02*
X12418991Y-15231388D01*
X12418991Y-15231388D02*
X12409467Y-15250436D01*
X12409467Y-15250436D02*
X12399944Y-15259960D01*
X12399944Y-15259960D02*
X12380896Y-15269484D01*
X12380896Y-15269484D02*
X12361848Y-15269484D01*
X12361848Y-15269484D02*
X12342801Y-15259960D01*
X12342801Y-15259960D02*
X12333277Y-15250436D01*
X12333277Y-15250436D02*
X12323753Y-15231388D01*
X12323753Y-15231388D02*
X12314229Y-15193293D01*
X12314229Y-15193293D02*
X12314229Y-15145674D01*
X12314229Y-15145674D02*
X12323753Y-15107579D01*
X12323753Y-15107579D02*
X12333277Y-15088531D01*
X12333277Y-15088531D02*
X12342801Y-15079008D01*
X12342801Y-15079008D02*
X12361848Y-15069484D01*
X12495182Y-15069484D02*
X12618991Y-15069484D01*
X12618991Y-15069484D02*
X12552325Y-15145674D01*
X12552325Y-15145674D02*
X12580896Y-15145674D01*
X12580896Y-15145674D02*
X12599944Y-15155198D01*
X12599944Y-15155198D02*
X12609467Y-15164722D01*
X12609467Y-15164722D02*
X12618991Y-15183769D01*
X12618991Y-15183769D02*
X12618991Y-15231388D01*
X12618991Y-15231388D02*
X12609467Y-15250436D01*
X12609467Y-15250436D02*
X12599944Y-15259960D01*
X12599944Y-15259960D02*
X12580896Y-15269484D01*
X12580896Y-15269484D02*
X12523753Y-15269484D01*
X12523753Y-15269484D02*
X12504706Y-15259960D01*
X12504706Y-15259960D02*
X12495182Y-15250436D01*
X12799944Y-15069484D02*
X12704706Y-15069484D01*
X12704706Y-15069484D02*
X12695182Y-15164722D01*
X12695182Y-15164722D02*
X12704706Y-15155198D01*
X12704706Y-15155198D02*
X12723753Y-15145674D01*
X12723753Y-15145674D02*
X12771372Y-15145674D01*
X12771372Y-15145674D02*
X12790420Y-15155198D01*
X12790420Y-15155198D02*
X12799944Y-15164722D01*
X12799944Y-15164722D02*
X12809467Y-15183769D01*
X12809467Y-15183769D02*
X12809467Y-15231388D01*
X12809467Y-15231388D02*
X12799944Y-15250436D01*
X12799944Y-15250436D02*
X12790420Y-15259960D01*
X12790420Y-15259960D02*
X12771372Y-15269484D01*
X12771372Y-15269484D02*
X12723753Y-15269484D01*
X12723753Y-15269484D02*
X12704706Y-15259960D01*
X12704706Y-15259960D02*
X12695182Y-15250436D01*
X12980896Y-15136150D02*
X12980896Y-15269484D01*
X12933277Y-15059960D02*
X12885658Y-15202817D01*
X12885658Y-15202817D02*
X13009467Y-15202817D01*
X13076134Y-15069484D02*
X13076134Y-15107579D01*
X13152325Y-15069484D02*
X13152325Y-15107579D01*
X13447563Y-15345674D02*
X13438039Y-15336150D01*
X13438039Y-15336150D02*
X13418991Y-15307579D01*
X13418991Y-15307579D02*
X13409468Y-15288531D01*
X13409468Y-15288531D02*
X13399944Y-15259960D01*
X13399944Y-15259960D02*
X13390420Y-15212341D01*
X13390420Y-15212341D02*
X13390420Y-15174246D01*
X13390420Y-15174246D02*
X13399944Y-15126627D01*
X13399944Y-15126627D02*
X13409468Y-15098055D01*
X13409468Y-15098055D02*
X13418991Y-15079008D01*
X13418991Y-15079008D02*
X13438039Y-15050436D01*
X13438039Y-15050436D02*
X13447563Y-15040912D01*
X13514229Y-15088531D02*
X13523753Y-15079008D01*
X13523753Y-15079008D02*
X13542801Y-15069484D01*
X13542801Y-15069484D02*
X13590420Y-15069484D01*
X13590420Y-15069484D02*
X13609468Y-15079008D01*
X13609468Y-15079008D02*
X13618991Y-15088531D01*
X13618991Y-15088531D02*
X13628515Y-15107579D01*
X13628515Y-15107579D02*
X13628515Y-15126627D01*
X13628515Y-15126627D02*
X13618991Y-15155198D01*
X13618991Y-15155198D02*
X13504706Y-15269484D01*
X13504706Y-15269484D02*
X13628515Y-15269484D01*
X13866610Y-15269484D02*
X13866610Y-15069484D01*
X13952325Y-15269484D02*
X13952325Y-15164722D01*
X13952325Y-15164722D02*
X13942801Y-15145674D01*
X13942801Y-15145674D02*
X13923753Y-15136150D01*
X13923753Y-15136150D02*
X13895182Y-15136150D01*
X13895182Y-15136150D02*
X13876134Y-15145674D01*
X13876134Y-15145674D02*
X13866610Y-15155198D01*
X14076134Y-15269484D02*
X14057087Y-15259960D01*
X14057087Y-15259960D02*
X14047563Y-15250436D01*
X14047563Y-15250436D02*
X14038039Y-15231388D01*
X14038039Y-15231388D02*
X14038039Y-15174246D01*
X14038039Y-15174246D02*
X14047563Y-15155198D01*
X14047563Y-15155198D02*
X14057087Y-15145674D01*
X14057087Y-15145674D02*
X14076134Y-15136150D01*
X14076134Y-15136150D02*
X14104706Y-15136150D01*
X14104706Y-15136150D02*
X14123753Y-15145674D01*
X14123753Y-15145674D02*
X14133277Y-15155198D01*
X14133277Y-15155198D02*
X14142801Y-15174246D01*
X14142801Y-15174246D02*
X14142801Y-15231388D01*
X14142801Y-15231388D02*
X14133277Y-15250436D01*
X14133277Y-15250436D02*
X14123753Y-15259960D01*
X14123753Y-15259960D02*
X14104706Y-15269484D01*
X14104706Y-15269484D02*
X14076134Y-15269484D01*
X14257087Y-15269484D02*
X14238039Y-15259960D01*
X14238039Y-15259960D02*
X14228515Y-15240912D01*
X14228515Y-15240912D02*
X14228515Y-15069484D01*
X14409468Y-15259960D02*
X14390420Y-15269484D01*
X14390420Y-15269484D02*
X14352325Y-15269484D01*
X14352325Y-15269484D02*
X14333277Y-15259960D01*
X14333277Y-15259960D02*
X14323753Y-15240912D01*
X14323753Y-15240912D02*
X14323753Y-15164722D01*
X14323753Y-15164722D02*
X14333277Y-15145674D01*
X14333277Y-15145674D02*
X14352325Y-15136150D01*
X14352325Y-15136150D02*
X14390420Y-15136150D01*
X14390420Y-15136150D02*
X14409468Y-15145674D01*
X14409468Y-15145674D02*
X14418991Y-15164722D01*
X14418991Y-15164722D02*
X14418991Y-15183769D01*
X14418991Y-15183769D02*
X14323753Y-15202817D01*
X14495182Y-15259960D02*
X14514230Y-15269484D01*
X14514230Y-15269484D02*
X14552325Y-15269484D01*
X14552325Y-15269484D02*
X14571372Y-15259960D01*
X14571372Y-15259960D02*
X14580896Y-15240912D01*
X14580896Y-15240912D02*
X14580896Y-15231388D01*
X14580896Y-15231388D02*
X14571372Y-15212341D01*
X14571372Y-15212341D02*
X14552325Y-15202817D01*
X14552325Y-15202817D02*
X14523753Y-15202817D01*
X14523753Y-15202817D02*
X14504706Y-15193293D01*
X14504706Y-15193293D02*
X14495182Y-15174246D01*
X14495182Y-15174246D02*
X14495182Y-15164722D01*
X14495182Y-15164722D02*
X14504706Y-15145674D01*
X14504706Y-15145674D02*
X14523753Y-15136150D01*
X14523753Y-15136150D02*
X14552325Y-15136150D01*
X14552325Y-15136150D02*
X14571372Y-15145674D01*
X14647563Y-15345674D02*
X14657087Y-15336150D01*
X14657087Y-15336150D02*
X14676134Y-15307579D01*
X14676134Y-15307579D02*
X14685658Y-15288531D01*
X14685658Y-15288531D02*
X14695182Y-15259960D01*
X14695182Y-15259960D02*
X14704706Y-15212341D01*
X14704706Y-15212341D02*
X14704706Y-15174246D01*
X14704706Y-15174246D02*
X14695182Y-15126627D01*
X14695182Y-15126627D02*
X14685658Y-15098055D01*
X14685658Y-15098055D02*
X14676134Y-15079008D01*
X14676134Y-15079008D02*
X14657087Y-15050436D01*
X14657087Y-15050436D02*
X14647563Y-15040912D01*
X15009468Y-15345674D02*
X14999944Y-15336150D01*
X14999944Y-15336150D02*
X14980896Y-15307579D01*
X14980896Y-15307579D02*
X14971372Y-15288531D01*
X14971372Y-15288531D02*
X14961849Y-15259960D01*
X14961849Y-15259960D02*
X14952325Y-15212341D01*
X14952325Y-15212341D02*
X14952325Y-15174246D01*
X14952325Y-15174246D02*
X14961849Y-15126627D01*
X14961849Y-15126627D02*
X14971372Y-15098055D01*
X14971372Y-15098055D02*
X14980896Y-15079008D01*
X14980896Y-15079008D02*
X14999944Y-15050436D01*
X14999944Y-15050436D02*
X15009468Y-15040912D01*
X15085658Y-15136150D02*
X15085658Y-15269484D01*
X15085658Y-15155198D02*
X15095182Y-15145674D01*
X15095182Y-15145674D02*
X15114230Y-15136150D01*
X15114230Y-15136150D02*
X15142801Y-15136150D01*
X15142801Y-15136150D02*
X15161849Y-15145674D01*
X15161849Y-15145674D02*
X15171372Y-15164722D01*
X15171372Y-15164722D02*
X15171372Y-15269484D01*
X15295182Y-15269484D02*
X15276134Y-15259960D01*
X15276134Y-15259960D02*
X15266611Y-15250436D01*
X15266611Y-15250436D02*
X15257087Y-15231388D01*
X15257087Y-15231388D02*
X15257087Y-15174246D01*
X15257087Y-15174246D02*
X15266611Y-15155198D01*
X15266611Y-15155198D02*
X15276134Y-15145674D01*
X15276134Y-15145674D02*
X15295182Y-15136150D01*
X15295182Y-15136150D02*
X15323753Y-15136150D01*
X15323753Y-15136150D02*
X15342801Y-15145674D01*
X15342801Y-15145674D02*
X15352325Y-15155198D01*
X15352325Y-15155198D02*
X15361849Y-15174246D01*
X15361849Y-15174246D02*
X15361849Y-15231388D01*
X15361849Y-15231388D02*
X15352325Y-15250436D01*
X15352325Y-15250436D02*
X15342801Y-15259960D01*
X15342801Y-15259960D02*
X15323753Y-15269484D01*
X15323753Y-15269484D02*
X15295182Y-15269484D01*
X15418992Y-15136150D02*
X15495182Y-15136150D01*
X15447563Y-15069484D02*
X15447563Y-15240912D01*
X15447563Y-15240912D02*
X15457087Y-15259960D01*
X15457087Y-15259960D02*
X15476134Y-15269484D01*
X15476134Y-15269484D02*
X15495182Y-15269484D01*
X15714230Y-15136150D02*
X15714230Y-15336150D01*
X15714230Y-15145674D02*
X15733277Y-15136150D01*
X15733277Y-15136150D02*
X15771373Y-15136150D01*
X15771373Y-15136150D02*
X15790420Y-15145674D01*
X15790420Y-15145674D02*
X15799944Y-15155198D01*
X15799944Y-15155198D02*
X15809468Y-15174246D01*
X15809468Y-15174246D02*
X15809468Y-15231388D01*
X15809468Y-15231388D02*
X15799944Y-15250436D01*
X15799944Y-15250436D02*
X15790420Y-15259960D01*
X15790420Y-15259960D02*
X15771373Y-15269484D01*
X15771373Y-15269484D02*
X15733277Y-15269484D01*
X15733277Y-15269484D02*
X15714230Y-15259960D01*
X15923753Y-15269484D02*
X15904706Y-15259960D01*
X15904706Y-15259960D02*
X15895182Y-15240912D01*
X15895182Y-15240912D02*
X15895182Y-15069484D01*
X16085658Y-15269484D02*
X16085658Y-15164722D01*
X16085658Y-15164722D02*
X16076134Y-15145674D01*
X16076134Y-15145674D02*
X16057087Y-15136150D01*
X16057087Y-15136150D02*
X16018992Y-15136150D01*
X16018992Y-15136150D02*
X15999944Y-15145674D01*
X16085658Y-15259960D02*
X16066611Y-15269484D01*
X16066611Y-15269484D02*
X16018992Y-15269484D01*
X16018992Y-15269484D02*
X15999944Y-15259960D01*
X15999944Y-15259960D02*
X15990420Y-15240912D01*
X15990420Y-15240912D02*
X15990420Y-15221865D01*
X15990420Y-15221865D02*
X15999944Y-15202817D01*
X15999944Y-15202817D02*
X16018992Y-15193293D01*
X16018992Y-15193293D02*
X16066611Y-15193293D01*
X16066611Y-15193293D02*
X16085658Y-15183769D01*
X16152325Y-15136150D02*
X16228515Y-15136150D01*
X16180896Y-15069484D02*
X16180896Y-15240912D01*
X16180896Y-15240912D02*
X16190420Y-15259960D01*
X16190420Y-15259960D02*
X16209468Y-15269484D01*
X16209468Y-15269484D02*
X16228515Y-15269484D01*
X16371373Y-15259960D02*
X16352325Y-15269484D01*
X16352325Y-15269484D02*
X16314230Y-15269484D01*
X16314230Y-15269484D02*
X16295182Y-15259960D01*
X16295182Y-15259960D02*
X16285658Y-15240912D01*
X16285658Y-15240912D02*
X16285658Y-15164722D01*
X16285658Y-15164722D02*
X16295182Y-15145674D01*
X16295182Y-15145674D02*
X16314230Y-15136150D01*
X16314230Y-15136150D02*
X16352325Y-15136150D01*
X16352325Y-15136150D02*
X16371373Y-15145674D01*
X16371373Y-15145674D02*
X16380896Y-15164722D01*
X16380896Y-15164722D02*
X16380896Y-15183769D01*
X16380896Y-15183769D02*
X16285658Y-15202817D01*
X16552325Y-15269484D02*
X16552325Y-15069484D01*
X16552325Y-15259960D02*
X16533277Y-15269484D01*
X16533277Y-15269484D02*
X16495182Y-15269484D01*
X16495182Y-15269484D02*
X16476134Y-15259960D01*
X16476134Y-15259960D02*
X16466611Y-15250436D01*
X16466611Y-15250436D02*
X16457087Y-15231388D01*
X16457087Y-15231388D02*
X16457087Y-15174246D01*
X16457087Y-15174246D02*
X16466611Y-15155198D01*
X16466611Y-15155198D02*
X16476134Y-15145674D01*
X16476134Y-15145674D02*
X16495182Y-15136150D01*
X16495182Y-15136150D02*
X16533277Y-15136150D01*
X16533277Y-15136150D02*
X16552325Y-15145674D01*
X16628515Y-15345674D02*
X16638039Y-15336150D01*
X16638039Y-15336150D02*
X16657087Y-15307579D01*
X16657087Y-15307579D02*
X16666611Y-15288531D01*
X16666611Y-15288531D02*
X16676134Y-15259960D01*
X16676134Y-15259960D02*
X16685658Y-15212341D01*
X16685658Y-15212341D02*
X16685658Y-15174246D01*
X16685658Y-15174246D02*
X16676134Y-15126627D01*
X16676134Y-15126627D02*
X16666611Y-15098055D01*
X16666611Y-15098055D02*
X16657087Y-15079008D01*
X16657087Y-15079008D02*
X16638039Y-15050436D01*
X16638039Y-15050436D02*
X16628515Y-15040912D01*
M02*
